<svg id="Layer_1" data-name="Layer 1" xmlns="http://www.w3.org/2000/svg" viewBox="0 0 151.81 295.02"><g id="_5" data-name=" 5"><path id="_5-2" data-name=" 5-2" d="M127,159.9a67.31,67.31,0,0,1,17.75,21.71q7.05,13.29,7.05,33.21,0,34.83-23.82,57.52T67.56,295q-28.35,0-47.95-13.45T0,250.3a25.58,25.58,0,0,1,4.05-14.42q4.05-6.15,12.47-6.16,9.72,0,14.83,5.1t5.1,11.1a60.3,60.3,0,0,1-1.78,13q-1.78,7.77-2.76,11.5a43.63,43.63,0,0,0,4.21,3.08,46.68,46.68,0,0,0,7,3.73,62.43,62.43,0,0,0,10.29,3.16,64.85,64.85,0,0,0,14.17,1.37,46.66,46.66,0,0,0,19.6-4.21A40.55,40.55,0,0,0,102.72,265a64,64,0,0,0,10.45-20.65q3.48-11.58,3.48-29.41,0-22.84-12.72-37.83t-33.45-15A60.52,60.52,0,0,0,46.26,167Q35,171.89,26.09,183.23L15.24,179,29,62.05H145V90.89H42.09L33.67,159.6a104.92,104.92,0,0,1,19.2-10.3A65.48,65.48,0,0,1,79,144.19a89.06,89.06,0,0,1,24.55,3.64A67.67,67.67,0,0,1,127,159.9" fill="#fff"/></g></svg>