<svg id="Layer_1" data-name="Layer 1" xmlns="http://www.w3.org/2000/svg" viewBox="0 0 151.8 295.02"><g id="_2" data-name=" 2"><path id="_2-2" data-name=" 2-2" d="M151.8,235.89H0V213.73a95.13,95.13,0,0,1,12.15-11.25q7.78-6.24,18.47-13.52,6.48-4.36,15.55-9.55t20.58-11.32a155.35,155.35,0,0,0,19.68-12A62.91,62.91,0,0,0,99,143.32a40.72,40.72,0,0,0,6-12.54q2.26-7.53,2.27-21.45,0-20.23-10.85-29.7T68.53,70.16A48.83,48.83,0,0,0,48.6,74.29q-9.39,4.13-14.09,11.42Q35.64,90.9,37.34,98A60,60,0,0,1,39,112a14.59,14.59,0,0,1-5.1,10.94q-5.1,4.78-15.14,4.78-8.1,0-12.48-5.59t-4.38-15A36.32,36.32,0,0,1,6.8,89.51,56.6,56.6,0,0,1,20.74,73.23a70.93,70.93,0,0,1,22-11.83,86.21,86.21,0,0,1,28.35-4.53q33.21,0,52.74,14.8t19.52,39.57a63.59,63.59,0,0,1-3.48,21.53,44.29,44.29,0,0,1-11.26,17.15,84.5,84.5,0,0,1-20.09,14.17Q97,170,73.39,180.51q-14.1,6.31-26.25,13.19a135.78,135.78,0,0,0-19.92,13.35H151.8Z" fill="#fff"/></g></svg>