<?xml version="1.0" encoding="utf-8"?>
<!-- Generator: Adobe Illustrator 25.0.1, SVG Export Plug-In . SVG Version: 6.00 Build 0)  -->
<svg version="1.1" id="Layer_1" xmlns="http://www.w3.org/2000/svg" xmlns:xlink="http://www.w3.org/1999/xlink" x="0px" y="0px"
	 viewBox="0 0 518.8 295" enable-background="new 0 0 518.8 295" xml:space="preserve">
<g>
	<g id="_5">
		<path id="_5-2" fill="#FFFFFF" d="M127,159.9c7.4,5.9,13.4,13.3,17.7,21.7c4.7,8.9,7,19.9,7,33.2c0,23.2-7.9,42.4-23.8,57.5
			S92,295,67.6,295c-18.9,0-34.9-4.5-48-13.4C6.5,272.6,0,262.2,0,250.3c-0.1-5.1,1.3-10.1,4-14.4c2.7-4.1,6.9-6.2,12.5-6.2
			c6.5,0,11.4,1.7,14.8,5.1c3.4,3.4,5.1,7.1,5.1,11.1c-0.1,4.4-0.7,8.7-1.8,13c-1.2,5.2-2.1,9-2.8,11.5c1.3,1.1,2.7,2.1,4.2,3.1
			c2.2,1.4,4.5,2.7,7,3.7c3.3,1.3,6.8,2.4,10.3,3.2c4.7,1,9.4,1.4,14.2,1.4c6.8,0,13.4-1.4,19.6-4.2c6.1-2.8,11.5-7.1,15.6-12.5
			c4.7-6.2,8.3-13.2,10.4-20.7c2.3-7.7,3.5-17.5,3.5-29.4c0-15.2-4.2-27.8-12.7-37.8s-19.6-15-33.5-15c-8.3-0.1-16.6,1.6-24.2,4.9
			c-7.5,3.2-14.2,8.6-20.2,16.2L15.2,179L29,62.1h116v28.8H42.1l-8.4,68.7c6-4.1,12.5-7.5,19.2-10.3c8.3-3.5,17.2-5.2,26.2-5.1
			c8.3,0.1,16.6,1.3,24.6,3.6C112.1,150.3,120.1,154.4,127,159.9"/>
	</g>
	<g id="_2">
		<path id="_2-2" fill="#FFFFFF" d="M328.7,235.9H176.9v-22.2c3.7-4.1,7.8-7.9,12.2-11.2c5.2-4.2,11.3-8.7,18.5-13.5
			c4.3-2.9,9.5-6.1,15.6-9.5s12.9-7.2,20.6-11.3c6.8-3.5,13.4-7.5,19.7-12c4.8-3.6,9-7.9,12.6-12.8c2.7-3.8,4.7-8,6-12.5
			c1.5-5,2.3-12.2,2.3-21.4c0-13.5-3.6-23.4-10.9-29.7c-7.2-6.3-16.5-9.5-27.9-9.5c-6.9,0-13.6,1.4-19.9,4.1
			c-6.3,2.8-11,6.6-14.1,11.4c0.8,3.5,1.7,7.6,2.8,12.3c1.1,4.6,1.7,9.2,1.7,13.9c0,4.2-1.9,8.2-5.1,10.9c-3.4,3.2-8.4,4.8-15.1,4.8
			c-5.4,0-9.6-1.9-12.5-5.6c-2.9-3.7-4.4-8.7-4.4-15c0.1-6.2,1.8-12.2,4.9-17.6c3.6-6.3,8.3-11.8,13.9-16.3c6.6-5.2,14-9.2,22-11.8
			c9.1-3.1,18.7-4.6,28.4-4.5c22.1,0,39.7,4.9,52.7,14.8s19.5,23.1,19.5,39.6c0.1,7.3-1.1,14.6-3.5,21.5
			c-2.4,6.5-6.2,12.4-11.3,17.2c-6,5.7-12.7,10.4-20.1,14.2c-7.7,3.9-19.4,9.4-35.2,16.4c-9.4,4.2-18.1,8.6-26.2,13.2
			c-7,3.9-13.7,8.3-19.9,13.4h124.6V235.9z"/>
	</g>
	<g id="_8">
		<path id="_8-2" fill="#FFFFFF" d="M518.8,175c0,18.1-7.8,33.8-23.5,46.8c-15.7,13.1-36.2,19.6-61.7,19.6c-23.9,0-43-6-57.4-18
			c-14.4-12-21.5-27.4-21.5-46.3c0-13.9,4.2-25.6,12.7-34.9c8.5-9.3,21-17.3,37.7-23.7c-13.7-7.7-24-16.1-30.8-25.3
			c-6.7-9-10.3-19.9-10.2-31.1c0-17.6,7.5-32.3,22.4-44.2S419.4,0,440.2,0c20.8,0,37.7,5.6,50.6,16.8c12.9,11.2,19.4,25.3,19.4,42.3
			c0,10.9-3.6,21.2-10.7,31c-7.1,9.8-17.6,17.8-31.4,24.1c17.9,7.7,30.9,16.1,38.8,25.4C514.8,148.9,518.8,160.7,518.8,175
			 M486.4,182.6c0.1-6.2-1.4-12.4-4.4-17.9c-3.2-5.5-7.5-10.2-12.6-14c-5.3-4.1-12.7-8.4-22.1-12.9s-19.7-9-30.7-13.7
			c-10.4,5.6-18,12.8-22.8,21.5s-7.3,18.6-7.3,29.7c0,15.9,4.7,28.7,14,38.5s21.8,14.7,37.3,14.7c14.9,0,26.7-4.3,35.5-13
			C482,206.8,486.4,195.9,486.4,182.6 M479.6,57.4c0-13.2-3.9-23.9-11.7-32.2c-7.8-8.3-17.8-12.4-30.1-12.4c-12.2,0-22.2,4-30,11.9
			s-11.7,17.8-11.7,29.6c0,11.3,4.4,21,13.3,28.8c8.9,7.9,24.6,16.3,47.3,25.3c7.8-4.9,14-12.1,17.5-20.6
			C477.8,79.3,479.6,69.1,479.6,57.4"/>
	</g>
</g>
</svg>
