<svg id="Layer_1" data-name="Layer 1" xmlns="http://www.w3.org/2000/svg" viewBox="0 0 164.12 295.02"><g id="_8" data-name=" 8"><path id="_8-2" data-name=" 8-2" d="M164.12,175q0,27.21-23.49,46.82T78.9,241.39q-35.81,0-57.35-18T0,177.07q0-20.9,12.72-34.91t37.66-23.73Q29.82,106.93,19.6,93.15A50.9,50.9,0,0,1,9.4,62.05q0-26.41,22.43-44.23T85.54,0q31.26,0,50.63,16.85t19.36,42.28q0,16.37-10.69,31t-31.43,24.06q26.9,11.49,38.8,25.43T164.12,175m-32.4,7.61a35.54,35.54,0,0,0-4.38-17.9,47.13,47.13,0,0,0-12.63-14q-8-6.15-22.12-12.88T61.89,124.1q-15.55,8.43-22.84,21.47T31.76,175.3q0,23.8,14,38.47t37.34,14.66q22.36,0,35.48-13t13.13-32.88M124.91,57.35q0-19.76-11.75-32.16t-30-12.39q-18.31,0-30,11.91T41.47,54.27q0,17,13.29,28.84t47.31,25.27a44.28,44.28,0,0,0,17.5-20.57q5.34-12.8,5.34-30.46" fill="#fff"/></g></svg>