<svg xmlns="http://www.w3.org/2000/svg" xmlns:xlink="http://www.w3.org/1999/xlink" width="650" height="650" viewBox="0 0 650 650"><defs><clipPath id="a"><rect width="650" height="650" transform="translate(-17496 -6092)" fill="#fff"/></clipPath><clipPath id="b"><rect width="628.851" height="302.622" fill="none"/></clipPath></defs><g transform="translate(17496 6092)" clip-path="url(#a)"><g transform="translate(-17485.426 -5918.311)"><g clip-path="url(#b)"><path d="M188.044,65.69h-.256a9.06,9.06,0,0,1-4.094-1.45,15.74,15.74,0,0,0-.171,1.792,8.113,8.113,0,0,1-.256,1.62,27.479,27.479,0,0,1-2.687,8.743,12.669,12.669,0,0,1-5.928,5.075,20.076,20.076,0,0,1-8.615,1.961q-6.825,0-10.236-5.032a14.733,14.733,0,0,1-1.578-6.824,19.128,19.128,0,0,1,.938-6.654,7.637,7.637,0,0,1,1.919-3.412q.17-.169.171.171a17.781,17.781,0,0,0-1.365,5.886,6.271,6.271,0,0,0,.938,4.009q3.241,5.8,10.321,5.8a26.523,26.523,0,0,0,7.336-1.194,12.057,12.057,0,0,0,5.8-3.155q.512-.513,1.535-1.707a11.419,11.419,0,0,0,.256-1.833,12.421,12.421,0,0,0,0-2.047q-.086-.9-1.152-7.549T179.3,46.456q-.556-6.781-1.237-13.391a112.5,112.5,0,0,1-.682-11.344,17.663,17.663,0,0,1,1.876-8.316,2.72,2.72,0,0,1,.086,1.194v2.218a155.1,155.1,0,0,0,.981,15.481q.98,9.426,1.237,11.515t.853,5.672q.768,5.546,2.559,8.018a6.116,6.116,0,0,0,2.218,1.748,12.939,12.939,0,0,1,2.389,1.493,2.424,2.424,0,0,1,.938,1.962,2.8,2.8,0,0,1-.768,2,3.1,3.1,0,0,1-1.706.98" transform="translate(-85.521 -7.433)" fill="#fff"/><path d="M224.364,118.588l.853-.256a11.907,11.907,0,0,1,2.644.256q22.774,4.607,50.708,7.933t60.73,5.032q32.8,1.705,66.147,1.408t68.919-3.37q42.989-3.668,67.213-8.785a17.486,17.486,0,0,1,3.071-.512,1.9,1.9,0,0,1,1.962,1.109q.511.938.6,1.109a2.674,2.674,0,0,1-.938,2.047,6.874,6.874,0,0,1-2.729,1.365Q482.64,138.8,387.279,139.4q-84.785.511-161.124-14.586a7.1,7.1,0,0,1-2.9-1.706,3.227,3.227,0,0,1-.768-1.876,2.516,2.516,0,0,1,1.876-2.644" transform="translate(-123.376 -65.619)" fill="#fff"/><path d="M950.136,108.417l-.512,2.73q.426,2.218,6.824,2.985a7.738,7.738,0,0,1,2.986.683,2.038,2.038,0,0,1,.81,1.748,2.97,2.97,0,0,1-.9,2.218,2.666,2.666,0,0,1-1.877.981q-2.219,0-7.591-3.5a6.383,6.383,0,0,0-1.621-.853q-.428-.084-1.791,1.45-2.987,2.987-4.563,3.071a3.066,3.066,0,0,1-2.346-.64,2.27,2.27,0,0,1-.767-1.706,5.47,5.47,0,0,1,.17-1.535,1.416,1.416,0,0,1,.768-.853,17.909,17.909,0,0,1,2.772-.853,31.584,31.584,0,0,0,3.071-.9,5.776,5.776,0,0,0,1.876-1.279,6.657,6.657,0,0,0,1.578-2.559q.6-1.619.853-1.621c.171,0,.256.143.256.426m-7.037,26.1a8.221,8.221,0,0,1-1.45-.853,1.229,1.229,0,0,1-.555-.981,7.227,7.227,0,0,1,1.536-2.6q1.535-2.047,1.876-2.047.682,0,3.924,2.645l1.194.6q2.388-3.413,3.113-3.412a4.314,4.314,0,0,1,2.175,1.152q1.449,1.152,2.132,1.578a1.272,1.272,0,0,1,.682,1.109,2.551,2.551,0,0,1-.341,1.279q-1.452,3.411-2.9,3.412a3.5,3.5,0,0,1-2.218-1.279,18.718,18.718,0,0,0-1.535-1.45l-1.194-.682q-1.536,3.5-2.9,3.582a4.841,4.841,0,0,1-1.45-.81,16.347,16.347,0,0,0-2.09-1.237" transform="translate(-520.588 -59.884)" fill="#fff"/><path d="M978.758,111.84h-1.706q-3.411,0-3.411-2.559,0-2.9,3.753-2.9a17.073,17.073,0,0,0,5.885-.768q3.838-1.28,6.013-2.175a7.487,7.487,0,0,0,2.175-1.066,9.9,9.9,0,0,0-2.559-1.152q-2.559-.98-4.137-1.45a13.479,13.479,0,0,0-3.8-.469,6.965,6.965,0,0,0-3.412.682q-2.131,1.024-2.218.085,0-.681,1.834-2.516a14.034,14.034,0,0,1,3.54-2.687,7.069,7.069,0,0,1,3.113-.853,18.613,18.613,0,0,1,5.5,1.707,67.888,67.888,0,0,0,7.037,2.559,27.976,27.976,0,0,0,6.44,1.024h2.132l3.924-.257q1.875,0,1.791.939a4.349,4.349,0,0,1-.768,1.962q-1.2,2.389-2.047,2.474-.255,0-3.411-.256h-1.706a17.247,17.247,0,0,0-1.919.042,7.869,7.869,0,0,0,1.45.554,17.176,17.176,0,0,0,4.307.683,19.189,19.189,0,0,1,4.436.682,1.98,1.98,0,0,1,1.621,1.962q0,2.987-2.474,2.985a11.967,11.967,0,0,1-4.819-1.322,18.746,18.746,0,0,1-4.819-3.113q-2.133-2.131-2.559-2.132-2.218,0-6.61,2.389a75.937,75.937,0,0,1-6.994,3.454,23.49,23.49,0,0,1-5.587,1.493" transform="translate(-539.912 -52.133)" fill="#fff"/><path d="M1060.042,89.218l-.512,2.73q.426,2.218,6.824,2.985a7.738,7.738,0,0,1,2.985.682,2.037,2.037,0,0,1,.81,1.748,2.97,2.97,0,0,1-.9,2.218,2.666,2.666,0,0,1-1.877.981q-2.218,0-7.591-3.5a6.383,6.383,0,0,0-1.621-.853q-.428-.084-1.791,1.45-2.987,2.986-4.563,3.071a3.067,3.067,0,0,1-2.346-.64,2.27,2.27,0,0,1-.768-1.706,5.452,5.452,0,0,1,.171-1.536,1.415,1.415,0,0,1,.767-.853,17.933,17.933,0,0,1,2.772-.853,31.716,31.716,0,0,0,3.071-.9,5.775,5.775,0,0,0,1.876-1.279,6.662,6.662,0,0,0,1.578-2.559q.6-1.618.853-1.62c.171,0,.256.143.256.426m-1.706-9.212q-1.535,3.838-2.986,3.838-.511-.256-4.35-3.07a1.474,1.474,0,0,1-.767-1.237q0-.724,1.621-2.772.768-1.279,1.45-1.365,1.193,0,4.265,2.218l1.024.853q2.386-3.411,3.2-3.412t3.028,1.961l.6.512q1.279,1.2,1.322,1.621a1.593,1.593,0,0,1-.384,1.024q-1.28,3.242-2.9,3.241a4.79,4.79,0,0,1-2.985-1.578,21.313,21.313,0,0,0-2.132-1.834" transform="translate(-581.534 -41.622)" fill="#fff"/><path d="M1097.811,102.576c.113,0,.071.1-.128.3a1.419,1.419,0,0,0-.3,1.024,2,2,0,0,0,.682,1.407,4.262,4.262,0,0,0,3.156,1.194,11.432,11.432,0,0,0,5.374-1.621,6.872,6.872,0,0,0,1.876-3.37q.682-2.345,1.024-2.345a2.212,2.212,0,0,1-.128,1.364,5.234,5.234,0,0,0-.3,1.279q0,2.134,4.436,2.986a4.1,4.1,0,0,0,1.45.256q.768,0,.853-.384t.341-3.411q.256-3.027.938-3.028.512,0,.768,1.024,1.536,4.35,4.947,5.032a9.913,9.913,0,0,1,2.729.939,1.753,1.753,0,0,1,.853,1.62,2.272,2.272,0,0,1-2.474,2.559,4.591,4.591,0,0,1-3.369-1.535,14.306,14.306,0,0,1-2.175-2.729q-.512-.682-.768-.64t-.853,2.516q-.6,2.475-1.194,2.943a4.03,4.03,0,0,1-2.644.213,11.8,11.8,0,0,1-3.582-.981,6.181,6.181,0,0,0-2.218-.725,1.392,1.392,0,0,0-1.024.341,8.165,8.165,0,0,1-4.862,2.559,6.443,6.443,0,0,1-4.776-.683q-.768-.767-1.28-1.194-.767-.512-1.194,0a8.153,8.153,0,0,1-2.3,1.962,11.889,11.889,0,0,1-5.544,1.621q-2.387-.512-2.388-2.389,0-2.389,3.326-2.729a18.752,18.752,0,0,0,5.2-1.663,14.875,14.875,0,0,0,3.838-2.474q1.28-1.235,1.706-1.237" transform="translate(-600.965 -54.469)" fill="#fff"/><path d="M1189.84,103.348l-2.814-1.365a71.354,71.354,0,0,0-9.041-3.411q-.428-.17-.469.128a.746.746,0,0,1-.128.384,9.25,9.25,0,0,1-2.9,2.942,5.6,5.6,0,0,1-2.729.981q-2.643,0-2.815-1.961,0-2.643,3.668-3.071a8.1,8.1,0,0,0,3.583-1.535,9.3,9.3,0,0,0,2.218-3.412,14.1,14.1,0,0,1,2.559-4.052q1.536-1.663,2.388-1.663,1.705,0,3.327,2.388a32.991,32.991,0,0,0,3.156,3.625,17.125,17.125,0,0,0,3.668,1.834q3.24.939,3.412,3.071,0,.768-1.706,2.3a10.471,10.471,0,0,1-1.664.17,5.219,5.219,0,0,1-1.748-.426l-.683,1.706q-.511,1.364-1.279,1.365M1186.514,92.3a2.658,2.658,0,0,0-2.047-1.152,4.784,4.784,0,0,0-2.473.853q-1.366.853-1.365,1.365.17.512,2.132,1.279,4.094,1.535,4.436,1.578c.226.029.341-.014.341-.128v-.939a4.775,4.775,0,0,0-1.023-2.857" transform="translate(-648.214 -48.417)" fill="#fff"/><path d="M1218.156,50.154l.6-1.364q.768-1.536,4.179-2.047a8.584,8.584,0,0,0,3.2-1.024q1.065-.682,1.066-3.071a47.617,47.617,0,0,0-1.706-10.918q-.172-.513-1.621-11.216T1222.164,8.53a10.915,10.915,0,0,1-.256-2,21.763,21.763,0,0,1,.725-3.625q.723-2.9,1.109-2.9t.64,1.194a4.913,4.913,0,0,0,1.449,2.388,6.1,6.1,0,0,1,1.322,2.346q.042.639-2.345,6.1l.085,2.9q.084,1.791,1.791,12.879a128.89,128.89,0,0,1,1.621,13.477,29.534,29.534,0,0,1-.512,5.459,5.776,5.776,0,0,1-2.474,4.264,6.626,6.626,0,0,1-3.753,1.109h-.341a5.013,5.013,0,0,1-2.985-.853q-.426-.341-.085-1.109" transform="translate(-675.42 0)" fill="#fff"/><path d="M1253.842,50.268l.256,1.962q0,6.825-1.194,7.847-.172,0-1.067-11.387t-2.26-22.988q-1.365-11.6-1.364-11.813t.512-3.8l.512-3.582.512,3.412q.169,1.2.6,4.776l2.047,16.377q1.449,14.757,1.45,19.191" transform="translate(-692.171 -3.611)" fill="#fff"/><path d="M162.24,281.885q-1.365,3.243-2.9,3.326-.512,0-4.436-2.473a1.41,1.41,0,0,1-.682-1.279,5.965,5.965,0,0,1,1.536-2.814q1.193-1.962,1.535-1.962a34.8,34.8,0,0,1,4.777,3.412l.682.085q2.559-3.752,2.9-3.668a5.433,5.433,0,0,1,1.876,1.194,13.6,13.6,0,0,0,2.218,1.663c.568.314.853.683.853,1.109a2.6,2.6,0,0,1-.512,1.407q-1.28,3.157-2.389,3.156-1.023,0-4.435-2.3Zm7.336,18.083-.426-2.388a23.906,23.906,0,0,1,.341-3.156q.34-2.218.682-2.218t.682,2.473q2.131,17.4,6.141,21.665a9.712,9.712,0,0,0,4.734,2.431q3.027.726,3.028,2.687a3.177,3.177,0,0,1-.938,2.26,2.637,2.637,0,0,1-1.834.981,7.121,7.121,0,0,1-2.175-.426,10.577,10.577,0,0,1-5.16-4.478,26.342,26.342,0,0,1-2.6-6.867q-.939-3.921-1.108-3.88a14.308,14.308,0,0,0-1.621,2.431l-1.621,2.644-1.791-.426q-8.616-.681-8.7-1.535a14.027,14.027,0,0,1,.725-2.6,12.124,12.124,0,0,1,1.28-2.943,12.129,12.129,0,0,1,3.156-2.3q2.6-1.535,4.9-2.687t2.3-1.663m.6,4.009-.256-1.194a2.076,2.076,0,0,1-.086-1.023q-.172,0-1.023.939a27.461,27.461,0,0,1-2.858,2.558q-2.005,1.622-2,2.048c0,.34.653.626,1.962.853a19.732,19.732,0,0,0,3.284.34q1.322,0,1.663-.6a7.827,7.827,0,0,1-.341-1.962q-.086-.426-.341-1.962" transform="translate(-85.521 -153.333)" fill="#fff"/><path d="M485.613,386.036c-1.83-.878-2.631-3.535-1.9-5.464q-11.327,1.248-24.383,2.362-35.568,3.071-68.919,3.37T324.265,384.9q-32.8-1.708-60.73-5.032t-50.708-7.933a11.9,11.9,0,0,0-2.644-.256l-.853.256a2.515,2.515,0,0,0-1.876,2.644,3.23,3.23,0,0,0,.768,1.877,7.113,7.113,0,0,0,2.9,1.706q76.338,15.1,161.124,14.586,64.89-.407,113.819-6.5c-.15-.068-.3-.134-.45-.205" transform="translate(-115.039 -206.105)" fill="#fff"/><path d="M422.213,360.93l.823-.34a11.927,11.927,0,0,1,2.657-.01q23.121,2.3,51.248,2.818t60.93-1.072q32.8-1.586,65.955-5.22t68.236-10.251q42.406-7.954,66-15.469a17.513,17.513,0,0,1,3-.817,1.9,1.9,0,0,1,2.063.907q.6.882.705,1.044a2.672,2.672,0,0,1-.729,2.131,6.884,6.884,0,0,1-2.579,1.631q-59.307,18.91-154.129,29.05-84.307,9-161.775,1.615a7.105,7.105,0,0,1-3.056-1.407,3.227,3.227,0,0,1-.952-1.791,2.515,2.515,0,0,1,1.6-2.818" transform="translate(-233.23 -183.279)" fill="#fff"/><path d="M1139.377,307.533a18.338,18.338,0,0,1,5.245.384,1.54,1.54,0,0,1,1.067,1.535,4.4,4.4,0,0,1-.64,2.218q-.641,1.108-1.237,1.109-.428.425.213,2.089a11.746,11.746,0,0,1,.64,4.18,9.791,9.791,0,0,1-1.449,4.99,4.234,4.234,0,0,1-3.668,2.474,7.68,7.68,0,0,1-4.051-1.109,11.864,11.864,0,0,1-2.772-2.175q-.939-1.068-2.388-3.028-2.134-4.692-2.09-6.141c.028-.968,0-1.465-.086-1.493a3.487,3.487,0,0,0-.981.128,3.342,3.342,0,0,1-.853.128v-.213q.256-.684-1.194-.086-.428.17-1.45.512a6.853,6.853,0,0,1-2.175.341,4.271,4.271,0,0,1-2.132-.554,1.868,1.868,0,0,1-.98-1.748q0-2.217,2.559-2.729a35.495,35.495,0,0,0,5.971-2.047l2.218-.853,1.195-3.668a73.416,73.416,0,0,1,4.435-9.553,18.064,18.064,0,0,1,3.455-4.521,4.119,4.119,0,0,1,1.833-1.023q1.024,0,1.706,2.089a13.021,13.021,0,0,1,.682,4.052,16.07,16.07,0,0,1-2.132,8.145,14.555,14.555,0,0,1-5.2,5.5q-1.023.511-.853.682.939.428,5.118.384m-8.529-2.772a7.088,7.088,0,0,1,1.535-.682,28.384,28.384,0,0,0,4.9-2.986q3.539-2.472,3.541-4.52a4.887,4.887,0,0,0-.768-3.028,2.311,2.311,0,0,0-1.876-.981q-1.109,0-2.814,1.877a20.651,20.651,0,0,0-4.265,7.847,4.91,4.91,0,0,0-.256,2.388Zm10.491,15.694.511-.256a.737.737,0,0,0,.256-.512,4.09,4.09,0,0,0-1.791-3.156,16.188,16.188,0,0,0-4.777-2.814,21.706,21.706,0,0,0-3.668-1.365.376.376,0,0,0-.426.427q0,2.387,3.582,5.032t6.312,2.644" transform="translate(-620.183 -158.972)" fill="#fff"/><path d="M1202.111,313.913l-4.606-.6a29.729,29.729,0,0,0-6.611.64,27.492,27.492,0,0,0-6.525,2.644,53.768,53.768,0,0,1-7.677,3.369,21.088,21.088,0,0,1-4.606,1.109q-2.643.17-2.985-2.261t3.754-3.113a49.07,49.07,0,0,0,8.87-2.431q4.434-1.663,4.435-2.516,0-.682-2.132-1.365a27.6,27.6,0,0,0-7.933-1.962,8.423,8.423,0,0,0-3.753.6q-1.707.767-1.962.6,0-.681,1.621-2.3,3.838-3.839,6.653-3.753a19.7,19.7,0,0,1,5.8,1.536,47.253,47.253,0,0,0,14.5,4.179,19.387,19.387,0,0,0,5.033.171q1.7-.256,1.706.511a4.707,4.707,0,0,1-.853,1.877,10.522,10.522,0,0,1-1.451,2.559,1.5,1.5,0,0,1-1.279.512m-9.34,15.268q-.982,1.961-1.962,1.962a7.2,7.2,0,0,1-3.242-1.578q-2.26-1.579-2.26-2.089a5.667,5.667,0,0,1,1.407-2.9q1.408-1.877,1.919-1.876a7.691,7.691,0,0,1,2.6,1.578,10.407,10.407,0,0,1,2.345,2.09,5.188,5.188,0,0,1-.81,2.814" transform="translate(-648.287 -167.782)" fill="#fff"/><path d="M1240.14,329.989l4.009.256a18.6,18.6,0,0,0,4.777-.682,28.844,28.844,0,0,0,12.2-8.615q4.946-5.545,5.033-8.529,0-1.535-1.536.682t-3.241,2.218a1.342,1.342,0,0,1-.853-.171q-3.243-1.024-3.2-5.545a15.555,15.555,0,0,1,2.773-8.615q1.193-1.536,2.089-1.578t2.6,1.578q2.9,2.9,2.9,8.274a32.277,32.277,0,0,1-.768,5.373,33.988,33.988,0,0,1-9.211,15.354q-3.157,3.155-4.819,3.156a52.523,52.523,0,0,1-7.591-1.194q-5.928-1.2-5.928-1.706-.17-.255.767-.256m18.936-23.328a1.6,1.6,0,0,0,.725,1.152,2.1,2.1,0,0,0,1.151.6.959.959,0,0,0,.768-.469,1.771,1.771,0,0,0,.341-1.066,1.765,1.765,0,0,0-1.621-1.621,1.261,1.261,0,0,0-.981.426,1.426,1.426,0,0,0-.384.981" transform="translate(-687.255 -166.032)" fill="#fff"/><path d="M174.87,641.657l6.482.6q9.552,0,18.424-8.615,3.838-3.838,4.264-6.056c.171-.625.141-.938-.085-.938q-1.024,0-1.962-1.535a5.713,5.713,0,0,1-.938-2.986,5.019,5.019,0,0,1,.341-2.133l.6-.767q2.729,2.9,4.947,2.9a4.973,4.973,0,0,1,2.388.6,1.864,1.864,0,0,1,1.109,1.706,2.9,2.9,0,0,1-2.559,3.071l-2.218-.256-.853,2.3A26.467,26.467,0,0,1,194.4,643.107q-3.157,2.643-5.971,2.559-.255,0-5.5-1.45t-8.487-2.474Z" transform="translate(-96.734 -343.378)" fill="#fff"/><path d="M309.881,636.206c-.444-.052,46.856,7.318,46.413,7.265-18.624-2.218-87.657-13.559-102.839-16.63a11.934,11.934,0,0,0-2.644-.256l-.853.256a2.516,2.516,0,0,0-1.876,2.644,3.229,3.229,0,0,0,.768,1.877,7.105,7.105,0,0,0,2.9,1.706q26.488,5.239,54,8.591c-.341-2.243,3.959-3.21,4.136-5.453" transform="translate(-137.568 -347.461)" fill="#fff"/><path d="M1191.33,523.753l-.6,4.777q-.172.94.341.938.512-.17.512-.256.682-.681,3.668-2.985,8.528-7.165,12.282-8.7,1.024-.682,3.54-.256a10.888,10.888,0,0,1,5.075,2.559q1.449,1.2,1.45,1.961.17.768-.085,1.024a19.816,19.816,0,0,0-.768,2.218q-1.535,6.4-6.227,8.871l-.511.6q3.922,0,5.715-.17t3.071-.171q3.24-.17,3.327,2.559a2.3,2.3,0,0,1-1.45,2.047q-1.452.768-10.151,1.109-.683,0-4.691-.426l-1.961-.171a14.008,14.008,0,0,1-1.792-.085h-2.132a32.471,32.471,0,0,0-4.606.341,98.82,98.82,0,0,1-12.453,1.45q-2.387,0-3.156-1.109a3.013,3.013,0,0,1-.511-1.706q-.17-1.28.511-1.621a13.219,13.219,0,0,1,1.877-.768l2.644-.512q2.9-.512,3.923-2.132a21.863,21.863,0,0,0,1.365-2.516,8.66,8.66,0,0,0,.427-3.2,27,27,0,0,0-.3-4.137q-.3-1.919-1.023-10.705t-.981-11.088q-.256-2.3-.555-4.009a12.262,12.262,0,0,0-.554-2.3,7.811,7.811,0,0,1-.384-2.3,10.642,10.642,0,0,1,.384-2.047q.938-2.985,1.45-2.985.17,0,1.024,1.152t1.365,1.749a2.835,2.835,0,0,1,.64,1.109,2.174,2.174,0,0,1-.213,1.322,3.709,3.709,0,0,0-.341,1.066,7.059,7.059,0,0,1-.426,1.45,14,14,0,0,0-.427,4.18q0,2.987.853,12.2t.853,11.685m22.859,2.559q0-1.023-2.985-2.218a13.706,13.706,0,0,0-4.692-1.194,5.983,5.983,0,0,0-2.218.257,63.1,63.1,0,0,0-8.828,5.757q-6.1,4.478-6.1,5.417,0,.427.768.256,3.24-.682,7.079-1.535,10.32-2.387,14.756-4.776,2.218-1.024,2.218-1.962m-11.046-16.547q-.982,1.877-1.961,1.876t-3.2-1.706q-2.389-1.876-2.388-2.559a5.235,5.235,0,0,1,1.364-2.389q1.449-1.7,2.047-1.706,1.449,0,4.777,3.668a3.842,3.842,0,0,1-.64,2.815" transform="translate(-653.893 -270.524)" fill="#fff"/><path d="M1272.963,543.76l-.256-.426a11.17,11.17,0,0,0-2.218-2.73l-1.706-1.876v-3.156q0-2.729.427-2.985h.085q.425,0,1.663,1.493a14.381,14.381,0,0,1,2.09,3.455,15.8,15.8,0,0,1,.853,5.971v.853a9.193,9.193,0,0,1-2.473,6.141,8.62,8.62,0,0,1-6.654,2.815q-2.643-1.024-1.62-3.327a2.982,2.982,0,0,1,1.961-1.45l1.621-.341c.8-.171,1.194-.312,1.194-.427a14.634,14.634,0,0,0,4.094-2.175,2.568,2.568,0,0,0,.938-1.834m-6.44-23.158q-2-1.747-2-2.3a6.494,6.494,0,0,1,1.237-2.388q1.236-1.833,2-1.833,1.535,0,4.947,3.412.256.939-.853,2.9t-2.389,1.962q-.94,0-2.942-1.749" transform="translate(-700.298 -285.071)" fill="#fff"/><path d="M282.636,631.547q-.219,2.829-.453,5.656a2.785,2.785,0,0,0,1.676-.97,3.176,3.176,0,0,0,.939-2.26c0-1.1-.727-1.908-2.162-2.425" transform="translate(-156.479 -350.212)" fill="#fff"/><path d="M556.054,645.766c-1.83-.878-2.631-3.535-1.9-5.464q-11.327,1.247-24.383,2.362-35.568,3.071-68.919,3.37t-66.147-1.407q-32.8-1.708-60.73-5.032t-50.708-7.933c-.223-.051-.463-.092-.711-.128q-.249,3.225-.519,6.447,76.127,15,160.648,14.493,64.89-.407,113.818-6.5c-.15-.068-.3-.134-.45-.205" transform="translate(-156.398 -350.204)" fill="#fff"/><path d="M841.1,591.68l-.522.162q-23.592,7.517-66,15.469-35.083,6.615-68.236,10.251t-65.956,5.221q-32.8,1.584-60.929,1.072-13.325-.244-25.522-.891a24.49,24.49,0,0,1-.913,6.434,821.386,821.386,0,0,0,135.888-3.61q93.47-10,152.422-28.515-.181-2.792-.237-5.592" transform="translate(-306.671 -328.104)" fill="#fff"/><path d="M1190.415,597.256a5.322,5.322,0,0,1,.623-.22q-.17-2.7-.223-5.412a44.188,44.188,0,0,1-4.58,1.452q-2.559.512-2.559,2.729a1.868,1.868,0,0,0,.98,1.749,4.27,4.27,0,0,0,2.132.554,6.855,6.855,0,0,0,2.175-.341q1.022-.342,1.45-.511" transform="translate(-656.384 -328.073)" fill="#fff"/><path d="M1394.641,385.961v-4.128l1,.237v4.151Z" transform="translate(-773.37 -211.738)" fill="#fff"/><path d="M1394.641,246.362v-4.128l1,.238v4.151Z" transform="translate(-773.37 -134.326)" fill="#fff"/><path d="M1397.859,291.9c0,1.886-3.036,3.143-5.006,3.143a7.17,7.17,0,0,1-2.621-.392,4.117,4.117,0,0,1-1.874-3.215c0-1.352.889-3.084,3.76-3.108,3.167-.024,5.741,1.7,5.741,3.57m-5.883,2.467c.676,0,4.116-.89,4.116-2.716,0-1.3-2.123-2.586-3.558-2.586a2.7,2.7,0,0,0-2.455,2.574,3.017,3.017,0,0,0,1.9,2.728" transform="translate(-769.886 -159.889)" fill="#fff"/><path d="M1393.624,310.147a14.894,14.894,0,0,1-5.089,1.02c-.6,0-1.009-.047-2.467-1.009l.119-.2a6.5,6.5,0,0,0,1.459.154c2.515,0,5.563-1.2,8.576-2.443a13.273,13.273,0,0,1,1.234.771v.2a6.435,6.435,0,0,0-1.59.807,3.025,3.025,0,0,0-.842,2.266c0,.806.427,1.91,2.443,2.111a2.96,2.96,0,0,1-.166.5c-.178.012-.356.024-.521.024-2.017,0-3.333-.925-3.333-2.776a5.3,5.3,0,0,1,.213-1.4Z" transform="translate(-768.616 -170.611)" fill="#fff"/><path d="M1395.057,328.963c-2.052-.546-6.18-1.874-8.564-2.835v-.107c.617-.32.949-.51,1.459-.723a43.164,43.164,0,0,0,8.766,3.108c.344.308.711.712.972,1v.107a37.066,37.066,0,0,0-9.94,3.807c-.4-.32-.8-.616-1.258-.937v-.142a33.689,33.689,0,0,1,8.564-3.227Z" transform="translate(-768.852 -180.387)" fill="#fff"/><path d="M15.774,219.939v4.128l-1-.237v-4.151Z" transform="translate(-8.195 -121.818)" fill="#fff"/><path d="M15.774,359.537v4.128l-1-.237v-4.151Z" transform="translate(-8.195 -199.229)" fill="#fff"/><path d="M1.971,311.1c0-1.886,3.036-3.144,5.005-3.144a7.18,7.18,0,0,1,2.621.392,4.118,4.118,0,0,1,1.874,3.215c0,1.352-.889,3.084-3.76,3.108-3.167.024-5.741-1.7-5.741-3.57m5.883-2.467c-.676,0-4.116.89-4.116,2.716,0,1.3,2.123,2.586,3.558,2.586a2.7,2.7,0,0,0,2.455-2.573,3.016,3.016,0,0,0-1.9-2.728" transform="translate(-1.093 -170.772)" fill="#fff"/><path d="M3.843,292.9a14.883,14.883,0,0,1,5.089-1.02c.6,0,1.009.047,2.467,1.008l-.118.2a6.493,6.493,0,0,0-1.459-.154c-2.515,0-5.563,1.2-8.576,2.443a13.2,13.2,0,0,1-1.234-.771v-.2A6.408,6.408,0,0,0,1.6,293.6a3.025,3.025,0,0,0,.842-2.265c0-.806-.427-1.91-2.443-2.111a3,3,0,0,1,.166-.5c.178-.012.356-.024.522-.024,2.017,0,3.333.925,3.333,2.776a5.3,5.3,0,0,1-.213,1.4Z" transform="translate(0 -160.095)" fill="#fff"/><path d="M2.66,272.419c2.051.546,6.18,1.874,8.564,2.835v.107c-.617.32-.949.51-1.46.723A43.144,43.144,0,0,0,1,272.976c-.344-.309-.711-.712-.972-1v-.107a37.09,37.09,0,0,0,9.94-3.807c.4.32.8.616,1.258.937v.142a33.682,33.682,0,0,1-8.564,3.227Z" transform="translate(-0.015 -148.651)" fill="#fff"/></g></g></g></svg>