<svg xmlns="http://www.w3.org/2000/svg" xmlns:xlink="http://www.w3.org/1999/xlink" width="650" height="650" viewBox="0 0 650 650"><defs><clipPath id="a"><rect width="650" height="650" transform="translate(-17496 -6092)" fill="#fff"/></clipPath><clipPath id="b"><rect width="526.224" height="650" fill="none"/></clipPath></defs><g transform="translate(17496 6092)" clip-path="url(#a)"><g transform="translate(-17434 -6092.002)"><g transform="translate(0 0.002)" clip-path="url(#b)"><path d="M270.012,750.813a6.919,6.919,0,0,1-3.2-1.1c-1.86-1.052-2.764-2.087-2.764-3.164,0-1.025.762-2.5,2.33-4.495,2.36-3.006,2.623-3.006,2.855-3.006.683,0,1.853.556,3.681,1.748,1.847,1.2,2.746,2.236,2.746,3.153,0,.873-.614,2.085-1.877,3.7a13.748,13.748,0,0,1-2.8,2.956,2.3,2.3,0,0,1-.979.2m-.729-11.11a16.723,16.723,0,0,0-2.391,2.756c-1.454,1.855-2.191,3.232-2.191,4.094,0,.811.82,1.685,2.435,2.6s2.826,1.22,3.548.891a13.9,13.9,0,0,0,2.591-2.785c1.438-1.843,1.74-2.814,1.74-3.3,0-.462-.425-1.29-2.451-2.609-2-1.3-2.886-1.618-3.28-1.641" transform="translate(-92.699 -259.455)" fill="#fff"/><path d="M363.238,791.937a3.314,3.314,0,0,1-1.492-.362,11.372,11.372,0,0,1-4.317-3.971c-.466-.835.238-2.408,2.282-5.1l1.881-2.278c-2.9-1.289-4.386-2.615-4.543-4.045a5.423,5.423,0,0,1,1.545-3.525,9.425,9.425,0,0,0,1.638-2.388l.013-.031c.528-1.054,1.639-1.377,3.307-.96l.12.059c4.91,3.818,5.143,4.336,4.979,4.652-.052.406-.433,1.254-2.322,3.712l-2.135,2.99a15.674,15.674,0,0,0,2.346,1.8c2.681,1.846,2.681,2.129,2.681,2.357s-.094.574-.795,1.546q-.735,1.015-1.465,2.084t-.958,1.41c-.727,1.212-1.446,1.872-2.19,2a3.25,3.25,0,0,1-.574.051m-2.406-21.429a9.9,9.9,0,0,1-1.747,2.567,4.81,4.81,0,0,0-1.39,3.066c.133,1.187,1.663,2.43,4.548,3.657l.4.17-2.423,2.935c-2.427,3.2-2.366,4.132-2.227,4.382a10.73,10.73,0,0,0,4.06,3.719,2.589,2.589,0,0,0,1.646.244c.533-.095,1.14-.687,1.755-1.712.16-.239.48-.712.971-1.43s.982-1.417,1.474-2.1a4.052,4.052,0,0,0,.666-1.127,12.406,12.406,0,0,0-2.4-1.862c-2.683-1.851-2.683-2.121-2.683-2.358v-.1l2.319-3.249c1.986-2.585,2.2-3.257,2.2-3.427v-.011c-.135-.223-.892-1.037-4.68-3.984-1.916-.459-2.351.333-2.5.622" transform="translate(-125.346 -270.002)" fill="#fff"/><path d="M340.14,826.353a2.507,2.507,0,0,1-1.4-.551c-3-1.191-4.463-2.541-4.463-4.129,0-1.229.712-2.594,2.177-4.177,1.074-1.162,1.8-1.985,2.167-2.458-3.3-1.37-4.91-2.714-4.91-4.1v-.077l.034-.069c.235-.469,1.574-2.367,4.093-5.8a2.26,2.26,0,0,1,1.9-1.155c.46,0,1.362.23,3.874,2.217,1.2.715,1.839,1.421,1.929,2.136,0,1.174-.978,3.084-3,5.881l-.919,1.1c3.865,2.735,4.371,3.735,4.371,4.3,0,.513-.278,1.508-2.681,4.227l-.674.787c-1.486,1.591-2.042,1.83-2.362,1.862a1.249,1.249,0,0,1-.141.007m-5.78-15.34c.055.782.974,2.016,4.88,3.579l.354.141-.2.327a27.822,27.822,0,0,1-2.471,2.878c-1.33,1.436-2,2.693-2,3.735,0,1.278,1.376,2.469,4.089,3.54l.069.038a1.876,1.876,0,0,0,1.134.45c.1-.011.552-.161,1.944-1.65l.668-.78c2.085-2.359,2.522-3.369,2.522-3.8,0-.272-.428-1.2-4.382-3.971l-.289-.2,1.357-1.628c2.364-3.276,2.862-4.77,2.862-5.443-.04-.3-.362-.87-1.651-1.643-2.319-1.831-3.19-2.1-3.506-2.1a1.636,1.636,0,0,0-1.369.872l-.008.012c-2.352,3.208-3.7,5.106-4,5.647" transform="translate(-117.153 -282.197)" fill="#fff"/><path d="M310.7,638.5a39.666,39.666,0,0,1-7.292-.685,7.975,7.975,0,0,1-5.852-3.4,10.12,10.12,0,0,1-1.468-3.846l-.06-.134a14.289,14.289,0,0,1-.23-2.258,6.658,6.658,0,0,1,.474-2.133l-1.965-.786c-1.333-.5-2.012-1.172-2.012-2l.032-.141,1.808-3.729a94.494,94.494,0,0,0,4.5-11.937.993.993,0,0,0,.062-.205,1.258,1.258,0,0,1-.631-.23,12.6,12.6,0,0,1-3.977-3.931,11.179,11.179,0,0,1-1.055-2.2,4.021,4.021,0,0,1-.744-2.362,6.425,6.425,0,0,1,2.133-4.708,19.255,19.255,0,0,1,3.682-2.93,2.558,2.558,0,0,0,.657-.632,14.889,14.889,0,0,0-3.06-.918c-2.309-.557-3.6-1.1-4.077-1.7s-.589-1.831-.349-3.745a16.037,16.037,0,0,1,1.327-4.844,7.99,7.99,0,0,0,.93-2.8,1.547,1.547,0,0,0-.357-1.126,11.153,11.153,0,0,1-3.479-6.606c-.467-2.719-.145-4.927.952-6.574.713-.722,1.24-1.286,1.6-1.722.5-.749.178-1.013.043-1.126a11.15,11.15,0,0,1-2.669-3.131,12.611,12.611,0,0,1-1.728-4.406,3.452,3.452,0,0,1-.919-2.205c0-2.044,1.533-5.391,4.687-10.234a7.789,7.789,0,0,0,1.083-2.035c0-.039-.016-.466-1.818-2.066-2.734-2.733-4.1-4.781-4.177-6.271a5.33,5.33,0,0,1,.386-2.517,11.919,11.919,0,0,1,1.232-5.165,49.088,49.088,0,0,0,2.8-5.708c.058-.143.132-.773-2.106-4.133a28.76,28.76,0,0,1-3.018-7.493,3.511,3.511,0,0,1-.992-2.293c0-2.044,1.533-5.391,4.685-10.234a7.792,7.792,0,0,0,1.084-2.035c0-.039-.016-.465-1.818-2.066-2.734-2.732-4.1-4.779-4.177-6.271q-.013-.223-.012-.433a8.5,8.5,0,0,1-.319-1.037c-11.328-53.572-17.339-123.247-17.864-207.1-.45-74.556,6.054-146.4,19.331-213.533a13.675,13.675,0,0,1,1.946-3.639,20.627,20.627,0,0,1,1.021-2.14,17.1,17.1,0,0,0-1.857-.162,11,11,0,0,1-2.219-.347,36.882,36.882,0,0,1-11.671-3.593,17.168,17.168,0,0,1-6.857-8A27.033,27.033,0,0,1,263.7,29.3c0-6.113,2.291-10.767,6.811-13.83a19.926,19.926,0,0,1,9.219-2.145,25.837,25.837,0,0,1,8.927,1.262c2.5.9,4.023,1.766,4.673,2.657a.408.408,0,0,1,.108.463c-.116.278-.465.278-.6.278l-.119-.023a23.338,23.338,0,0,0-7.689-1.786,8.045,8.045,0,0,0-5.107,1.178c-5.025,2.811-7.554,7.316-7.554,13.415a35.026,35.026,0,0,0,1.568,9.627c1.032,3.537,2.406,6.071,4.082,7.53.449.448,1.164,1.093,2.2,1.982a15.41,15.41,0,0,0,2.3.312,16.17,16.17,0,0,0,2.658,0c.783-.075,4.142-.587,9.98-1.523s11.848-1.662,17.822-2.15,11.945-1.041,17.736-1.637A150.06,150.06,0,0,1,345.789,44a23.84,23.84,0,0,1,11.169,2.522l.677.355-.726.241a3.943,3.943,0,0,1-1.724.127l-2.9,0c-5.322,0-12.211.437-20.476,1.3-8.1.842-13.373,1.408-15.251,1.638-1.835.225-4.358.6-7.5,1.129-4.83.669-8.355,1.789-10.485,3.333a7.8,7.8,0,0,0-2.217,2.82,20.418,20.418,0,0,1-1.26,2.186,12.615,12.615,0,0,1-.24,1.472c-4.044,20-7.579,42.591-10.5,67.146-2.921,24.532-5.164,51.6-6.666,80.44-1.5,28.821-2.125,58.3-1.863,87.616.263,29.333,1.765,60.046,4.462,91.284,3.225,37.784,7.138,67.731,11.634,89.01.432,2.1.659,3.377.691,3.89.085.315.173.647.266,1.012a41.932,41.932,0,0,0,1.175,4.032,7.4,7.4,0,0,0,1.627,2.378,8.559,8.559,0,0,0,3.268,2.011c2.182.8,2.359,1.124,2.359,1.434,0,.156-.064.663-.89.663l-3.613-.672c-1.764.4-2.986,3.338-3.635,8.748-.021.194-.043.38-.066.563a16.672,16.672,0,0,1,.347,1.724,18.923,18.923,0,0,0,1.333,4.721c.514,1.18.875,2.045,1.077,2.578a16.377,16.377,0,0,1,6.254-1.473,15.862,15.862,0,0,1,10.151,3.972c3.273,2.689,4.864,5.007,4.864,7.088,0,1.423-1.041,2.533-3.093,3.3a18.944,18.944,0,0,1-6.611,1.094h-1.7a14.815,14.815,0,0,1-5.694-1.509l-2.427-.766a.733.733,0,0,0-.594-.042c-.311.119-.8.535-1.384,1.842a14.609,14.609,0,0,0-1.25,4.657c.13.461.269.98.421,1.573a41.94,41.94,0,0,0,1.175,4.032,7.372,7.372,0,0,0,1.627,2.378,8.558,8.558,0,0,0,3.267,2.01c2.182.8,2.36,1.125,2.36,1.434,0,.156-.064.664-.889.664l-3.613-.672c-1.764.4-2.987,3.338-3.636,8.748-.064.6-.136,1.143-.22,1.651a24.613,24.613,0,0,0,2.167,6.757,19.523,19.523,0,0,0,3.219,5c1.533,1.587,1.73,2.162,1.73,2.485a.387.387,0,0,1-.233.378c-.262.108-.5-.1-.716-.318a1.613,1.613,0,0,0-1.128-.3,2.315,2.315,0,0,0-1.633.808,5.3,5.3,0,0,0-1.488,3.953,14.874,14.874,0,0,0,2.1,6.95,8.891,8.891,0,0,0,4.276,2.343c3.086.9,3.341,1.3,3.341,1.668v.22l-.2.082a3.17,3.17,0,0,1-2.025-.162,6.34,6.34,0,0,0-1.6-.38c-1.7,0-2.922,1.888-3.635,5.613a5.281,5.281,0,0,0-.334,1.859c0,.228.025.762.254.813.188.042,1.019.154,4.477.446,3.02.255,4.309.724,4.309,1.567,0,.618-.54,1.066-1.6,1.332-3.68,1.3-5.853,3.424-6.428,6.3-.073.32-.145.614-.219.893a9.661,9.661,0,0,1,.563,2.4,10.431,10.431,0,0,0,1.958,4.574,12.078,12.078,0,0,0,4.4,2.85,19.067,19.067,0,0,1,5.46,3.451c1.553,1.434,2.308,2.546,2.308,3.4,0,1.612-1.112,3.185-3.306,4.676a43.6,43.6,0,0,0-4.737,4.12,22.665,22.665,0,0,0-2.379,4.776c-.088.31-.2.645-.334.995a17.4,17.4,0,0,1,.355,1.771,11.134,11.134,0,0,0,1.31,4.111c.536.838,1.812,1.263,3.794,1.263a63.093,63.093,0,0,0,14.386-2.251c.276-.093,2.151-.428,14.9-2.153,9.558-1.3,14.745-2.034,15.858-2.257a14.794,14.794,0,0,1,2.719-.346,28.576,28.576,0,0,1,4.881.97c3.775.943,4.088,1.382,4.088,1.784,0,.683-.982.982-1.838,1.165a6.229,6.229,0,0,0-3,1.834c-1.631,1.225-2.674,1.8-3.316,1.846-.45.024-1.75-.3-8.166-3.1l-3.77.111c-1.561.073-7.29.87-17.024,2.369C319,637.8,313.14,638.5,310.7,638.5m-14.048-8.272,0,.005.062.156a9.391,9.391,0,0,0,1.376,3.662,7.357,7.357,0,0,0,5.4,3.123,39.207,39.207,0,0,0,7.2.677c2.374,0,8.365-.722,17.807-2.144,9.755-1.5,15.507-2.3,17.1-2.376l3.922-.116.067.029c6.24,2.728,7.661,3.116,7.929,3.08.342-.023,1.129-.335,2.935-1.687a6.782,6.782,0,0,1,3.29-1.979c.97-.208,1.233-.413,1.3-.494-.159-.13-.823-.5-3.572-1.19a29.017,29.017,0,0,0-4.724-.951,14.144,14.144,0,0,0-2.592.334c-1.127.225-6.328.965-15.9,2.263-11.7,1.584-14.507,2.034-14.8,2.133a63.74,63.74,0,0,1-14.568,2.278c-2.217,0-3.678-.526-4.341-1.563a11.728,11.728,0,0,1-1.4-4.362,16.719,16.719,0,0,0-.368-1.807l-.027-.1.038-.1c.143-.367.262-.717.365-1.071a22.752,22.752,0,0,1,2.493-4.977,43.943,43.943,0,0,1,4.849-4.227c2.026-1.377,3.042-2.769,3.042-4.153,0-.451-.364-1.323-2.1-2.926a18.415,18.415,0,0,0-5.277-3.33,12.685,12.685,0,0,1-4.638-3.025,11.081,11.081,0,0,1-2.106-4.89,8.949,8.949,0,0,0-.564-2.357l-.042-.1.029-.106c.082-.3.162-.622.24-.966.621-3.11,2.934-5.4,6.876-6.788.443-.112,1.14-.341,1.14-.711,0-.025-.043-.609-3.715-.92-2.665-.225-4.2-.379-4.562-.458-.508-.114-.764-.6-.764-1.447a5.739,5.739,0,0,1,.36-2.034c.766-4.021,2.2-6.087,4.258-6.087a7.049,7.049,0,0,1,1.795.411,5.652,5.652,0,0,0,.762.193,20.846,20.846,0,0,0-2.252-.759,9.447,9.447,0,0,1-4.619-2.587,15.528,15.528,0,0,1-2.225-7.311,6,6,0,0,1,1.677-4.43,2.961,2.961,0,0,1,2.093-1,3.1,3.1,0,0,1,1.016.145,14.608,14.608,0,0,0-1.135-1.289,20.167,20.167,0,0,1-3.337-5.171,25.318,25.318,0,0,1-2.231-6.983v-.111c.085-.511.158-1.057.225-1.67.7-5.866,2.082-8.914,4.217-9.324l.06-.012,3.676.69a.7.7,0,0,0,.109-.013,8.845,8.845,0,0,0-1.863-.833,9.193,9.193,0,0,1-3.512-2.171,8.015,8.015,0,0,1-1.764-2.6,42.282,42.282,0,0,1-1.2-4.1c-.157-.611-.3-1.143-.433-1.613l-.016-.056.005-.059a15.2,15.2,0,0,1,1.309-4.925,3.8,3.8,0,0,1,1.747-2.184,1.328,1.328,0,0,1,1.056.044l2.45.777a14.282,14.282,0,0,0,5.471,1.456h1.665a18.284,18.284,0,0,0,6.384-1.053c1.8-.671,2.671-1.552,2.671-2.691,0-1.848-1.557-4.064-4.628-6.585a15.23,15.23,0,0,0-9.739-3.826,16.1,16.1,0,0,0-6.311,1.556l-.325.142-.112-.336c-.15-.444-.546-1.4-1.177-2.856a19.537,19.537,0,0,1-1.38-4.883,15.889,15.889,0,0,0-.348-1.715l-.016-.062.008-.063c.025-.2.049-.4.073-.618.7-5.866,2.082-8.914,4.216-9.324l.06-.012,3.676.69a.608.608,0,0,0,.11-.014,8.851,8.851,0,0,0-1.862-.832,9.19,9.19,0,0,1-3.513-2.171,8.033,8.033,0,0,1-1.764-2.6,42.4,42.4,0,0,1-1.2-4.1c-.1-.374-.186-.714-.273-1.036l-.011-.069c-.022-.448-.251-1.735-.681-3.826-4.5-21.3-8.419-51.276-11.645-89.086-2.7-31.255-4.2-61.984-4.465-91.333-.262-29.33.366-58.822,1.864-87.656,1.5-28.858,3.746-55.935,6.67-80.482,2.926-24.573,6.464-47.185,10.513-67.207a12.264,12.264,0,0,0,.237-1.482l.008-.08.045-.067a19.553,19.553,0,0,0,1.263-2.18,8.447,8.447,0,0,1,2.413-3.053c2.221-1.609,5.844-2.77,10.772-3.452,3.143-.524,5.676-.905,7.52-1.13,1.881-.23,7.159-.8,15.262-1.639,8.288-.863,15.2-1.3,20.543-1.3h2.939q.255.03.485.035a23.748,23.748,0,0,0-9.921-1.985,149.52,149.52,0,0,0-15,.9c-5.8.6-11.767,1.149-17.749,1.639-5.959.487-11.938,1.208-17.773,2.145-5.852.936-9.223,1.451-10.021,1.528a17.061,17.061,0,0,1-2.767,0A15.432,15.432,0,0,1,280,50.52l-.075-.018-.058-.05c-1.08-.927-1.825-1.6-2.278-2.052-1.755-1.526-3.2-4.164-4.263-7.822a35.66,35.66,0,0,1-1.594-9.809c0-6.352,2.641-11.048,7.85-13.958a8.627,8.627,0,0,1,5.481-1.284A23.234,23.234,0,0,1,292.3,17.1a13.749,13.749,0,0,0-3.86-1.909,24.824,24.824,0,0,0-8.7-1.223,19.285,19.285,0,0,0-8.893,2.053c-4.3,2.917-6.495,7.389-6.495,13.274a26.39,26.39,0,0,0,2.569,11.277,16.54,16.54,0,0,0,6.589,7.709,36.309,36.309,0,0,0,11.478,3.522,10.771,10.771,0,0,0,2.093.335,20.966,20.966,0,0,1,2.416.229l.476.063-.237.419a20.685,20.685,0,0,0-1.238,2.534l-.063.1a12.921,12.921,0,0,0-1.846,3.432c-13.249,67.03-19.749,138.829-19.3,213.342.525,83.808,6.53,153.44,17.848,206.961a8.069,8.069,0,0,0,.314,1.005l.021.056v.061c0,.147,0,.3.01.453.071,1.307,1.409,3.269,3.974,5.834,1.9,1.687,2.082,2.294,2.01,2.665a8.393,8.393,0,0,1-1.176,2.26c-3.04,4.67-4.581,7.995-4.581,9.882a2.942,2.942,0,0,0,.884,1.925l.058.065.018.086a27.885,27.885,0,0,0,2.956,7.374c2.267,3.4,2.361,4.29,2.152,4.708a47.961,47.961,0,0,1-2.829,5.771,11.311,11.311,0,0,0-1.159,4.949l-.033.134a4.626,4.626,0,0,0-.352,2.262c.071,1.3,1.408,3.267,3.974,5.833,1.9,1.686,2.082,2.293,2.01,2.665a8.385,8.385,0,0,1-1.175,2.26c-3.042,4.67-4.583,7.994-4.583,9.881a2.873,2.873,0,0,0,.816,1.844l.054.064.018.081a12.09,12.09,0,0,0,1.654,4.27,10.592,10.592,0,0,0,2.526,2.973c.35.291.806.925.075,2.022-.4.486-.926,1.049-1.623,1.745-.961,1.454-1.249,3.5-.814,6.044a10.552,10.552,0,0,0,3.276,6.245,2.15,2.15,0,0,1,.572,1.607,8.349,8.349,0,0,1-.992,3.076,15.4,15.4,0,0,0-1.271,4.648c-.266,2.129-.03,2.95.215,3.263s1.1.835,3.719,1.467c3.483.839,3.531,1.12,3.578,1.392.062.374-.229.772-.971,1.331a18.772,18.772,0,0,0-3.585,2.854,5.8,5.8,0,0,0-1.936,4.231,3.342,3.342,0,0,0,.637,2.014l.056.1a10.43,10.43,0,0,0,1.012,2.123,11.98,11.98,0,0,0,3.8,3.737l.054.045s.03.034.324.076a.588.588,0,0,1,.449.282.877.877,0,0,1-.025.781,94.823,94.823,0,0,1-4.531,12l-1.772,3.655c.044.5.58.942,1.594,1.323l2.564,1.025-.115.3a6.666,6.666,0,0,0-.543,2.2,13.3,13.3,0,0,0,.206,2.054m5.572-9.7a.475.475,0,0,1-.364-.161.83.83,0,0,1-.127-.657,60.985,60.985,0,0,1,2.109-5.949c.952-2.435,1.513-2.892,1.9-3.018l.1-.016c.586,0,1.248.623,2.083,1.96a6.673,6.673,0,0,1,1.18,3.448,3.842,3.842,0,0,1-1.645,2.964,6.672,6.672,0,0,1-3.975,1.428Zm.144-.649h1.1a6.021,6.021,0,0,0,3.581-1.284,3.189,3.189,0,0,0,1.406-2.46,6.057,6.057,0,0,0-1.081-3.105c-.851-1.362-1.306-1.61-1.48-1.649-.176.1-.644.563-1.445,2.613-1.756,4.681-2.052,5.642-2.071,5.8,0,.035-.007.064-.008.088m2.116-98a5.339,5.339,0,0,1-3.912-2.027,5.679,5.679,0,0,1-1.836-3.609c0-1.083.754-2.325,2.305-3.8,1.522-1.445,2.928-2.178,4.178-2.178a4.885,4.885,0,0,1,3.637,2.035,6.592,6.592,0,0,1,1.716,4.335,4.5,4.5,0,0,1-2.057,3.825,6.991,6.991,0,0,1-4.031,1.416m.735-10.962c-1.079,0-2.334.673-3.732,2s-2.1,2.442-2.1,3.325a5.179,5.179,0,0,0,1.667,3.172,4.731,4.731,0,0,0,3.433,1.816,6.359,6.359,0,0,0,3.656-1.3,3.831,3.831,0,0,0,1.783-3.295,5.967,5.967,0,0,0-1.561-3.914,4.281,4.281,0,0,0-3.143-1.807" transform="translate(-92.577 -4.678)" fill="#fff"/><path d="M314.3,990.594c-6.2,0-9.663-.554-10.639-1.692l-.079-.091v-.121c0-.435,0-.526,15.386-1.735,9.975-.785,20.219-1.793,30.443-2.995,15.369-1.81,15.61-1.81,15.689-1.81.141,0,.846.077,5.075.681l4.746.678,0,.642-4.521.679c-1.071.152-3.2.419-6.338.792l-21.7,2.713c-12.979,1.274-21.537,1.921-25.446,1.923l-2.579.336Zm-9.625-1.73c1.07.556,3.661,1.084,9.629,1.084l2.6-.339c3.878,0,12.422-.646,25.395-1.92l21.687-2.711c3.134-.373,5.26-.639,6.324-.79l2.327-.349-2.553-.365c-4.084-.583-4.876-.673-4.984-.675-.159.007-2.409.251-15.612,1.806-10.233,1.2-20.484,2.211-30.468,3-9.26.728-13.008,1.086-14.344,1.262" transform="translate(-106.576 -344.798)" fill="#fff"/><path d="M89.374,11.217A7.1,7.1,0,0,1,85.95,9.808c-1.872-1.207-2.634-2.148-2.4-2.962a19.954,19.954,0,0,1,2.13-3.87C87.357.363,87.944,0,88.329,0c.688,0,1.789.557,3.466,1.755,2.126,1.807,2.4,2.478,2.4,2.863,0,1.457-1.361,3.564-4.161,6.442l-.059.06-.08.024a1.793,1.793,0,0,1-.517.071M88.329.651c-.066.016-.53.223-2.1,2.675a20.009,20.009,0,0,0-2.053,3.7c-.064.218.016.874,2.125,2.234,1.892,1.219,2.851,1.379,3.327,1.281,2.6-2.679,3.914-4.672,3.914-5.924,0-.123-.154-.658-2.146-2.352C89.527.935,88.694.651,88.329.651" transform="translate(-29.318 -0.002)" fill="#fff"/><path d="M89.374,35.946a7.11,7.11,0,0,1-3.424-1.408c-1.872-1.208-2.633-2.149-2.4-2.962h0a20.037,20.037,0,0,1,2.129-3.87c1.674-2.613,2.262-2.974,2.646-2.974.688,0,1.789.557,3.466,1.755,2.127,1.807,2.4,2.478,2.4,2.863,0,1.456-1.361,3.563-4.162,6.441l-.058.06-.08.024a1.789,1.789,0,0,1-.517.071m-5.2-4.189c-.064.219.018.875,2.125,2.235,1.892,1.217,2.846,1.384,3.327,1.28,2.6-2.679,3.914-4.672,3.914-5.923,0-.123-.155-.659-2.147-2.352-1.87-1.334-2.7-1.618-3.067-1.618-.065.016-.53.223-2.1,2.675a20.094,20.094,0,0,0-2.053,3.7" transform="translate(-29.318 -8.683)" fill="#fff"/><path d="M154.935,780.793a7.224,7.224,0,0,1-3.153-1c-1.79-.936-2.66-1.88-2.66-2.886,0-.951.761-2.4,2.326-4.436,2.291-2.917,3.153-3.291,3.648-3.291.693,0,1.763.6,3.367,1.879,2.112,1.795,2.382,2.527,2.382,2.966,0,1.388-1.624,3.537-4.965,6.569l-.108.064a2.426,2.426,0,0,1-.837.137m.161-10.966c-.225,0-.981.3-3.135,3.04-1.81,2.352-2.19,3.494-2.19,4.038,0,.722.8,1.521,2.311,2.312s2.672,1.084,3.412.849c3.885-3.533,4.7-5.236,4.7-6.042,0-.193-.209-.819-2.146-2.465-1.788-1.429-2.594-1.731-2.954-1.731" transform="translate(-52.351 -270.031)" fill="#fff"/><path d="M133.439,837.5a2.515,2.515,0,0,1-1.406-.552c-3-1.191-4.463-2.541-4.463-4.129,0-1.228.713-2.594,2.178-4.177,1.241-1.343,1.862-2.068,2.166-2.458-3.3-1.369-4.909-2.713-4.909-4.1v-.077l.034-.069c.149-.3.737-1.226,4.1-5.81a2.259,2.259,0,0,1,1.9-1.149c.459,0,1.361.23,3.874,2.217,1.2.715,1.839,1.422,1.929,2.136,0,1.175-.978,3.085-3,5.881l-.92,1.1c3.866,2.735,4.371,3.735,4.371,4.3,0,.513-.278,1.509-2.68,4.227l-.675.787c-1.485,1.59-2.042,1.83-2.361,1.863-.045,0-.092.007-.139.007m-5.782-15.34c.055.782.973,2.016,4.879,3.579l.354.141-.2.327a27.839,27.839,0,0,1-2.47,2.878c-1.331,1.437-2.005,2.693-2.005,3.735,0,1.278,1.376,2.469,4.09,3.54l.069.038a1.786,1.786,0,0,0,1.135.45c.1-.01.552-.161,1.943-1.65l.668-.78c2.084-2.358,2.521-3.369,2.521-3.8,0-.273-.428-1.2-4.382-3.971l-.29-.2,1.358-1.628c2.364-3.275,2.862-4.769,2.862-5.443-.04-.3-.362-.87-1.651-1.643-2.319-1.831-3.19-2.1-3.506-2.1a1.641,1.641,0,0,0-1.369.872c-2.361,3.221-3.706,5.119-4.011,5.659" transform="translate(-44.587 -286.11)" fill="#fff"/><path d="M159.04,856.531c-.418,0-1.228-.252-3.813-2.213-1.226-.9-1.842-1.6-1.933-2.188a3.8,3.8,0,0,1,.54-2.172,20.067,20.067,0,0,1,2.24-3.278c1.147-1.432,1.982-2.1,2.628-2.1.379,0,1.149.169,3.451,1.632,1.765,1.125,2.664,2.223,2.749,3.358s-.836,2.665-2.8,4.713c-1.909,2.013-2.661,2.247-3.06,2.247m-2.459-9.445a19.468,19.468,0,0,0-2.166,3.163,3.281,3.281,0,0,0-.479,1.784c.034.223.3.75,1.68,1.765,2.388,1.814,3.17,2.084,3.424,2.084.2,0,.84-.2,2.59-2.046,2.252-2.345,2.67-3.587,2.624-4.217-.067-.9-.892-1.864-2.45-2.857-2.1-1.332-2.844-1.531-3.1-1.531-.191,0-.779.18-2.121,1.855" transform="translate(-53.809 -296.502)" fill="#fff"/><path d="M94.358,587.273c-.14,0-.281,0-.422,0h-2.7c-4.225-.467-6.9-2.482-8-5.991a8.649,8.649,0,0,1-.222-1.617,2.369,2.369,0,0,1-.132-.74c0-3.567,2.293-6.889,6.814-9.876.894-.6,1.421-.956,1.567-1.064a3.474,3.474,0,0,0,.36-.308,1.16,1.16,0,0,1,.25-.193.918.918,0,0,0-.642-.214,14.136,14.136,0,0,1-7.286-2.136,10.273,10.273,0,0,1-2.02-1.549,5,5,0,0,1-.92-.7,3.846,3.846,0,0,1-1.4-2.72c0-2.044,1.533-5.391,4.686-10.234a7.815,7.815,0,0,0,1.083-2.035c0-.04-.016-.465-1.817-2.066-2.735-2.734-4.1-4.78-4.178-6.271a6.609,6.609,0,0,1,.084-1.542c-.323-2.305-.579-5.836-.762-10.5,0-.627.185-2.671.567-6.262l.225-2.593a18.3,18.3,0,0,1,.116-2.391l0-2.779a42.912,42.912,0,0,0-.449-6.056,135.1,135.1,0,0,1-1.922-16.411,8.9,8.9,0,0,1-.672-1.869C65.235,435.588,59.226,365.912,58.7,282.055c-.45-74.556,6.054-146.4,19.331-213.533a20.15,20.15,0,0,1,1.38-2.855l.056-.481-2.812-1.042c-7.179-2.343-13.279-7.022-18.12-13.9-2.36-2.817-3.526-5.552-3.449-8.106,0-.122,0-.368,1.933-7.365,1.277-4.62,2.381-8.407,3.28-11.256l.628.034.122.611-.8,8.635c0,8.279,3.811,16.416,11.325,24.153,3.323,3.323,5.965,5.194,7.851,5.558a2.511,2.511,0,0,0,.86.134c.032-.995.768-1.938,2.188-2.8A7.922,7.922,0,0,1,86.6,58.543a6.864,6.864,0,0,1,2.97.486l1.372,1.058-.276.26c-2.3,2.164-3.548,4.157-3.709,5.927l.306,1.069a16.176,16.176,0,0,1-.347,3.576c-4.044,20-7.579,42.592-10.5,67.147-2.921,24.532-5.164,51.6-6.666,80.438-1.5,28.814-2.125,58.292-1.864,87.616s1.766,60.042,4.463,91.284c3.225,37.782,7.138,67.728,11.633,89.009.1.489.186.92.265,1.319.534,1.237.534,1.367.534,1.461l.672,3.442c.434,2.461,1.336,4.137,2.679,4.986a28.778,28.778,0,0,0,3.29,1.785,11.281,11.281,0,0,0,4.108.538,35.56,35.56,0,0,0,5.431-.393c1.694-.264,6.474-.721,14.206-1.358,7.87-.651,12.672-1.075,14.682-1.3s3.779-.467,5.291-.731a16.209,16.209,0,0,0,2.98-.713,10.489,10.489,0,0,1,3.2-.533,14.393,14.393,0,0,1,2.777.518c3.873,1.217,4.2,1.791,4.2,2.235,0,.228-.119.477-1.656,1.617-1,.742-1.775,1.345-2.3,1.794a4.047,4.047,0,0,1-1.6.916,3.152,3.152,0,0,1-1.955-.3,4.469,4.469,0,0,0-1.288-.426,7.834,7.834,0,0,1-2.031-.584,18.4,18.4,0,0,0-5.428-.546c-2.616,0-8.044.38-16.13,1.129-8.238.761-13.312,1.132-15.511,1.132l-6.369-.794c-.646-.116-.815-.007-.844.016a.1.1,0,0,0-.032.07,3.488,3.488,0,0,0,.165.417l.077.077c.612.612,1.952,2.257,3.983,4.89,6.312,7.512,10.207,13.016,11.569,16.348.626.928.753,2.539.359,4.868a14.811,14.811,0,0,1-3.461,6.877c-1.113,1.349-2.032,2.016-2.809,2.037a1.813,1.813,0,0,1-1.571-.16,26.248,26.248,0,0,0-2.851-.983c-5.681-1.362-9.7-4.175-11.921-8.354l-.208-.179c.009,3.082.085,5.38.223,6.835.149,1.559.226,2.916.228,4.034q.226.783.5,1.848c.484,1.9.879,3.258,1.175,4.034a7.387,7.387,0,0,0,1.628,2.377,8.563,8.563,0,0,0,3.267,2.011c2.181.8,2.359,1.124,2.359,1.434,0,.156-.064.663-.889.663l-3.613-.672c-1.763.4-2.986,3.338-3.636,8.748-.036.342-.076.659-.117.96l.1.236a8.1,8.1,0,0,0,3.483,4.816,6.254,6.254,0,0,0,2.025.522,8.771,8.771,0,0,0,4.129-.773,52.334,52.334,0,0,1,7.036-2.27,7.446,7.446,0,0,1,5.432.135l.084.061.125.125-.021.226c-.047.219-.1.446-2.7,1.426-.772.232-1.484.457-2.159.682-1.394.587-3.022,1.345-4.816,2.242a19.62,19.62,0,0,0-7.459,5.9,17.6,17.6,0,0,0-2.307,4.574v.766a30.2,30.2,0,0,0-.565,4.633c.036.963.257,1.594.658,1.864a1.634,1.634,0,0,0,1.454,0l.633-.527c.414-.416.927-.966,1.548-1.662l1.631-2.217.566-.141c1.663-.553,4.185.08,7.691,1.949l.171.092v.308c0,.205,0,.383-2.16,2.064a12.025,12.025,0,0,1-7.807,2.446m-1.885-.654h1.469a11.622,11.622,0,0,0,7.819-2.3,20.442,20.442,0,0,0,1.823-1.523c-3.16-1.65-5.494-2.244-6.94-1.759l-.363.091-1.512,2.053c-.648.729-1.171,1.289-1.615,1.732l-.8.64a2.264,2.264,0,0,1-2.091-.049,2.818,2.818,0,0,1-.944-2.39,29.906,29.906,0,0,1,.57-4.7l-.005-.822.019-.053a18.3,18.3,0,0,1,2.419-4.8,20.253,20.253,0,0,1,7.7-6.09c1.8-.9,3.439-1.663,4.868-2.265.7-.235,1.424-.462,2.181-.689a20.5,20.5,0,0,0,1.994-.832,7.308,7.308,0,0,0-4.524.1,53.222,53.222,0,0,0-6.937,2.232,9.453,9.453,0,0,1-4.495.83,6.657,6.657,0,0,1-2.273-.61,8.7,8.7,0,0,1-3.759-5.157l-.147-.356.008-.1c.045-.321.088-.659.128-1.031.7-5.867,2.083-8.915,4.217-9.325l.06-.012,3.676.69a.7.7,0,0,0,.109-.013,8.808,8.808,0,0,0-1.863-.833,9.2,9.2,0,0,1-3.512-2.171,7.993,7.993,0,0,1-1.764-2.6,42.545,42.545,0,0,1-1.2-4.1q-.277-1.084-.506-1.872l-.013-.09c0-1.106-.077-2.459-.226-4.019-.151-1.585-.227-4.142-.227-7.6v-.7l1.4,1.23c2.129,4.039,6.012,6.759,11.54,8.085a26.7,26.7,0,0,1,2.989,1.034l.1.069c.063.064.292.193,1.058.025l.069-.007c.393,0,1.119-.313,2.347-1.8a14.166,14.166,0,0,0,3.321-6.572c.361-2.127.264-3.627-.289-4.456-1.367-3.327-5.227-8.773-11.5-16.244-1.965-2.546-3.268-4.151-3.884-4.785-.186-.1-.308-.374-.471-.859l-.017-.1a.762.762,0,0,1,.269-.613,1.63,1.63,0,0,1,1.358-.158l6.31.789c2.108,0,7.306-.383,15.411-1.132s13.553-1.132,16.19-1.132a18.6,18.6,0,0,1,5.647.585,8.594,8.594,0,0,0,1.812.546,4.451,4.451,0,0,1,1.538.477,2.6,2.6,0,0,0,1.547.267,3.468,3.468,0,0,0,1.337-.779c.535-.459,1.321-1.072,2.335-1.823a9.5,9.5,0,0,0,1.371-1.13c-.108-.14-.684-.628-3.705-1.576a13.693,13.693,0,0,0-2.633-.494,10.366,10.366,0,0,0-2.946.5,16.331,16.331,0,0,1-3.082.742c-1.526.266-3.319.515-5.332.738s-6.824.65-14.7,1.3c-7.717.637-12.48,1.092-14.159,1.353a36.12,36.12,0,0,1-5.531.4A11.662,11.662,0,0,1,91.158,500a29.572,29.572,0,0,1-3.374-1.829c-1.509-.953-2.509-2.775-2.975-5.419l-.677-3.5a7.207,7.207,0,0,0-.5-1.3l-.02-.067c-.08-.407-.168-.846-.271-1.345-4.5-21.3-8.418-51.278-11.645-89.085-2.7-31.258-4.2-61.988-4.466-91.333S67.6,247.3,69.1,218.471c1.5-28.858,3.746-55.936,6.67-80.482C78.692,113.416,82.23,90.8,86.28,70.781a15.454,15.454,0,0,0,.332-3.391L86.3,66.344l.005-.06c.145-1.877,1.369-3.944,3.641-6.147l-.72-.561a6.625,6.625,0,0,0-2.626-.384,7.287,7.287,0,0,0-3.786,1.2c-1.247.761-1.878,1.542-1.878,2.321a.538.538,0,0,1-.212.439c-.258.2-.689.193-1.442-.012-2.021-.388-4.7-2.266-8.167-5.734C63.475,49.536,59.6,41.247,59.6,32.763l.629-6.841c-.754,2.5-1.622,5.517-2.591,9.018-1.55,5.611-1.894,7.02-1.909,7.212-.072,2.391,1.043,4.978,3.315,7.691,4.775,6.787,10.765,11.385,17.819,13.687l3.3,1.223L80,65.949a19.341,19.341,0,0,0-1.351,2.761C65.4,135.74,58.9,207.539,59.349,282.051c.526,83.812,6.53,153.444,17.848,206.962a8.217,8.217,0,0,0,.653,1.789l.034.068v.077c.008,2.844.652,8.36,1.916,16.392a43.756,43.756,0,0,1,.456,6.153v2.824a18.733,18.733,0,0,0-.114,2.374l-.227,2.626c-.374,3.525-.563,5.6-.563,6.188.183,4.663.441,8.191.764,10.473l.008.055-.011.053a5.936,5.936,0,0,0-.084,1.438c.071,1.3,1.409,3.267,3.975,5.833,1.9,1.688,2.083,2.3,2.009,2.666a8.384,8.384,0,0,1-1.175,2.259c-3.041,4.67-4.582,7.995-4.582,9.883a3.24,3.24,0,0,0,1.2,2.251,4.342,4.342,0,0,0,.834.628l.069.054a9.558,9.558,0,0,0,1.921,1.478,13.49,13.49,0,0,0,6.953,2.044,1.539,1.539,0,0,1,1.133.435.7.7,0,0,1,.283.641.422.422,0,0,1-.317.3.508.508,0,0,0-.248.141,3.943,3.943,0,0,1-.431.369c-.156.117-.679.473-1.6,1.085-4.33,2.86-6.524,6-6.524,9.336a1.806,1.806,0,0,0,.112.579l.018.095a7.981,7.981,0,0,0,.2,1.515c1.018,3.261,3.441,5.072,7.4,5.512ZM97,532.687c-.976,0-1.923-1.023-2.894-3.127-2.106-3.907-4.245-10.512-6.35-19.613v0c-.733-3.3-1.417-6.453-2.035-9.382a1.348,1.348,0,0,1,.1-1.162.674.674,0,0,1,.552-.247c.655,0,2.093.933,7.439,8.212,3.949,5.377,6.526,9.33,7.66,11.751a8.1,8.1,0,0,1,.369,3.075,18.294,18.294,0,0,1-1.6,6.336c-1.137,2.838-2.166,4.159-3.24,4.159M88.384,509.8c2.092,9.043,4.21,15.593,6.3,19.466,1.058,2.291,1.84,2.768,2.313,2.768.424,0,1.33-.487,2.637-3.752a17.967,17.967,0,0,0,1.557-6.095,7.374,7.374,0,0,0-.3-2.794c-1.119-2.389-3.674-6.305-7.6-11.648-5.267-7.173-6.591-7.948-6.916-7.948-.047.005-.134.119-.022.622.618,2.931,1.3,6.086,2.035,9.379" transform="translate(-19.337 -8.256)" fill="#fff"/><path d="M68.212,893.1a3.229,3.229,0,0,1-1.724-.519c-2.975-1.169-4.446-2.45-4.446-3.892,0-.916.579-2.056,1.77-3.485a19.917,19.917,0,0,1,2.042-2.278l.568-.892c-4.221-2.2-4.719-3.316-4.719-3.967,0-.631.406-1.97,3.914-6.307a1.722,1.722,0,0,1,1.576-.968,5.527,5.527,0,0,1,1.443.3,9.928,9.928,0,0,1,2.655,2.1c2.054,1.62,2.215,2.029,2.13,2.337-.067.491-.515,1.6-3.338,5.326l-.812,1.084c3.952,2.719,4.495,3.593,4.495,4.088a6.222,6.222,0,0,1-1.415,2.956c-1.129,1.6-1.459,2.018-1.586,2.158-.734,1.212-1.454,1.845-2.2,1.933a3.025,3.025,0,0,1-.35.02m-1.126-21.662c-.338,0-.647.23-.942.7-3.139,3.883-3.793,5.366-3.793,5.931,0,.432.609,1.467,4.682,3.552l.317.162-1.077,1.641a18.155,18.155,0,0,0-1.964,2.2,5.64,5.64,0,0,0-1.62,3.069c0,1.129,1.375,2.244,4.088,3.314a2.569,2.569,0,0,0,1.709.432c.531-.062,1.116-.619,1.737-1.653l.048-.062c.077-.077.38-.453,1.546-2.105a5.582,5.582,0,0,0,1.3-2.582c0-.116-.236-.841-4.491-3.743l-.28-.191,1.22-1.628c2.554-3.372,3.16-4.6,3.214-5.029a8.277,8.277,0,0,0-1.911-1.754,10.8,10.8,0,0,0-2.454-1.984,4.856,4.856,0,0,0-1.27-.264l-.057,0" transform="translate(-21.662 -305.702)" fill="#fff"/><path d="M150.028,955.5c-.293,0-.984-.151-3.743-1.325a22.021,22.021,0,0,0-8.349-1.273h-12.43c-8.134,0-15.09-.995-20.676-2.957a15.461,15.461,0,0,0-3.621-.659,24.059,24.059,0,0,0-4.886,1.005,23.928,23.928,0,0,1-5.624,1.029c-4.418,0-7.142-1.17-8.1-3.478-.687-1.138-1.2-3.177-1.548-6.19-.338-2.93-.661-5.32-.958-7.1a37.063,37.063,0,0,1-.456-6.043v-1.094l.034-.069a1.872,1.872,0,0,1,1.742-.913,27.276,27.276,0,0,1,4.01.285l2.968.493.029.243c.151,1.293.284,2.991.4,5.049a31.758,31.758,0,0,0,.445,4.356,5.956,5.956,0,0,0,1.668,2.669,32.334,32.334,0,0,0,4.585,3.688c2.679,1.866,3.511,2.145,3.77,2.145.728,0,4.17-1.706,16.432-9.834,12.893-8.548,15.127-10.454,15.31-10.83.225-.472.332-.727.384-.861l-.212-.143-.081-.076-.449-.6,1.653-4.012c.145-.364.485-1.31,1.01-2.809.958-2.958,2.057-4.4,3.358-4.4a40.73,40.73,0,0,1,7.294.911c4.193.817,5.04,1.231,5.31,1.5a2.233,2.233,0,0,1,.6,1.642c0,.792-.762,2.488-7.347,8.046a161.932,161.932,0,0,1-24.237,16.423c-12.56,6.9-13.1,7.083-13.274,7.142a4.436,4.436,0,0,1-.446.127c1.769,1.52,8.591,2.291,20.288,2.291,12.006,0,20.29-.491,24.621-1.461l.071-.008a26.277,26.277,0,0,1,4.42.743c2.515.553,3.589,1.105,3.589,1.842,0,.608-.849.731-1.165.77a9.359,9.359,0,0,0-3.967,2.123c-1.535,1.429-2.1,1.612-2.424,1.612m-48.819-6.863a15.878,15.878,0,0,1,3.814.689c5.538,1.945,12.422,2.927,20.482,2.927h12.43a22.648,22.648,0,0,1,8.6,1.325,15.525,15.525,0,0,0,3.489,1.273c.1,0,.548-.1,1.982-1.438a10.008,10.008,0,0,1,4.261-2.279l.045-.009c.515-.065.624-.166.634-.177-.018,0-.124-.507-3.093-1.162a27.406,27.406,0,0,0-4.245-.727c-4.387.975-12.706,1.469-24.727,1.469-12.3,0-19.116-.844-20.853-2.581l-.072-.108c-.167-.417-.278-.693-.023-.862l.221-.145.156.145a2.439,2.439,0,0,0,.524-.132c.3-.1,2.827-1.414,13.167-7.1A161.146,161.146,0,0,0,142.138,923.4c6.189-5.222,7.113-6.97,7.113-7.546a1.593,1.593,0,0,0-.413-1.184c-.132-.132-.881-.524-4.975-1.323a40.174,40.174,0,0,0-7.17-.9c-.956,0-1.9,1.369-2.743,3.957-.538,1.535-.872,2.464-1.023,2.845l-1.514,3.676.195.259a2.711,2.711,0,0,1,.4.291c.194.193.147.376-.387,1.5-.254.536-2.249,2.282-15.538,11.093-13.445,8.911-16.022,9.942-16.791,9.942-.385,0-1.232-.234-4.142-2.262a32.941,32.941,0,0,1-4.681-3.77A6.562,6.562,0,0,1,88.63,937a32.131,32.131,0,0,1-.459-4.459c-.105-1.918-.228-3.52-.366-4.766l-2.471-.412a27.289,27.289,0,0,0-3.885-.279,1.337,1.337,0,0,0-1.16.495v.933a36.488,36.488,0,0,0,.447,5.937c.3,1.793.623,4.193.963,7.134a16.449,16.449,0,0,0,1.482,5.973c.866,2.085,3.389,3.12,7.519,3.12a23.383,23.383,0,0,0,5.452-1.006,24.031,24.031,0,0,1,5.057-1.028m3.156-1.611.012.01-.012-.01m-12.6,2.94a1.163,1.163,0,0,1-.816-.331c-.688-.64-1.021-2.265-1.021-4.968,0-.788.118-1.167.408-1.309.35-.176.781.073,1.119.309A19.587,19.587,0,0,0,94,944.937c1.478.657,2.228,1.479,2.228,2.444,0,.322-.291.7-1.739,1.577a5.639,5.639,0,0,1-2.644,1.008c-.027,0-.053,0-.08,0m-1.121-6.009a2.461,2.461,0,0,0-.067.709c0,3.086.443,4.147.814,4.494a.534.534,0,0,0,.42.155h.023a5.135,5.135,0,0,0,2.318-.914c1.256-.763,1.415-1.023,1.433-1.068-.006-.639-.627-1.262-1.849-1.805a19.523,19.523,0,0,1-2.653-1.33,1.548,1.548,0,0,0-.439-.24" transform="translate(-27.959 -320.1)" fill="#fff"/><path d="M5.2,107.515c2.747,0,4.579,4.423,4.579,7.291a10.444,10.444,0,0,1-.57,3.818,6,6,0,0,1-4.683,2.73c-1.97,0-4.493-1.3-4.527-5.477-.034-4.614,2.471-8.363,5.2-8.363m3.594,8.57c0-.985-1.3-6-3.957-6-1.9,0-3.766,3.093-3.766,5.184a3.926,3.926,0,0,0,3.75,3.577,4.394,4.394,0,0,0,3.974-2.765" transform="translate(0 -37.746)" fill="#fff"/><path d="M22.946,111.142a21.681,21.681,0,0,1,1.486,7.413c0,.881-.069,1.469-1.469,3.594l-.294-.173a9.459,9.459,0,0,0,.225-2.125c0-3.663-1.746-8.1-3.559-12.493a19.369,19.369,0,0,1,1.123-1.8h.294a9.359,9.359,0,0,0,1.175,2.316,4.406,4.406,0,0,0,3.3,1.227c1.175,0,2.782-.622,3.075-3.559a4.37,4.37,0,0,1,.726.242c.017.26.034.519.034.76,0,2.938-1.348,4.855-4.044,4.855a7.715,7.715,0,0,1-2.038-.311Z" transform="translate(-6.788 -37.054)" fill="#fff"/><path d="M42.3,109.407c-.795,2.989-2.73,9-4.129,12.476h-.156c-.466-.9-.742-1.382-1.054-2.126a62.918,62.918,0,0,0,4.528-12.769c.449-.5,1.037-1.036,1.451-1.417H43.1a54,54,0,0,0,5.546,14.48c-.467.588-.9,1.158-1.365,1.832h-.207c-1.918-3.007-4.079-9.469-4.7-12.476Z" transform="translate(-12.977 -37.063)" fill="#fff"/><path d="M539.918,248.9q0-1.411-2.6-2.882t-3.842-.9A13.678,13.678,0,0,0,530.764,248q-1.809,2.318-1.808,3.5t2.6,2.881q2.6,1.7,3.5,1.7.34,0,2.6-2.881t2.26-4.295" transform="translate(-185.697 -85.997)" fill="#fff"/><path d="M534.882,256.227c-.683,0-1.853-.555-3.681-1.748-1.847-1.2-2.746-2.235-2.746-3.153,0-.873.614-2.084,1.876-3.7a13.787,13.787,0,0,1,2.8-2.957c.973-.446,2.327-.146,4.174.9s2.764,2.087,2.764,3.164c0,1.025-.761,2.5-2.33,4.5-2.36,3.005-2.623,3.005-2.855,3.005m-.782-11.12a1.592,1.592,0,0,0-.665.129,13.937,13.937,0,0,0-2.591,2.785c-1.154,1.48-1.739,2.592-1.739,3.3,0,.462.425,1.289,2.451,2.609,2,1.3,2.886,1.618,3.28,1.641a16.756,16.756,0,0,0,2.39-2.755c1.455-1.856,2.191-3.233,2.191-4.095,0-.811-.819-1.686-2.435-2.6a6.434,6.434,0,0,0-2.883-1.02" transform="translate(-185.521 -85.824)" fill="#fff"/><path d="M443.457,219.083a9.627,9.627,0,0,1,1.7-2.485,5.1,5.1,0,0,0,1.469-3.278q-.225-2.033-4.746-3.955l2.147-2.6q2.827-3.729,2.26-4.746a11.006,11.006,0,0,0-4.181-3.842,2.938,2.938,0,0,0-1.865-.283q-.958.17-1.977,1.865-.226.339-.961,1.413t-1.469,2.09a3.393,3.393,0,0,0-.734,1.356q0,.339,2.542,2.09t2.543,2.091l-2.26,3.164q-2.259,2.94-2.26,3.616-.225.34,4.859,4.295,2.262.567,2.938-.792" transform="translate(-152.746 -69.458)" fill="#fff"/><path d="M441.543,220.19a5.3,5.3,0,0,1-1.278-.176l-.12-.059c-4.912-3.818-5.143-4.336-4.979-4.652.051-.406.432-1.255,2.321-3.712l2.134-2.99a15.6,15.6,0,0,0-2.345-1.8c-2.682-1.846-2.682-2.129-2.682-2.357s.094-.574.8-1.546c.489-.677.976-1.369,1.464-2.084s.809-1.184.959-1.409c.727-1.213,1.445-1.873,2.19-2a3.253,3.253,0,0,1,2.066.311,11.383,11.383,0,0,1,4.317,3.969c.466.836-.239,2.409-2.282,5.106l-1.88,2.277c2.9,1.29,4.385,2.615,4.543,4.045a5.421,5.421,0,0,1-1.546,3.524,9.455,9.455,0,0,0-1.638,2.389l-.013.031a2.072,2.072,0,0,1-2.028,1.137m-1.055-.79c1.918.461,2.35-.335,2.5-.623a9.907,9.907,0,0,1,1.746-2.567,4.815,4.815,0,0,0,1.391-3.066c-.133-1.187-1.664-2.43-4.548-3.656l-.4-.17,2.422-2.934c2.427-3.2,2.367-4.132,2.227-4.382a10.733,10.733,0,0,0-4.06-3.718,2.586,2.586,0,0,0-1.646-.245c-.533.095-1.14.687-1.755,1.712-.16.24-.481.713-.971,1.429s-.982,1.417-1.474,2.1a4.064,4.064,0,0,0-.666,1.127,12.383,12.383,0,0,0,2.395,1.862c2.683,1.85,2.683,2.132,2.683,2.358v.1l-2.319,3.249c-1.987,2.583-2.2,3.257-2.2,3.427v.01c.135.224.891,1.038,4.68,3.986" transform="translate(-152.57 -69.283)" fill="#fff"/><path d="M465.826,184.46q3.729-5.085,4.068-5.763,0-1.92-5.086-3.955a28.272,28.272,0,0,1,2.43-2.825q2.092-2.26,2.09-3.955,0-2.145-4.294-3.842a2.1,2.1,0,0,0-1.356-.508q-.565.057-2.148,1.751l-.677.791q-2.6,2.94-2.6,4.012t4.521,4.238l-1.13,1.356q-2.937,4.068-2.938,5.65.114.906,1.809,1.922,2.712,2.145,3.672,2.147a1.952,1.952,0,0,0,1.639-1.018" transform="translate(-160.876 -57.437)" fill="#fff"/><path d="M464.012,185.626c-.46,0-1.362-.23-3.874-2.217-1.2-.714-1.839-1.421-1.929-2.136,0-1.174.978-3.084,3-5.88l.919-1.1c-3.865-2.735-4.371-3.735-4.371-4.3,0-.512.278-1.507,2.681-4.227l.674-.786c1.485-1.59,2.042-1.83,2.361-1.863a2.323,2.323,0,0,1,1.544.544c3,1.191,4.463,2.541,4.463,4.129,0,1.228-.712,2.594-2.177,4.176-1.074,1.162-1.8,1.986-2.167,2.458,3.3,1.37,4.91,2.713,4.91,4.1v.077l-.034.069c-.235.469-1.574,2.367-4.093,5.8a2.262,2.262,0,0,1-1.9,1.155m-.406-21.871a.637.637,0,0,0-.071,0c-.1.01-.552.161-1.943,1.65l-.668.78c-2.085,2.36-2.522,3.369-2.522,3.8,0,.273.428,1.2,4.382,3.973l.289.2-1.357,1.628c-2.364,3.276-2.862,4.769-2.862,5.442.04.3.362.87,1.651,1.643,2.319,1.831,3.19,2.1,3.506,2.1a1.635,1.635,0,0,0,1.369-.873l.008-.012c2.352-3.208,3.7-5.106,4-5.647-.055-.782-.974-2.016-4.88-3.579l-.354-.141.2-.327a28.015,28.015,0,0,1,2.471-2.877c1.33-1.436,2-2.693,2-3.735,0-1.279-1.376-2.47-4.089-3.54l-.069-.038a2,2,0,0,0-1.064-.452" transform="translate(-160.701 -57.261)" fill="#fff"/><path d="M462.059,62.881a10.682,10.682,0,0,0-1.043-2.191,12.245,12.245,0,0,0-3.9-3.842.972.972,0,0,0-.509-.169q-.394-.055-.169-.622a94.379,94.379,0,0,1,4.52-11.979l1.808-3.729q0-1.016-1.808-1.7l-2.26-.9a6.942,6.942,0,0,0,.565-2.317,13.933,13.933,0,0,0-.226-2.2c-.017-.019-.032-.034-.049-.053a9.67,9.67,0,0,0-1.421-3.79,7.655,7.655,0,0,0-5.65-3.277,39.183,39.183,0,0,0-7.232-.678q-3.615,0-17.855,2.147-14.689,2.262-17.064,2.373l-3.842.113q-7.23-3.163-8.08-3.108a8.1,8.1,0,0,0-3.108,1.751,6.521,6.521,0,0,1-3.164,1.922q-1.581.339-1.581.848t3.842,1.469a28.9,28.9,0,0,0,4.8.96,14.416,14.416,0,0,0,2.656-.339q1.695-.339,15.878-2.26t14.86-2.147A63.1,63.1,0,0,1,446.5,26.9q3.166,0,4.068,1.413a11.381,11.381,0,0,1,1.356,4.238,17.293,17.293,0,0,0,.375,1.839c-.134.343-.261.7-.375,1.1a22.729,22.729,0,0,1-2.43,4.859,43.779,43.779,0,0,1-4.8,4.182q-3.163,2.147-3.164,4.407,0,1.13,2.2,3.164a18.681,18.681,0,0,0,5.369,3.39,12.307,12.307,0,0,1,4.519,2.938,10.723,10.723,0,0,1,2.035,4.746,9.105,9.105,0,0,0,.581,2.413c-.082.307-.164.63-.243.977q-.9,4.52-6.667,6.554-1.357.339-1.356,1.016,0,.906,4.011,1.243t4.521.452q.508.114.509,1.13a5.422,5.422,0,0,1-.339,1.921q-1.128,5.877-3.955,5.877a6.95,6.95,0,0,1-1.7-.4,2.922,2.922,0,0,0-1.807-.169q0,.452,3.108,1.356a9.1,9.1,0,0,1,4.463,2.486,15.147,15.147,0,0,1,2.148,7.119,5.645,5.645,0,0,1-1.583,4.181,2.64,2.64,0,0,1-1.864.9,1.879,1.879,0,0,1-1.357-.4c-.263-.263-.4-.319-.4-.169q0,.567,1.639,2.26a19.751,19.751,0,0,1,3.278,5.086,24.868,24.868,0,0,1,2.2,6.893v.006c-.082.494-.158,1.05-.226,1.688q-1.017,8.475-3.955,9.04l-3.616-.677c-.376,0-.565.113-.565.339s.717.6,2.147,1.13a8.836,8.836,0,0,1,3.39,2.091,7.647,7.647,0,0,1,1.7,2.486,41.782,41.782,0,0,1,1.186,4.068c.157.615.3,1.15.435,1.622a14.791,14.791,0,0,1-1.282,4.82q-1.127,2.543-2.373,1.977l-2.486-.791a14.375,14.375,0,0,0-5.537-1.469h-1.7a18.526,18.526,0,0,0-6.5,1.073q-2.881,1.076-2.881,2.995,0,2.94,4.746,6.837a15.479,15.479,0,0,0,9.944,3.9,16.345,16.345,0,0,0,6.441-1.582q.229.678,1.187,2.882a19.135,19.135,0,0,1,1.356,4.8,16.6,16.6,0,0,0,.355,1.75c-.025.2-.049.4-.073.623q-1.017,8.475-3.955,9.04l-3.616-.678q-.565,0-.565.339t2.147,1.13a8.832,8.832,0,0,1,3.39,2.091,7.654,7.654,0,0,1,1.7,2.486A41.781,41.781,0,0,1,462.824,182c.1.376.186.717.274,1.04a39.022,39.022,0,0,0,.687,3.876q6.781,32.1,11.639,89.048,4.069,47.124,4.463,91.309t-1.864,87.636q-2.262,43.453-6.668,80.46t-10.51,67.182a12.525,12.525,0,0,0-.242,1.513,19.765,19.765,0,0,0-1.284,2.216A8.1,8.1,0,0,1,457,609.221q-3.276,2.373-10.622,3.391-4.746.791-7.515,1.13t-15.256,1.639a205.492,205.492,0,0,1-20.51,1.3h-2.938a3.607,3.607,0,0,0-1.583.114,23.4,23.4,0,0,0,11.019,2.486,149.268,149.268,0,0,0,15.029-.9q8.76-.9,17.743-1.639t17.8-2.147q8.814-1.411,10-1.526a16.534,16.534,0,0,1,2.712,0,15.194,15.194,0,0,1,2.43.339q1.58,1.357,2.26,2.034,2.6,2.262,4.182,7.684a35.193,35.193,0,0,1,1.581,9.718q0,9.383-7.684,13.674a8.308,8.308,0,0,1-5.312,1.243,23.535,23.535,0,0,1-7.8-1.809c-.3,0-.376.077-.226.227q.906,1.244,4.52,2.542a25.351,25.351,0,0,0,8.814,1.243,19.539,19.539,0,0,0,9.041-2.09q6.665-4.52,6.667-13.561a26.587,26.587,0,0,0-2.6-11.414,16.77,16.77,0,0,0-6.724-7.854,36.443,36.443,0,0,0-11.584-3.559,10.8,10.8,0,0,0-2.146-.339,20.917,20.917,0,0,1-2.374-.226,21.008,21.008,0,0,0,1.257-2.575,13.047,13.047,0,0,0,1.907-3.527q20-101.139,19.324-213.469-.791-126.339-17.855-207.027a8.432,8.432,0,0,0-.328-1.052c0-.154,0-.311-.01-.474q-.115-2.089-4.069-6.046-2.033-1.806-1.921-2.373a8.446,8.446,0,0,1,1.13-2.147Q470,165.108,470,162.17a3.234,3.234,0,0,0-.967-2.141,28.034,28.034,0,0,0-2.988-7.464q-2.484-3.729-2.147-4.407a48.355,48.355,0,0,1,2.825-5.763,11.6,11.6,0,0,0,1.2-5.094,4.924,4.924,0,0,0,.385-2.422q-.115-2.089-4.069-6.046-2.034-1.807-1.921-2.373a8.436,8.436,0,0,1,1.13-2.147q4.635-7.119,4.633-10.057a3.171,3.171,0,0,0-.894-2.056,12.351,12.351,0,0,0-1.7-4.385,10.814,10.814,0,0,0-2.6-3.051q-.677-.565,0-1.582.564-.678,1.582-1.7,1.582-2.372.9-6.328a10.816,10.816,0,0,0-3.39-6.441,1.838,1.838,0,0,1-.453-1.356,8.177,8.177,0,0,1,.961-2.938,15.66,15.66,0,0,0,1.3-4.746q.339-2.712-.282-3.5t-3.9-1.582q-3.276-.789-3.334-1.13t.848-1.018a18.866,18.866,0,0,0,3.616-2.881,6.079,6.079,0,0,0,2.034-4.463,3.647,3.647,0,0,0-.709-2.217M447.739,50.746a6.338,6.338,0,0,1-1.13-3.277,3.52,3.52,0,0,1,1.526-2.712A6.335,6.335,0,0,1,451.92,43.4h1.243c.152,0,.209.152.169.452s-.734,2.26-2.09,5.876q-1.017,2.6-1.7,2.825-.677,0-1.808-1.808m6.837,93.23a5.435,5.435,0,0,1,1.752,3.39q0,1.47-2.2,3.559t-3.956,2.091a4.565,4.565,0,0,1-3.39-1.921,6.255,6.255,0,0,1-1.638-4.125,4.172,4.172,0,0,1,1.92-3.559,6.641,6.641,0,0,1,3.843-1.356,5.01,5.01,0,0,1,3.672,1.922" transform="translate(-136.912 -8.93)" fill="#fff"/><path d="M475.048,650.111a25.321,25.321,0,0,1-8.5-1.265c-2.494-.9-4.023-1.764-4.672-2.657a.408.408,0,0,1-.108-.463c.115-.278.465-.278.6-.278l.119.023a23.37,23.37,0,0,0,7.688,1.786,8.026,8.026,0,0,0,5.107-1.179c5.025-2.811,7.554-7.315,7.554-13.414a35.025,35.025,0,0,0-1.569-9.628c-1.032-3.537-2.406-6.071-4.082-7.53-.444-.444-1.16-1.088-2.2-1.982a15.415,15.415,0,0,0-2.3-.312,16.318,16.318,0,0,0-2.659,0c-.782.075-4.14.587-9.979,1.523s-11.848,1.662-17.822,2.15-11.955,1.042-17.735,1.638a150.32,150.32,0,0,1-15.063.906,23.846,23.846,0,0,1-11.17-2.523l-.677-.355.725-.241a3.945,3.945,0,0,1,1.724-.127l2.9,0c5.323,0,12.212-.437,20.477-1.3,8.1-.842,13.373-1.408,15.251-1.638,1.834-.224,4.358-.6,7.5-1.128,4.83-.669,8.355-1.789,10.485-3.333a7.8,7.8,0,0,0,2.217-2.82,20.444,20.444,0,0,1,1.26-2.185,12.686,12.686,0,0,1,.241-1.472c4.045-20,7.579-42.593,10.5-67.147,2.921-24.532,5.164-51.6,6.666-80.44,1.5-28.821,2.125-58.3,1.863-87.616-.264-29.333-1.765-60.045-4.462-91.284-3.225-37.784-7.139-67.73-11.634-89.009-.432-2.1-.659-3.378-.692-3.891-.084-.315-.173-.646-.266-1.012a41.757,41.757,0,0,0-1.175-4.032,7.391,7.391,0,0,0-1.627-2.378,8.556,8.556,0,0,0-3.268-2.01c-2.182-.8-2.36-1.125-2.36-1.434,0-.156.064-.664.89-.664l3.613.672c1.763-.4,2.986-3.338,3.635-8.748.021-.194.043-.38.066-.563a17.011,17.011,0,0,1-.347-1.724,18.914,18.914,0,0,0-1.332-4.722c-.522-1.2-.877-2.048-1.078-2.578A16.377,16.377,0,0,1,453.1,155.2a15.862,15.862,0,0,1-10.151-3.972c-3.273-2.689-4.864-5.007-4.864-7.088,0-1.424,1.041-2.533,3.093-3.3a18.923,18.923,0,0,1,6.611-1.095h1.7a14.812,14.812,0,0,1,5.694,1.51l2.427.766a.728.728,0,0,0,.594.042c.312-.119.8-.535,1.384-1.841a14.617,14.617,0,0,0,1.251-4.657c-.13-.461-.269-.98-.421-1.573a41.91,41.91,0,0,0-1.175-4.033,7.381,7.381,0,0,0-1.627-2.378,8.562,8.562,0,0,0-3.267-2.01c-2.182-.8-2.36-1.125-2.36-1.435,0-.156.064-.664.889-.664l3.613.672c1.764-.4,2.987-3.338,3.636-8.748.064-.6.137-1.143.22-1.651a24.611,24.611,0,0,0-2.167-6.757,19.494,19.494,0,0,0-3.219-5c-1.533-1.588-1.73-2.162-1.73-2.485a.387.387,0,0,1,.234-.378c.257-.107.5.1.716.318a1.609,1.609,0,0,0,1.127.3,2.315,2.315,0,0,0,1.634-.808,5.3,5.3,0,0,0,1.488-3.953,14.882,14.882,0,0,0-2.1-6.951,8.9,8.9,0,0,0-4.276-2.343c-3.086-.9-3.342-1.3-3.342-1.668V83.8l.205-.082a3.167,3.167,0,0,1,2.025.162,6.375,6.375,0,0,0,1.6.38c1.7,0,2.921-1.888,3.635-5.613a5.293,5.293,0,0,0,.334-1.86c0-.228-.025-.762-.255-.813-.187-.042-1.019-.154-4.476-.446-3.02-.255-4.309-.724-4.309-1.567,0-.618.539-1.066,1.6-1.332,3.68-1.3,5.852-3.424,6.428-6.3.073-.32.146-.614.219-.893a9.664,9.664,0,0,1-.563-2.4,10.432,10.432,0,0,0-1.958-4.574,12.07,12.07,0,0,0-4.4-2.85,19.065,19.065,0,0,1-5.46-3.451c-1.553-1.434-2.308-2.546-2.308-3.4,0-1.612,1.112-3.185,3.306-4.675a43.631,43.631,0,0,0,4.736-4.121,22.718,22.718,0,0,0,2.38-4.775c.088-.31.2-.645.334-1a17.275,17.275,0,0,1-.355-1.771,11.132,11.132,0,0,0-1.31-4.111c-.536-.838-1.813-1.263-3.794-1.263A63.055,63.055,0,0,0,431.933,29.3c-.277.093-2.153.428-14.9,2.153-9.558,1.3-14.744,2.034-15.858,2.257a14.8,14.8,0,0,1-2.719.346,28.567,28.567,0,0,1-4.881-.97c-3.775-.943-4.088-1.382-4.088-1.784,0-.683.983-.981,1.838-1.165a6.232,6.232,0,0,0,3-1.833c1.629-1.225,2.671-1.8,3.315-1.846.44-.012,1.75.3,8.166,3.105l3.77-.112c1.56-.073,7.289-.87,17.024-2.369,9.608-1.448,15.465-2.151,17.9-2.151a39.673,39.673,0,0,1,7.293.684,7.974,7.974,0,0,1,5.852,3.4,10.132,10.132,0,0,1,1.468,3.846l.06.134a14.274,14.274,0,0,1,.23,2.258,6.661,6.661,0,0,1-.474,2.133l1.965.787c1.333.5,2.012,1.172,2.012,2l-.032.141-1.808,3.729a94.674,94.674,0,0,0-4.5,11.936,1.051,1.051,0,0,0-.062.206,1.259,1.259,0,0,1,.63.229,12.6,12.6,0,0,1,3.977,3.931,11.148,11.148,0,0,1,1.055,2.2,4.02,4.02,0,0,1,.744,2.362,6.427,6.427,0,0,1-2.133,4.708,19.279,19.279,0,0,1-3.682,2.93,2.528,2.528,0,0,0-.657.633,14.937,14.937,0,0,0,3.06.918c2.309.558,3.6,1.1,4.077,1.7s.589,1.831.349,3.744a16.017,16.017,0,0,1-1.328,4.844,8,8,0,0,0-.929,2.8,1.544,1.544,0,0,0,.357,1.126,11.156,11.156,0,0,1,3.479,6.606c.467,2.718.145,4.927-.952,6.574-.713.721-1.238,1.284-1.6,1.722-.5.749-.178,1.013-.042,1.126a11.156,11.156,0,0,1,2.669,3.132,12.577,12.577,0,0,1,1.727,4.406,3.449,3.449,0,0,1,.919,2.2c0,2.044-1.533,5.391-4.686,10.234a7.791,7.791,0,0,0-1.083,2.035c0,.04.015.466,1.818,2.066,2.734,2.733,4.1,4.781,4.177,6.271a5.331,5.331,0,0,1-.386,2.517,11.936,11.936,0,0,1-1.232,5.165,48.972,48.972,0,0,0-2.8,5.708c-.058.143-.133.774,2.106,4.134a28.725,28.725,0,0,1,3.018,7.493,3.507,3.507,0,0,1,.992,2.292c0,2.044-1.532,5.391-4.685,10.234a7.8,7.8,0,0,0-1.084,2.035c0,.039.016.466,1.818,2.066,2.734,2.733,4.1,4.78,4.177,6.271q.013.224.012.433a8.616,8.616,0,0,1,.319,1.037c11.328,53.572,17.338,123.248,17.864,207.1.45,74.555-6.054,146.4-19.331,213.533a13.687,13.687,0,0,1-1.946,3.639,20.618,20.618,0,0,1-1.021,2.139,17.065,17.065,0,0,0,1.857.162,11,11,0,0,1,2.219.346,36.857,36.857,0,0,1,11.669,3.593,17.161,17.161,0,0,1,6.859,8,27.028,27.028,0,0,1,2.63,11.552c0,6.113-2.291,10.766-6.81,13.83a19.942,19.942,0,0,1-9.219,2.146l-.43,0m-12.138-3.783a13.71,13.71,0,0,0,3.859,1.908,25.413,25.413,0,0,0,8.7,1.224,19.3,19.3,0,0,0,8.893-2.053c4.3-2.917,6.494-7.389,6.494-13.274a26.38,26.38,0,0,0-2.569-11.275,16.533,16.533,0,0,0-6.589-7.71,36.3,36.3,0,0,0-11.477-3.522,10.726,10.726,0,0,0-2.093-.334,21.126,21.126,0,0,1-2.417-.23l-.476-.063.237-.419a20.674,20.674,0,0,0,1.238-2.534l.064-.1a12.916,12.916,0,0,0,1.846-3.431c13.249-67.031,19.748-138.83,19.3-213.342-.526-83.808-6.531-153.44-17.848-206.962a8.065,8.065,0,0,0-.314-1.005l-.021-.056v-.061c0-.146,0-.3-.01-.453-.071-1.306-1.409-3.269-3.974-5.834-1.9-1.687-2.082-2.294-2.01-2.665a8.392,8.392,0,0,1,1.176-2.26c3.04-4.67,4.581-7.994,4.581-9.882a2.939,2.939,0,0,0-.884-1.924l-.058-.065-.017-.086a27.851,27.851,0,0,0-2.955-7.375c-2.267-3.4-2.361-4.29-2.153-4.709a47.867,47.867,0,0,1,2.829-5.771,11.328,11.328,0,0,0,1.159-4.948l.033-.134a4.625,4.625,0,0,0,.352-2.262c-.071-1.306-1.408-3.268-3.974-5.834-1.9-1.685-2.082-2.293-2.01-2.665a8.385,8.385,0,0,1,1.175-2.26c3.041-4.669,4.582-7.994,4.582-9.881a2.873,2.873,0,0,0-.816-1.844l-.054-.064-.018-.081a12.066,12.066,0,0,0-1.655-4.269,10.588,10.588,0,0,0-2.526-2.974c-.35-.291-.806-.925-.075-2.022.4-.487.927-1.049,1.623-1.744.961-1.455,1.249-3.5.813-6.044a10.547,10.547,0,0,0-3.275-6.246,2.151,2.151,0,0,1-.572-1.607,8.35,8.35,0,0,1,.992-3.076,15.4,15.4,0,0,0,1.271-4.648c.266-2.129.03-2.949-.215-3.262s-1.1-.836-3.719-1.467c-3.483-.839-3.531-1.119-3.578-1.391-.062-.375.228-.772.971-1.332a18.751,18.751,0,0,0,3.585-2.854,5.794,5.794,0,0,0,1.937-4.231,3.338,3.338,0,0,0-.638-2.014l-.056-.1a10.424,10.424,0,0,0-1.011-2.123,11.982,11.982,0,0,0-3.8-3.737l-.053-.043h0a1.215,1.215,0,0,0-.325-.077.587.587,0,0,1-.448-.283.876.876,0,0,1,.025-.78,94.882,94.882,0,0,1,4.53-12l1.772-3.656c-.044-.5-.581-.942-1.594-1.323l-2.564-1.026.115-.3a6.65,6.65,0,0,0,.543-2.2,13.258,13.258,0,0,0-.206-2.057l0-.005-.062-.153a9.38,9.38,0,0,0-1.376-3.662,7.361,7.361,0,0,0-5.4-3.123,39.21,39.21,0,0,0-7.2-.677c-2.374,0-8.364.721-17.807,2.143-9.755,1.5-15.508,2.3-17.1,2.376l-3.922.116-.066-.029c-6.228-2.724-7.648-3.1-7.929-3.081-.342.024-1.13.336-2.934,1.688a6.789,6.789,0,0,1-3.291,1.979c-.97.207-1.232.412-1.3.493.159.13.823.5,3.572,1.19a29.012,29.012,0,0,0,4.724.951,14.152,14.152,0,0,0,2.592-.334c1.127-.225,6.328-.965,15.9-2.263,11.7-1.584,14.506-2.034,14.8-2.133A63.738,63.738,0,0,1,446.319,26.4c2.217,0,3.678.526,4.341,1.562a11.741,11.741,0,0,1,1.4,4.362,16.746,16.746,0,0,0,.368,1.807l.027.1-.038.1c-.143.367-.263.718-.365,1.071a22.738,22.738,0,0,1-2.493,4.977,43.919,43.919,0,0,1-4.849,4.228c-2.026,1.376-3.042,2.768-3.042,4.153,0,.451.364,1.324,2.1,2.926a18.415,18.415,0,0,0,5.276,3.33,12.692,12.692,0,0,1,4.638,3.025,11.091,11.091,0,0,1,2.105,4.89,8.974,8.974,0,0,0,.564,2.357l.043.1-.029.106c-.082.3-.162.623-.24.966-.622,3.11-2.936,5.4-6.876,6.788-.443.112-1.139.341-1.139.711,0,.025.043.609,3.714.92,2.665.225,4.2.379,4.562.458.507.114.764.6.764,1.447a5.758,5.758,0,0,1-.36,2.035c-.766,4.021-2.2,6.087-4.258,6.087a7.1,7.1,0,0,1-1.794-.41,5.676,5.676,0,0,0-.763-.194,20.949,20.949,0,0,0,2.253.759,9.461,9.461,0,0,1,4.619,2.587,15.529,15.529,0,0,1,2.225,7.312,6,6,0,0,1-1.677,4.429,2.964,2.964,0,0,1-2.093,1,3.073,3.073,0,0,1-1.015-.145,14.57,14.57,0,0,0,1.135,1.289,20.171,20.171,0,0,1,3.337,5.17,25.32,25.32,0,0,1,2.231,6.983v.112c-.084.5-.16,1.064-.225,1.669-.7,5.866-2.082,8.914-4.217,9.324l-.06.012-3.676-.69a.622.622,0,0,0-.109.014,8.925,8.925,0,0,0,1.864.833,9.193,9.193,0,0,1,3.512,2.17,8,8,0,0,1,1.764,2.6,42.155,42.155,0,0,1,1.2,4.1c.156.611.3,1.143.433,1.613l.016.056-.005.059a15.2,15.2,0,0,1-1.309,4.925,3.808,3.808,0,0,1-1.746,2.184,1.324,1.324,0,0,1-1.057-.043l-2.45-.777a14.27,14.27,0,0,0-5.47-1.456h-1.665a18.27,18.27,0,0,0-6.384,1.054c-1.8.67-2.67,1.55-2.67,2.691,0,1.848,1.557,4.064,4.628,6.585a15.23,15.23,0,0,0,9.739,3.826A16.1,16.1,0,0,0,459.41,153l.324-.141.113.336c.149.442.545,1.4,1.177,2.856a19.548,19.548,0,0,1,1.38,4.883,16.035,16.035,0,0,0,.348,1.714l.016.061-.008.064c-.026.2-.05.4-.073.618-.7,5.866-2.082,8.914-4.216,9.324l-.06.012-3.676-.69a.635.635,0,0,0-.11.014,8.942,8.942,0,0,0,1.864.833,9.192,9.192,0,0,1,3.513,2.17,8.017,8.017,0,0,1,1.764,2.6,42.054,42.054,0,0,1,1.2,4.1c.1.373.186.714.273,1.035l.011.069c.022.448.251,1.735.68,3.827,4.5,21.3,8.419,51.276,11.646,89.085,2.7,31.255,4.2,61.985,4.465,91.333.262,29.33-.366,58.822-1.864,87.656-1.5,28.858-3.746,55.936-6.67,80.482-2.926,24.571-6.463,47.184-10.513,67.208a12.215,12.215,0,0,0-.238,1.482l-.008.08-.045.068a19.694,19.694,0,0,0-1.262,2.179,8.434,8.434,0,0,1-2.413,3.053c-2.221,1.609-5.844,2.77-10.772,3.452-3.143.524-5.676.905-7.52,1.13-1.881.23-7.159.8-15.262,1.639-8.288.863-15.2,1.3-20.544,1.3h-2.938c-.171-.02-.332-.032-.484-.035a23.739,23.739,0,0,0,9.92,1.986,149.749,149.749,0,0,0,15-.9c5.786-.6,11.757-1.149,17.749-1.639,5.959-.487,11.939-1.208,17.773-2.145,5.853-.937,9.225-1.451,10.021-1.528a17.217,17.217,0,0,1,2.767,0,15.66,15.66,0,0,1,2.485.348l.075.018.059.051c1.084.931,1.829,1.6,2.278,2.051,1.755,1.526,3.2,4.164,4.263,7.822a35.661,35.661,0,0,1,1.594,9.81c0,6.351-2.641,11.047-7.85,13.957a8.659,8.659,0,0,1-5.481,1.285,23.269,23.269,0,0,1-7.242-1.578m-.667-.223h0Zm-12.251-492.94a4.888,4.888,0,0,1-3.637-2.036,6.591,6.591,0,0,1-1.715-4.335,4.5,4.5,0,0,1,2.057-3.825,6.99,6.99,0,0,1,4.031-1.416,5.342,5.342,0,0,1,3.912,2.028,5.675,5.675,0,0,1,1.837,3.609c0,1.083-.754,2.324-2.3,3.8-1.523,1.446-2.929,2.179-4.179,2.179m.735-10.962a6.358,6.358,0,0,0-3.656,1.3,3.831,3.831,0,0,0-1.783,3.295,5.963,5.963,0,0,0,1.561,3.914,4.281,4.281,0,0,0,3.143,1.807c1.077,0,2.333-.674,3.733-2s2.1-2.442,2.1-3.325a5.175,5.175,0,0,0-1.666-3.171,4.731,4.731,0,0,0-3.433-1.816m-1.3-89.5h-.052c-.587,0-1.248-.622-2.083-1.96a6.67,6.67,0,0,1-1.18-3.448,3.843,3.843,0,0,1,1.646-2.964,6.672,6.672,0,0,1,3.975-1.428h1.259a.475.475,0,0,1,.364.161.833.833,0,0,1,.127.657,60.942,60.942,0,0,1-2.109,5.949c-.952,2.435-1.513,2.892-1.9,3.018Zm2.321-9.153a6.024,6.024,0,0,0-3.581,1.284,3.189,3.189,0,0,0-1.406,2.46,6.06,6.06,0,0,0,1.081,3.105c.851,1.362,1.307,1.61,1.481,1.649.177-.1.644-.563,1.445-2.613,1.755-4.681,2.051-5.642,2.071-5.8,0-.035.007-.064.008-.088Z" transform="translate(-136.736 -8.754)" fill="#fff"/><path d="M454.93,7.314q-5.875,0-25.427,1.921l-21.7,2.713q-4.746.567-6.328.79l-4.52.679,4.746.677q4.746.678,5.029.678t15.652-1.808q15.369-1.807,30.455-2.995t15.086-1.412q-1.356-1.582-10.4-1.582Z" transform="translate(-139.357 -2.45)" fill="#fff"/><path d="M406.707,14.922c-.084,0-.308,0-5.075-.681l-4.746-.678,0-.642,4.52-.678c1.049-.15,3.121-.408,6.338-.792l21.7-2.713c12.974-1.275,21.532-1.921,25.446-1.923l2.578-.336h.046c6.2,0,9.662.554,10.639,1.692l.078.091v.12c0,.435,0,.526-15.386,1.736-9.97.785-20.212,1.792-30.442,2.994-15.37,1.81-15.61,1.81-15.689,1.81m-7.535-1.688,2.552.365c4.079.582,4.874.672,4.984.674.159-.007,2.409-.251,15.613-1.806,10.238-1.2,20.489-2.211,30.468-3,9.261-.729,13.009-1.088,14.345-1.262-1.07-.557-3.66-1.084-9.629-1.084l-2.6.339c-3.884,0-12.428.646-25.395,1.92l-21.688,2.711c-3.215.384-5.282.642-6.323.79Z" transform="translate(-139.331 -2.276)" fill="#fff"/><path d="M710.931,991.129q0,.677,2.26,2.6,2.374,1.695,3.277,1.7.564,0,2.374-2.825a20.054,20.054,0,0,0,2.091-3.786q.28-.959-2.26-2.6t-3.673-1.3q-4.068,4.182-4.069,6.216" transform="translate(-249.582 -345.748)" fill="#fff"/><path d="M716.293,995.573c-.687,0-1.788-.557-3.466-1.755-2.126-1.807-2.4-2.478-2.4-2.863,0-1.458,1.36-3.565,4.16-6.442l.059-.06.08-.025c.859-.253,2.145.184,3.942,1.338,1.872,1.208,2.633,2.149,2.4,2.962a19.981,19.981,0,0,1-2.13,3.87c-1.674,2.614-2.261,2.975-2.646,2.975m-1.3-10.543c-2.6,2.68-3.913,4.672-3.913,5.924,0,.123.154.659,2.146,2.352,1.87,1.334,2.7,1.618,3.067,1.618.066-.016.529-.223,2.1-2.676a20.011,20.011,0,0,0,2.053-3.7c.064-.217-.016-.874-2.125-2.234-1.892-1.217-2.852-1.38-3.328-1.281" transform="translate(-249.406 -345.573)" fill="#fff"/><path d="M720.933,964.085q.28-.959-2.26-2.6t-3.673-1.3q-4.068,4.182-4.069,6.215,0,.678,2.26,2.6,2.374,1.7,3.277,1.7.564,0,2.374-2.825a20.014,20.014,0,0,0,2.091-3.786" transform="translate(-249.582 -337.067)" fill="#fff"/><path d="M716.293,970.844c-.688,0-1.789-.557-3.466-1.755-2.126-1.807-2.4-2.478-2.4-2.862,0-1.458,1.36-3.565,4.16-6.442l.059-.06.08-.024c.856-.258,2.144.18,3.942,1.338,1.872,1.207,2.634,2.148,2.4,2.961h0a20,20,0,0,1-2.129,3.87c-1.674,2.613-2.261,2.974-2.646,2.974m-1.3-10.542c-2.6,2.679-3.913,4.672-3.913,5.924,0,.123.154.658,2.146,2.351,1.87,1.334,2.7,1.618,3.067,1.618.066-.016.53-.223,2.1-2.675a20.05,20.05,0,0,0,2.053-3.7c.064-.219-.018-.875-2.125-2.234-1.892-1.219-2.848-1.38-3.328-1.281" transform="translate(-249.406 -336.891)" fill="#fff"/><path d="M654.788,218.63q0-1.3-2.486-2.6t-3.729-.848q-4.858,4.408-4.859,6.328,0,.791,2.26,2.712,2.262,1.809,3.164,1.809t3.39-3.164q2.262-2.938,2.26-4.238" transform="translate(-225.984 -75.503)" fill="#fff"/><path d="M648.962,226.18c-.693,0-1.763-.6-3.367-1.879-2.112-1.8-2.382-2.528-2.382-2.966,0-1.389,1.624-3.538,4.965-6.569l.108-.064c.927-.337,2.234-.053,3.991.865,1.79.936,2.659,1.88,2.659,2.886,0,.951-.761,2.4-2.326,4.435-2.291,2.917-3.152,3.291-3.648,3.291m-.4-10.887c-3.885,3.532-4.7,5.236-4.7,6.043,0,.192.209.818,2.147,2.465,1.787,1.43,2.594,1.731,2.953,1.731.225,0,.981-.3,3.135-3.04,1.81-2.352,2.19-3.494,2.19-4.038,0-.721-.8-1.521-2.311-2.311s-2.672-1.084-3.412-.85" transform="translate(-225.808 -75.327)" fill="#fff"/><path d="M669.479,163.258l-1.131,1.356q-2.937,4.069-2.938,5.65.114.906,1.809,1.922,2.711,2.144,3.672,2.147a1.953,1.953,0,0,0,1.639-1.018q3.728-5.085,4.068-5.763,0-1.921-5.086-3.956a28.278,28.278,0,0,1,2.43-2.825q2.092-2.259,2.091-3.955,0-2.145-4.295-3.842a2.106,2.106,0,0,0-1.356-.509q-.564.058-2.148,1.751l-.677.791q-2.6,2.94-2.6,4.012t4.521,4.238" transform="translate(-233.442 -53.525)" fill="#fff"/><path d="M670.716,174.481c-.46,0-1.362-.23-3.874-2.217-1.2-.714-1.839-1.421-1.929-2.135,0-1.174.979-3.084,3-5.88l.919-1.1c-3.865-2.735-4.37-3.735-4.37-4.3,0-.513.277-1.508,2.679-4.227l.675-.787c1.485-1.59,2.042-1.83,2.362-1.863a2.344,2.344,0,0,1,1.544.544c3,1.191,4.463,2.541,4.463,4.129,0,1.228-.713,2.594-2.178,4.176-1.241,1.343-1.862,2.069-2.165,2.459,3.3,1.369,4.908,2.713,4.908,4.1v.077l-.034.069c-.148.3-.736,1.226-4.1,5.81a2.258,2.258,0,0,1-1.9,1.149m-.4-21.871a.684.684,0,0,0-.074,0c-.1.01-.552.161-1.942,1.65l-.669.78c-2.084,2.359-2.52,3.368-2.52,3.8,0,.273.427,1.2,4.382,3.973l.289.2-1.357,1.628c-2.364,3.275-2.862,4.768-2.862,5.442.04.3.362.869,1.651,1.643,2.318,1.831,3.19,2.1,3.506,2.1a1.639,1.639,0,0,0,1.369-.873c2.361-3.22,3.706-5.118,4.011-5.659-.055-.782-.973-2.017-4.879-3.579l-.354-.141.2-.327a28.018,28.018,0,0,1,2.47-2.877c1.331-1.437,2.005-2.694,2.005-3.735,0-1.278-1.376-2.47-4.09-3.54l-.069-.038a1.985,1.985,0,0,0-1.061-.452" transform="translate(-233.267 -53.349)" fill="#fff"/><path d="M647.956,148.47a19.641,19.641,0,0,0,2.2-3.221,3.547,3.547,0,0,0,.509-1.977q-.113-.734-1.809-1.978-2.824-2.145-3.617-2.147t-2.825,2.147q-2.824,2.94-2.713,4.463t2.6,3.108a8.846,8.846,0,0,0,3.277,1.582q.791,0,2.373-1.977" transform="translate(-224.576 -48.851)" fill="#fff"/><path d="M645.406,150.6c-.378,0-1.148-.169-3.451-1.633-1.765-1.125-2.664-2.223-2.749-3.357s.836-2.665,2.8-4.713c1.909-2.013,2.661-2.246,3.06-2.246s1.2.23,3.813,2.212c1.227.9,1.842,1.6,1.932,2.188a3.8,3.8,0,0,1-.54,2.171,20.065,20.065,0,0,1-2.239,3.278c-1.147,1.432-1.983,2.1-2.628,2.1m-.338-11.3c-.2,0-.84.2-2.59,2.045-2.252,2.345-2.67,3.588-2.624,4.217.067.9.892,1.864,2.45,2.858,2.1,1.332,2.844,1.531,3.1,1.531.19,0,.779-.181,2.121-1.856a19.446,19.446,0,0,0,2.166-3.163,3.274,3.274,0,0,0,.478-1.783c-.034-.224-.3-.751-1.679-1.766-2.388-1.814-3.169-2.084-3.424-2.084" transform="translate(-224.4 -48.675)" fill="#fff"/><path d="M676.818,117.23a8.317,8.317,0,0,0-.21-1.577q-1.584-5.086-7.685-5.763h-2.711a11.869,11.869,0,0,0-8.024,2.373,8.936,8.936,0,0,0-2.034,1.809v.113q5.085,2.712,7.46,1.921l.452-.113,1.581-2.147q.906-1.016,1.583-1.7l.677-.565q2.487-.9,2.6,2.147a29.605,29.605,0,0,1-.565,4.633v.822a17.971,17.971,0,0,1-2.374,4.716A19.841,19.841,0,0,1,660,129.892q-2.712,1.356-4.859,2.26-1.016.339-2.147.678-2.711,1.018-2.486,1.243a7.115,7.115,0,0,0,5.2.113,52.7,52.7,0,0,0,7.006-2.26,9.006,9.006,0,0,1,4.294-.792,6.461,6.461,0,0,1,2.147.565,8.342,8.342,0,0,1,3.616,4.973c.044.109.086.21.128.315-.045.325-.088.666-.128,1.04q-1.016,8.475-3.955,9.04l-3.616-.678c-.376,0-.565.113-.565.339s.717.6,2.147,1.13a8.824,8.824,0,0,1,3.39,2.09,7.651,7.651,0,0,1,1.7,2.486,41.99,41.99,0,0,1,1.186,4.068q.278,1.092.508,1.883,0,1.69.227,4.05t.226,7.571l-.792-.678q-3.275-6.213-11.752-8.249a26.181,26.181,0,0,1-2.938-1.018q-.34-.339-1.357-.113-1.017,0-2.6,1.921a14.429,14.429,0,0,0-3.39,6.724q-.566,3.334.339,4.69,2.033,4.974,11.526,16.273,3.053,3.957,3.955,4.859.114,0,.34.678c0,.452-.414.6-1.244.452l-6.328-.791q-3.276,0-15.48,1.13t-16.161,1.13a18.525,18.525,0,0,1-5.537-.565,9.366,9.366,0,0,0-1.922-.565,4.91,4.91,0,0,1-1.412-.452,2.884,2.884,0,0,0-1.752-.282,3.752,3.752,0,0,0-1.469.848q-.79.677-2.317,1.808t-1.525,1.356q0,.678,3.955,1.921a14.1,14.1,0,0,0,2.713.508,10.329,10.329,0,0,0,3.051-.508,16.3,16.3,0,0,1,3.051-.735q2.262-.4,5.311-.735t14.691-1.3q11.64-.959,14.182-1.356a35.744,35.744,0,0,1,5.481-.4,11.483,11.483,0,0,1,4.238.565,28.9,28.9,0,0,1,3.334,1.809q2.147,1.355,2.826,5.2l.677,3.5a7.921,7.921,0,0,0,.521,1.365c.081.408.168.848.271,1.348q6.78,32.1,11.639,89.048,4.069,47.124,4.465,91.309t-1.865,87.636q-2.262,43.452-6.668,80.46t-10.509,67.182a15.785,15.785,0,0,0-.339,3.5l.31,1.034c-.144,1.868-1.406,3.932-3.814,6.2l1.017.791a6.634,6.634,0,0,0,2.826.452,7.565,7.565,0,0,0,3.955-1.243q2.033-1.242,2.034-2.6,0-.451,1.243-.113,2.938.567,8.023,5.65,11.414,11.754,11.414,24.409l-.79,8.588.113.565q1.356-4.3,3.277-11.244t1.92-7.289q.113-3.729-3.39-7.91-7.232-10.282-17.967-13.787l-3.051-1.13.093-.807a19.5,19.5,0,0,0,1.376-2.809q20-101.138,19.324-213.468-.791-126.339-17.854-207.026a8.512,8.512,0,0,0-.68-1.866q-.012-4.316-1.92-16.441a43.073,43.073,0,0,1-.452-6.1v-2.825a18.48,18.48,0,0,0,.113-2.373l.226-2.6q.564-5.311.565-6.216-.278-7.068-.768-10.518a6.2,6.2,0,0,0,.09-1.517q-.114-2.09-4.069-6.046-2.033-1.807-1.921-2.373a8.479,8.479,0,0,1,1.13-2.147q4.635-7.119,4.634-10.057a3.53,3.53,0,0,0-1.3-2.486,4.63,4.63,0,0,0-.9-.675,9.776,9.776,0,0,0-1.986-1.528,13.744,13.744,0,0,0-7.119-2.091,1.222,1.222,0,0,1-.9-.339c-.226-.226-.263-.356-.113-.4a.828.828,0,0,0,.4-.226,3.831,3.831,0,0,1,.4-.339c.152-.113.677-.469,1.581-1.073q6.671-4.408,6.669-9.606a2.159,2.159,0,0,0-.129-.683m-4.731,69.73q1.131,5.085,2.034,9.379.227,1.017-.339,1.018-1.243,0-7.177-8.08t-7.628-11.7a7.951,7.951,0,0,1-.339-2.938,18.154,18.154,0,0,1,1.581-6.215q1.584-3.955,2.938-3.955,1.245,0,2.6,2.938,3.165,5.876,6.328,19.55" transform="translate(-214.919 -38.578)" fill="#fff"/><path d="M699.682,673.145l-.628-.034-.122-.611.794-8.635c0-8.28-3.811-16.417-11.323-24.154-3.324-3.323-5.966-5.194-7.852-5.557a2.446,2.446,0,0,0-.859-.135c-.033.995-.769,1.938-2.188,2.8a7.923,7.923,0,0,1-4.125,1.29,6.863,6.863,0,0,1-2.97-.486l-1.371-1.057.276-.26c2.3-2.164,3.548-4.157,3.709-5.927l-.306-1.068a16.212,16.212,0,0,1,.347-3.576c4.046-20.006,7.58-42.6,10.5-67.147s5.164-51.6,6.665-80.439c1.5-28.81,2.127-58.289,1.865-87.615s-1.766-60.044-4.463-91.284c-3.224-37.782-7.138-67.73-11.633-89.01-.1-.489-.187-.919-.265-1.319-.534-1.239-.534-1.367-.534-1.462l-.672-3.441c-.434-2.461-1.336-4.136-2.68-4.985a28.794,28.794,0,0,0-3.29-1.785,11.262,11.262,0,0,0-4.108-.539,35.541,35.541,0,0,0-5.431.393c-1.694.265-6.474.722-14.206,1.358-7.87.652-12.672,1.077-14.682,1.3s-3.792.47-5.29.732a16.2,16.2,0,0,0-2.98.713,10.682,10.682,0,0,1-3.2.534,14.413,14.413,0,0,1-2.777-.519c-3.873-1.217-4.2-1.79-4.2-2.234,0-.228.118-.476,1.656-1.617,1-.742,1.775-1.345,2.3-1.794a4.024,4.024,0,0,1,1.6-.916,3.153,3.153,0,0,1,1.956.3,4.462,4.462,0,0,0,1.287.426,7.834,7.834,0,0,1,2.031.584,18.406,18.406,0,0,0,5.429.546c2.616,0,8.043-.38,16.13-1.128,8.238-.762,13.312-1.132,15.51-1.132l6.369.794c.647.117.816.007.844-.016a.1.1,0,0,0,.032-.069,3.406,3.406,0,0,0-.165-.416l-.078-.078c-.615-.616-1.954-2.261-3.982-4.89-6.294-7.491-10.185-12.984-11.558-16.319-.641-.986-.763-2.589-.371-4.9a14.817,14.817,0,0,1,3.461-6.877c1.114-1.349,2.034-2.018,2.81-2.038a1.819,1.819,0,0,1,1.571.16,26.277,26.277,0,0,0,2.85.983c5.681,1.363,9.7,4.175,11.922,8.354l.208.178c-.01-3.086-.084-5.384-.223-6.835-.148-1.559-.226-2.916-.228-4.035q-.227-.781-.5-1.848a41.969,41.969,0,0,0-1.175-4.033A7.361,7.361,0,0,0,669.756,150a8.547,8.547,0,0,0-3.268-2.01c-2.181-.8-2.358-1.125-2.358-1.435,0-.156.064-.663.889-.663l3.613.672c1.764-.4,2.987-3.339,3.637-8.748.036-.341.076-.657.117-.96l-.1-.236a8.1,8.1,0,0,0-3.483-4.816,6.257,6.257,0,0,0-2.025-.521,8.727,8.727,0,0,0-4.13.772,52.081,52.081,0,0,1-7.036,2.27,7.448,7.448,0,0,1-5.432-.135l-.083-.06-.126-.126.021-.225c.047-.22.1-.447,2.7-1.427.772-.232,1.484-.457,2.16-.681,1.394-.588,3.022-1.345,4.816-2.242a19.638,19.638,0,0,0,7.459-5.9,17.621,17.621,0,0,0,2.306-4.575v-.766a30.192,30.192,0,0,0,.565-4.633c-.035-.963-.256-1.594-.658-1.865a1.642,1.642,0,0,0-1.454,0l-.633.528c-.419.421-.933.97-1.548,1.661L664.08,116.1l-.565.141c-1.661.554-4.184-.08-7.69-1.949l-.172-.092v-.308c0-.205,0-.383,2.16-2.064a12.212,12.212,0,0,1,8.231-2.441h2.7c4.225.467,6.9,2.482,7.995,5.99a8.665,8.665,0,0,1,.223,1.617,2.369,2.369,0,0,1,.131.74c0,3.566-2.293,6.889-6.815,9.877-.891.6-1.418.953-1.567,1.063a3.445,3.445,0,0,0-.359.308,1.194,1.194,0,0,1-.25.193.917.917,0,0,0,.642.214,14.127,14.127,0,0,1,7.285,2.136,10.276,10.276,0,0,1,2.021,1.549,4.994,4.994,0,0,1,.92.7,3.853,3.853,0,0,1,1.4,2.72c0,2.044-1.533,5.392-4.687,10.234a7.865,7.865,0,0,0-1.084,2.035c0,.04.016.465,1.818,2.066,2.735,2.734,4.1,4.78,4.178,6.271a6.647,6.647,0,0,1-.084,1.543c.323,2.306.579,5.837.762,10.5,0,.627-.185,2.671-.567,6.262L680.485,178a18.505,18.505,0,0,1-.115,2.391l0,2.779a42.916,42.916,0,0,0,.448,6.057,134.8,134.8,0,0,1,1.922,16.411,8.868,8.868,0,0,1,.672,1.868c11.328,53.567,17.338,123.243,17.864,207.1.45,74.556-6.054,146.4-19.331,213.533a20.292,20.292,0,0,1-1.38,2.855l-.056.481,2.813,1.042c7.177,2.343,13.279,7.022,18.12,13.9,2.36,2.818,3.526,5.552,3.449,8.107,0,.122,0,.368-1.933,7.365-1.276,4.615-2.38,8.4-3.28,11.256m-19.9-39.78a3.657,3.657,0,0,1,.922.157c2.019.388,4.7,2.265,8.167,5.733,7.638,7.866,11.509,16.155,11.509,24.639l-.629,6.842c.755-2.5,1.624-5.52,2.592-9.019,1.549-5.611,1.894-7.02,1.909-7.213.071-2.39-1.044-4.978-3.315-7.69-4.776-6.787-10.765-11.385-17.819-13.687l-3.3-1.223.169-1.2a19.233,19.233,0,0,0,1.351-2.761c13.249-67.03,19.749-138.828,19.3-213.341-.526-83.813-6.531-153.444-17.848-206.962a8.265,8.265,0,0,0-.653-1.788l-.034-.068v-.077c-.008-2.845-.652-8.36-1.916-16.391a43.671,43.671,0,0,1-.456-6.153v-2.824a18.816,18.816,0,0,0,.113-2.374l.227-2.627c.374-3.524.563-5.6.563-6.188-.183-4.662-.44-8.19-.763-10.472l-.008-.055.011-.053a5.972,5.972,0,0,0,.084-1.438c-.072-1.3-1.409-3.267-3.975-5.834-1.9-1.687-2.083-2.295-2.01-2.665a8.531,8.531,0,0,1,1.175-2.26c3.042-4.67,4.583-7.995,4.583-9.883a3.243,3.243,0,0,0-1.2-2.252,4.3,4.3,0,0,0-.834-.628l-.069-.054a9.556,9.556,0,0,0-1.921-1.478,13.491,13.491,0,0,0-6.953-2.044,1.54,1.54,0,0,1-1.134-.435.7.7,0,0,1-.283-.641.423.423,0,0,1,.317-.3.513.513,0,0,0,.248-.141,3.956,3.956,0,0,1,.43-.369c.16-.119.681-.473,1.6-1.084,4.33-2.861,6.524-6,6.524-9.336a1.827,1.827,0,0,0-.112-.58l-.017-.093a7.967,7.967,0,0,0-.2-1.515c-1.016-3.261-3.441-5.072-7.4-5.511l-2.676,0a11.635,11.635,0,0,0-7.819,2.3,20.555,20.555,0,0,0-1.822,1.522c3.159,1.65,5.491,2.244,6.939,1.759l.363-.091,1.513-2.054c.643-.724,1.165-1.282,1.614-1.731l.8-.641a2.263,2.263,0,0,1,2.09.049,2.819,2.819,0,0,1,.944,2.391,29.9,29.9,0,0,1-.57,4.7l.005.822-.019.053a18.339,18.339,0,0,1-2.419,4.8,20.266,20.266,0,0,1-7.7,6.09c-1.8.9-3.439,1.662-4.869,2.264-.7.236-1.423.463-2.18.69a20.364,20.364,0,0,0-1.994.832,7.3,7.3,0,0,0,4.524-.1,53.256,53.256,0,0,0,6.938-2.232,9.345,9.345,0,0,1,4.493-.829,6.649,6.649,0,0,1,2.273.608A8.7,8.7,0,0,1,672.9,136.4l.132.32.007.132c-.044.322-.088.659-.127,1.031-.7,5.867-2.083,8.915-4.217,9.325l-.06.011-3.676-.689a.7.7,0,0,0-.109.013,8.91,8.91,0,0,0,1.862.834,9.18,9.18,0,0,1,3.512,2.169,8,8,0,0,1,1.765,2.6,42.58,42.58,0,0,1,1.2,4.1q.277,1.084.506,1.871l.013.091c0,1.106.077,2.459.225,4.019.151,1.581.227,4.138.227,7.6v.705l-1.4-1.232c-2.129-4.039-6.012-6.759-11.541-8.085a26.682,26.682,0,0,1-2.988-1.034l-.105-.069c-.064-.065-.3-.2-1.057-.027l-.07.008c-.393,0-1.118.313-2.348,1.8a14.179,14.179,0,0,0-3.32,6.572c-.361,2.129-.264,3.627.289,4.456l.03.057c1.337,3.27,5.2,8.715,11.474,16.187,1.962,2.543,3.265,4.148,3.883,4.785.186.1.31.374.472.858l.016.1a.762.762,0,0,1-.269.613,1.633,1.633,0,0,1-1.358.158l-6.31-.789c-2.108,0-7.306.383-15.41,1.132s-13.554,1.131-16.19,1.131a18.638,18.638,0,0,1-5.648-.584,8.607,8.607,0,0,0-1.812-.546,4.452,4.452,0,0,1-1.538-.477,2.578,2.578,0,0,0-1.546-.267,3.455,3.455,0,0,0-1.337.779c-.535.459-1.321,1.072-2.336,1.822a9.63,9.63,0,0,0-1.371,1.131c.108.14.686.626,3.705,1.575a13.8,13.8,0,0,0,2.633.5,9.97,9.97,0,0,0,2.945-.5,16.337,16.337,0,0,1,3.083-.74c1.512-.265,3.305-.513,5.33-.738s6.824-.649,14.7-1.3c7.716-.635,12.48-1.09,14.159-1.353a36.3,36.3,0,0,1,5.531-.4,11.647,11.647,0,0,1,4.366.592,29.32,29.32,0,0,1,3.374,1.829c1.509.952,2.509,2.775,2.975,5.418l.677,3.5a7.358,7.358,0,0,0,.5,1.3l.02.066c.08.407.168.846.271,1.345,4.5,21.3,8.418,51.278,11.644,89.086,2.7,31.257,4.2,61.987,4.466,91.333s-.366,58.832-1.866,87.656c-1.5,28.856-3.745,55.934-6.669,80.482-2.925,24.564-6.463,47.176-10.513,67.208a15.456,15.456,0,0,0-.332,3.391l.313,1.046,0,.06c-.145,1.877-1.369,3.944-3.642,6.147l.721.561a6.624,6.624,0,0,0,2.626.383,7.3,7.3,0,0,0,3.786-1.195c1.247-.761,1.879-1.543,1.879-2.322a.536.536,0,0,1,.211-.439.823.823,0,0,1,.52-.145M673.607,197.5c-.655,0-2.092-.934-7.439-8.212-3.949-5.378-6.526-9.33-7.659-11.751a8.094,8.094,0,0,1-.369-3.075,18.287,18.287,0,0,1,1.6-6.336c1.136-2.838,2.165-4.159,3.24-4.159.977,0,1.923,1.023,2.894,3.127,2.1,3.905,4.244,10.511,6.35,19.613v0c.736,3.308,1.421,6.464,2.036,9.382a1.35,1.35,0,0,1-.1,1.162.675.675,0,0,1-.553.247m-10.623-32.885c-.424,0-1.33.487-2.637,3.751a17.977,17.977,0,0,0-1.558,6.1,7.37,7.37,0,0,0,.3,2.794c1.119,2.388,3.675,6.3,7.6,11.648,5.268,7.173,6.591,7.948,6.915,7.948.047-.005.134-.12.022-.622-.615-2.919-1.3-6.073-2.034-9.377-2.093-9.047-4.212-15.6-6.3-19.469-1.057-2.291-1.84-2.768-2.313-2.768" transform="translate(-214.744 -38.402)" fill="#fff"/><path d="M733.548,98.8q-.227.228-1.581,2.147a6.077,6.077,0,0,0-1.356,2.769q0,.847,4.633,4.012l-1.017,1.356q-3.165,4.182-3.277,5.2-.114.339,2.034,2.034a11.455,11.455,0,0,0,2.543,2.034,5.157,5.157,0,0,0,1.356.282,1.441,1.441,0,0,0,1.3-.848q3.84-4.746,3.842-6.1t-4.859-3.842l.791-1.243a19.8,19.8,0,0,0,2.033-2.26,5.866,5.866,0,0,0,1.7-3.278q0-1.92-4.294-3.616A2.834,2.834,0,0,0,735.526,97q-.962.114-1.978,1.809" transform="translate(-256.49 -34.046)" fill="#fff"/><path d="M736.792,118.788c-.036,0-.073,0-.111,0a5.524,5.524,0,0,1-1.442-.3,9.883,9.883,0,0,1-2.655-2.1c-2.054-1.62-2.215-2.029-2.13-2.338.067-.491.515-1.6,3.338-5.326l.812-1.084c-3.952-2.719-4.495-3.594-4.495-4.088a6.227,6.227,0,0,1,1.415-2.956c1.129-1.6,1.459-2.018,1.586-2.158.735-1.212,1.455-1.845,2.2-1.933a3.163,3.163,0,0,1,2.075.5c2.975,1.169,4.447,2.45,4.447,3.892,0,.916-.58,2.056-1.771,3.485a20.036,20.036,0,0,1-2.041,2.278l-.568.892c4.221,2.2,4.718,3.317,4.718,3.968,0,.631-.406,1.97-3.914,6.306a1.751,1.751,0,0,1-1.465.971m-5.7-4.654a8.258,8.258,0,0,0,1.91,1.754,10.772,10.772,0,0,0,2.454,1.984,4.854,4.854,0,0,0,1.27.264c.356.029.688-.2,1-.7,3.139-3.883,3.792-5.365,3.792-5.93,0-.432-.608-1.467-4.681-3.554l-.318-.163,1.077-1.64a18.177,18.177,0,0,0,1.964-2.2,5.641,5.641,0,0,0,1.62-3.069c0-1.128-1.375-2.243-4.088-3.315a2.582,2.582,0,0,0-1.709-.432c-.53.063-1.115.62-1.737,1.653l-.049.062c-.077.077-.38.453-1.546,2.105-1.071,1.52-1.3,2.243-1.3,2.582,0,.115.236.84,4.491,3.743l.28.191-1.22,1.628c-2.553,3.372-3.159,4.6-3.214,5.029" transform="translate(-256.315 -33.871)" fill="#fff"/><path d="M612.054,26.725c-.6.076-.9.226-.9.452q0,.792,3.334,1.526a26.491,26.491,0,0,0,4.35.735q6.555-1.468,24.692-1.469t20.623,2.485c.153.378.19.528.113.452s-.339-.036-.79.114-4.86,2.525-13.221,7.119a160.755,160.755,0,0,0-24.184,16.386q-7.231,6.1-7.232,7.8a1.91,1.91,0,0,0,.508,1.413q.509.508,5.142,1.412a40.272,40.272,0,0,0,7.232.9q1.695,0,3.051-4.181.792-2.259,1.017-2.825l1.583-3.842-.339-.452a3.822,3.822,0,0,1-.4-.282,3.969,3.969,0,0,1,.453-1.13q.509-1.073,15.424-10.961t16.612-9.889q.791,0,3.956,2.2a32.433,32.433,0,0,1,4.633,3.729,6.239,6.239,0,0,1,1.752,2.825,31.923,31.923,0,0,1,.452,4.407q.169,3.109.4,5.029l2.713.452a27.225,27.225,0,0,0,3.955.282,1.576,1.576,0,0,0,1.469-.734V49.665a36.608,36.608,0,0,0-.452-5.99q-.453-2.712-.96-7.119a16.65,16.65,0,0,0-1.526-6.1q-1.356-3.276-7.8-3.277a23.509,23.509,0,0,0-5.538,1.018,24.154,24.154,0,0,1-4.972,1.016,15.711,15.711,0,0,1-3.729-.677Q655.11,25.6,642.9,25.595h-12.43A22.193,22.193,0,0,1,622,24.3a16.911,16.911,0,0,0-3.616-1.3q-.564,0-2.2,1.526a9.647,9.647,0,0,1-4.124,2.2m64.526,1.808q1.584-.112,1.581,4.972c0,.6-.074.943-.226,1.018s-.413-.018-.791-.283a19.628,19.628,0,0,0-2.6-1.3q-2.033-.9-2.034-2.148,0-.339,1.583-1.3a5.372,5.372,0,0,1,2.486-.961" transform="translate(-214.552 -8.074)" fill="#fff"/><path d="M631.541,66.2a40.715,40.715,0,0,1-7.294-.91c-4.193-.816-5.04-1.23-5.31-1.5a2.234,2.234,0,0,1-.6-1.642c0-.792.761-2.487,7.347-8.045a161.891,161.891,0,0,1,24.237-16.423c12.562-6.9,13.1-7.083,13.275-7.142a4.421,4.421,0,0,1,.445-.127c-1.768-1.522-8.59-2.292-20.287-2.292-12.007,0-20.29.491-24.621,1.461l-.071.008a26.353,26.353,0,0,1-4.42-.742c-2.515-.554-3.589-1.106-3.589-1.843,0-.608.849-.731,1.165-.77a9.357,9.357,0,0,0,3.966-2.123c1.536-1.429,2.1-1.612,2.425-1.612.293,0,.981.151,3.743,1.325A22.006,22.006,0,0,0,630.3,25.1h12.43c8.136,0,15.091.995,20.676,2.956a15.465,15.465,0,0,0,3.621.66,24.127,24.127,0,0,0,4.886-1.006,23.926,23.926,0,0,1,5.624-1.029c4.418,0,7.142,1.17,8.1,3.478.687,1.138,1.2,3.177,1.548,6.19.338,2.932.661,5.322.958,7.1a37.05,37.05,0,0,1,.456,6.042v1.094l-.034.068a1.87,1.87,0,0,1-1.742.914,26.717,26.717,0,0,1-4.01-.285l-2.968-.494-.029-.243c-.151-1.292-.284-2.99-.4-5.049a31.765,31.765,0,0,0-.445-4.356,5.957,5.957,0,0,0-1.669-2.669,32.323,32.323,0,0,0-4.585-3.688c-2.679-1.867-3.512-2.145-3.77-2.145-.728,0-4.17,1.706-16.432,9.834C639.621,51.02,637.387,52.926,637.2,53.3c-.225.473-.332.727-.384.86.055.038.125.086.212.142l.081.077.45.6-1.653,4.014c-.146.367-.477,1.286-1.01,2.808-.959,2.958-2.058,4.4-3.358,4.4m32.381-35.18a2.417,2.417,0,0,0-.524.132c-.3.1-2.826,1.413-13.167,7.1A161.232,161.232,0,0,0,626.1,54.6c-6.189,5.223-7.113,6.97-7.113,7.546a1.6,1.6,0,0,0,.413,1.184c.132.132.881.524,4.975,1.322a40.162,40.162,0,0,0,7.17.9c.955,0,1.9-1.368,2.743-3.957.539-1.537.872-2.465,1.023-2.844l1.514-3.676-.195-.259a2.8,2.8,0,0,1-.4-.289c-.186-.189-.173-.327.385-1.5.254-.536,2.249-2.282,15.538-11.093,13.445-8.911,16.022-9.942,16.791-9.942.384,0,1.23.234,4.142,2.262a32.942,32.942,0,0,1,4.681,3.77A6.558,6.558,0,0,1,679.6,41a32.119,32.119,0,0,1,.459,4.458c.105,1.919.228,3.52.366,4.767l2.471.412a27.374,27.374,0,0,0,3.885.279,1.358,1.358,0,0,0,1.16-.494V49.49a36.483,36.483,0,0,0-.447-5.936c-.3-1.792-.623-4.193-.963-7.135a16.449,16.449,0,0,0-1.482-5.973c-.866-2.085-3.389-3.12-7.519-3.12a23.383,23.383,0,0,0-5.452,1.006,24.09,24.09,0,0,1-5.057,1.029,15.852,15.852,0,0,1-3.814-.69c-5.537-1.944-12.421-2.926-20.482-2.926H630.3a22.628,22.628,0,0,1-8.6-1.326,15.579,15.579,0,0,0-3.489-1.273c-.1,0-.548.1-1.982,1.438a10,10,0,0,1-4.26,2.279l-.045.009c-.507.064-.623.167-.634.177.018,0,.125.507,3.094,1.162a27.419,27.419,0,0,0,4.245.727c4.387-.975,12.706-1.469,24.727-1.469,12.3,0,19.116.844,20.852,2.58l.072.108c.168.418.279.694.025.862l-.221.146Zm-.064-.06.012.01ZM677.644,34.7a1.669,1.669,0,0,1-.86-.369,19.592,19.592,0,0,0-2.544-1.268c-1.478-.657-2.228-1.479-2.228-2.445,0-.321.291-.7,1.739-1.576a5.646,5.646,0,0,1,2.644-1.008,1.155,1.155,0,0,1,.9.328c.688.64,1.022,2.265,1.022,4.968,0,.788-.119,1.167-.409,1.309a.565.565,0,0,1-.259.06M676.4,28.683a5.146,5.146,0,0,0-2.319.914c-1.256.764-1.414,1.023-1.433,1.067.007.639.627,1.262,1.849,1.805a19.517,19.517,0,0,1,2.654,1.33,1.591,1.591,0,0,0,.439.241,2.465,2.465,0,0,0,.068-.71c0-3.086-.443-4.147-.814-4.494a.523.523,0,0,0-.42-.154Z" transform="translate(-214.377 -7.899)" fill="#fff"/><path d="M799.91,887.139c-1.425,0-2.76-1.005-3.759-2.83a11.013,11.013,0,0,1-1.321-4.961,11.453,11.453,0,0,1,.625-4.046,6.458,6.458,0,0,1,5.128-3c2.3,0,4.991,1.564,5.027,5.973a12.387,12.387,0,0,1-.712,4.274,8.7,8.7,0,0,1-1.917,3.159A4.356,4.356,0,0,1,799.91,887.139Zm-4.058-8.642c-.015.29-.022.578-.022.85a9.953,9.953,0,0,0,1.2,4.481c.472.863,1.474,2.31,2.882,2.31A3.388,3.388,0,0,0,802.271,885a9.705,9.705,0,0,0,2.339-6.721c-.03-3.672-2.1-4.981-4.027-4.981a5.5,5.5,0,0,0-4.238,2.459,6.07,6.07,0,0,0-.427,1.885,4.708,4.708,0,0,1,1.1-1.49,4.779,4.779,0,0,1,3.268-1.349,4.2,4.2,0,0,1,3.047,1.374,4.122,4.122,0,0,1,1.2,2.7,6.986,6.986,0,0,1-1.257,3.657,3.958,3.958,0,0,1-3.009,2.026c-1.333,0-2.518-1.007-3.428-2.913A12.013,12.013,0,0,1,795.852,878.5Zm.963-.406c.021.917,1.264,5.473,3.457,5.473,1.546,0,3.266-2.792,3.266-4.684a3.434,3.434,0,0,0-3.249-3.077A4.07,4.07,0,0,0,796.815,878.091Z" transform="translate(-279.211 -306.409)" fill="#fff"/><path d="M777.277,887.731l-.555-.13a4.869,4.869,0,0,1-.805-.268l-.286-.12-.022-.347c-.016-.25-.033-.508-.033-.754a6.031,6.031,0,0,1,1.12-3.841,4.193,4.193,0,0,1,3.424-1.515,7.265,7.265,0,0,1,1.332.132,21.059,21.059,0,0,1-1.244-6.786c0-1.053.147-1.737,1.551-3.869l.261-.4,1.02.6-.082.357a8.9,8.9,0,0,0-.212,2.013c0,1.992.269,4.431,3.521,12.3l.094.227-.122.213a19.606,19.606,0,0,1-1.153,1.844l-.15.2h-.908l-.114-.342a8.811,8.811,0,0,0-1.092-2.163c-.783-.987-2.56-1.037-2.908-1.037-1.034,0-2.321.539-2.578,3.109Zm2.635-4.676c.6,0,2.65.1,3.692,1.416a8.9,8.9,0,0,1,1.015,1.835c.209-.323.415-.67.629-1.042-.849-2.058-1.723-4.232-2.38-6.333a20.87,20.87,0,0,1-1.122-6.124q0-.343.019-.668a3.343,3.343,0,0,0-.557,1.964,20.951,20.951,0,0,0,1.459,7.248l.082.236-.376.559-.347-.1a7.2,7.2,0,0,0-1.9-.292c-1.282,0-3.405.531-3.537,4.008A3.362,3.362,0,0,1,779.912,883.055Z" transform="translate(-272.452 -305.605)" fill="#fff"/><path d="M761.334,887.747h-.752l-.087-.392A53.691,53.691,0,0,0,755,873.012l-.165-.293.209-.263c.513-.647.928-1.2,1.345-1.806l.149-.215h.743l.147.231a47.647,47.647,0,0,1,4.346,10.906c.96-3.273,2.517-7.967,3.668-10.824l.126-.313h.8l.14.27c.1.2.195.374.281.537.313.6.539,1.025.79,1.626l.089.212-.1.205a62.408,62.408,0,0,0-4.488,12.66l-.029.124-.085.1c-.444.5-1.011,1.016-1.425,1.4Zm-5.3-14.932a54.94,54.94,0,0,1,5.269,13.6c.278-.26.574-.547.828-.823a63.837,63.837,0,0,1,4.434-12.544c-.166-.377-.329-.7-.528-1.079-1.326,3.454-3.024,8.737-3.778,11.573l-.1.371h-.86l-.083-.4a51.228,51.228,0,0,0-4.339-11.823C756.616,872.058,756.342,872.423,756.036,872.814Z" transform="translate(-265.206 -305.754)" fill="#fff"/></g></g></g></svg>