<svg xmlns="http://www.w3.org/2000/svg" xmlns:xlink="http://www.w3.org/1999/xlink" width="548.683" height="623.999" viewBox="0 0 548.683 623.999"><defs><clipPath id="a"><rect width="548.683" height="623.999" fill="none"/></clipPath></defs><g clip-path="url(#a)"><path d="M113.523,824.855v.363q0,2.177-2.057,5.807a22.391,22.391,0,0,0,2.541.241,11.568,11.568,0,0,1,2.3.363q7.986,1.333,12.4,3.811t7.2,8.409a28.475,28.475,0,0,1,2.782,12.219q0,9.681-7.138,14.519a20.9,20.9,0,0,1-9.678,2.238,27.141,27.141,0,0,1-9.437-1.331q-3.871-1.388-4.839-2.721c-.161-.161-.08-.243.242-.243a25.213,25.213,0,0,0,8.347,1.937,8.9,8.9,0,0,0,5.687-1.331q8.226-4.6,8.226-14.639a37.648,37.648,0,0,0-1.693-10.4q-1.7-5.807-4.476-8.226-.726-.727-2.42-2.178a16.282,16.282,0,0,0-2.6-.363,17.756,17.756,0,0,0-2.9,0q-1.27.122-10.707,1.633t-19.055,2.3q-9.617.788-18.994,1.754a159.725,159.725,0,0,1-16.091.968,25.067,25.067,0,0,1-11.8-2.661,3.863,3.863,0,0,1,1.694-.122H44.2A219.971,219.971,0,0,0,66.158,835.8q13.37-1.389,16.333-1.754t8.045-1.21q7.866-1.089,11.372-3.629a8.673,8.673,0,0,0,2.481-3.146,18.306,18.306,0,0,1,2.117-3.387,3.438,3.438,0,0,1,2.782-1.331,3.972,3.972,0,0,1,2.843,1.089,4.391,4.391,0,0,1,1.391,2.419" transform="translate(-14.49 -302.379)" fill="#fff"/><path d="M144.652,563.536l-.363-1.21a16.888,16.888,0,0,1,.363-3.751q6.533-32.3,11.251-71.924t7.138-86.139q2.419-46.518,2-93.822t-4.779-97.755q-5.2-60.976-12.461-95.334a24.808,24.808,0,0,1-.727-4.355,2.7,2.7,0,0,1,1.573-2.783q1.331-.725,1.573-.847a3.791,3.791,0,0,1,2.9,1.331,9.744,9.744,0,0,1,1.936,3.872q18.265,86.38,19.115,221.64Q174.9,452.718,153.484,561q-1.453,3.508-2.421,4.113A4.576,4.576,0,0,1,148.4,566.2a3.568,3.568,0,0,1-3.751-2.662" transform="translate(-53.12 -38.883)" fill="#fff"/><path d="M146.928,64.344l-1.936,3.993a101.183,101.183,0,0,0-4.839,12.824q-.241.607.181.665a1.053,1.053,0,0,1,.545.181,13.116,13.116,0,0,1,4.173,4.113,7.957,7.957,0,0,1,1.391,3.872q0,3.748-2.783,3.992-3.748,0-4.355-5.2a11.485,11.485,0,0,0-2.177-5.081,13.2,13.2,0,0,0-4.839-3.146,19.978,19.978,0,0,1-5.747-3.629q-2.359-2.178-2.359-3.387,0-2.419,3.387-4.718a46.787,46.787,0,0,0,5.142-4.477,24.289,24.289,0,0,0,2.6-5.2q1.333-4.6,4.355-4.839,1.089,0,3.267,2.42a14.923,14.923,0,0,1,.241,2.359,7.416,7.416,0,0,1-.6,2.48l2.419.968q1.934.726,1.936,1.815M131.26,69.063a3.77,3.77,0,0,0-1.633,2.9,6.786,6.786,0,0,0,1.21,3.508q1.21,1.937,1.936,1.936.725-.241,1.815-3.024,2.177-5.808,2.238-6.291c.042-.322-.019-.484-.181-.484h-1.331a6.779,6.779,0,0,0-4.053,1.452" transform="translate(-45.718 -19.992)" fill="#fff"/><path d="M138.463,34.793a15.661,15.661,0,0,1,1.573,6.472,4.875,4.875,0,0,1-1.27,3.509,3.6,3.6,0,0,1-2.42,1.029,4.49,4.49,0,0,1-2.238-.545,3.356,3.356,0,0,1-1.451-1.875,17.746,17.746,0,0,1-.6-2.419,22.223,22.223,0,0,0-.969-4.235q-1.815-6.533-3.508-6.533-.726,0-1.755,1.754a6.4,6.4,0,0,0-1.028,3.146,10.148,10.148,0,0,0,.545,3.084q.544,1.693-.061,1.694a17.677,17.677,0,0,1-3.69-1.209,26.7,26.7,0,0,1-3.811-1.694q-.726-.481-1.755-3.629a18.528,18.528,0,0,1-1.028-5.687,17.175,17.175,0,0,1,4.235-11.493,2.708,2.708,0,0,1,2.541-1.029q1.814.063,5.2,2.239a15.42,15.42,0,0,1,2.3,1.935q1.211.97,2.3-4.477a16.774,16.774,0,0,1,1.452-5.2,2.5,2.5,0,0,1,2.239-1.089,3.043,3.043,0,0,1,2.48,1.21,4.338,4.338,0,0,1,.967,2.783v.725a12.766,12.766,0,0,1-3.145,8.106,16.317,16.317,0,0,1-2.9,2.541,21.832,21.832,0,0,0,2.177,3.75,53.558,53.558,0,0,1,3.629,7.139" transform="translate(-42.334 -3.144)" fill="#fff"/><path d="M67.149,13.5a28.544,28.544,0,0,1-2.419,3.387q-1.693,2.116-2.3,2.117a12.275,12.275,0,0,1-3.509-1.815q-2.9-1.814-2.9-3.206t2.117-3.811q2.118-2.419,3.811-2.419t4.84,2.057a3.007,3.007,0,0,1,1.028,1.694,3.794,3.794,0,0,1-.665,2m49.966-4.295a3.772,3.772,0,0,1-1.21,2.843,3.469,3.469,0,0,1-2.3,1.149,7.283,7.283,0,0,1-1.573-.121,1.808,1.808,0,0,1-.847-.484,1.9,1.9,0,0,1-.483-.726,31.988,31.988,0,0,1-1.573-3.024q-3.144-6.653-5.686-6.413-2.056,0-10.767,4.6A30.28,30.28,0,0,0,88.5,9.813q-2.722,2.056-3.69,2.662h-.6a24.546,24.546,0,0,1-5.021-.968q-3.69-.971-3.69-1.331.606-1.329,6.775-4.6Q88.927,1.468,102.234.5h2.42a11.929,11.929,0,0,1,5.2,1.271,16.884,16.884,0,0,0,2.057,1.149q5.2,2.9,5.2,6.291" transform="translate(-20.623 -0.183)" fill="#fff"/><path d="M414.338,845.785v-7.017l-.967-15.123q.241,0,1.149,2.238t4.537,9.135a33.213,33.213,0,0,1,3.992,13.792V855.1a7.092,7.092,0,0,1-.181,1.452,18.677,18.677,0,0,0-.3,2.117q-.122,1.27-.242,2.239-2.663,26.738-16.454,35.689-8.229,5.444-22.382,5.2a65.863,65.863,0,0,1-38.109-11.977Q336.3,883.171,333.764,877l-.726-1.089q-.6,0-.363,5.2v9.921l1.089,2.419a56.182,56.182,0,0,0,2.419,5.2q2.058,2.178.847,2.3a23.813,23.813,0,0,1-7.622-1.451q-4.474-1.815-4.476-7.26v-2.057q.244-1.33.967-11.069t.727-18.813l-.6-10.042q0-1.329.363-1.33a10.525,10.525,0,0,1,2.843.786q2.118.789,2.9,1.149t.786,2.6a49.356,49.356,0,0,0,1.693,9.134q4.115,17.059,13.187,25.649a42.652,42.652,0,0,0,14.579,8.529,52.87,52.87,0,0,0,17.724,2.964,31.765,31.765,0,0,0,17.059-4.96,29.619,29.619,0,0,0,11.735-13.429q2.419-5.444,3.931-15.425a134.32,134.32,0,0,0,1.513-20.143" transform="translate(-119.624 -303.225)" fill="#fff"/><path d="M387.547,847.6l.363-5.687a26.384,26.384,0,0,0-.968-6.775,40.914,40.914,0,0,0-12.219-17.3q-7.866-7.014-12.1-7.138-2.177,0,.968,2.179t3.146,4.6a1.9,1.9,0,0,1-.242,1.21q-1.452,4.6-7.865,4.537a22.063,22.063,0,0,1-12.219-3.933q-2.178-1.693-2.238-2.963t2.238-3.691q4.113-4.111,11.735-4.113a45.8,45.8,0,0,1,7.621,1.089q11.856,3.147,21.777,13.065,4.474,4.478,4.476,6.836a74.493,74.493,0,0,1-1.694,10.767q-1.7,8.408-2.419,8.408-.362.242-.363-1.088m-33.089-26.859a2.273,2.273,0,0,0,1.633-1.028,2.973,2.973,0,0,0,.847-1.633,1.359,1.359,0,0,0-.665-1.089,2.512,2.512,0,0,0-1.512-.483,2.5,2.5,0,0,0-2.3,2.3,1.789,1.789,0,0,0,.6,1.391,2.023,2.023,0,0,0,1.391.544" transform="translate(-126.708 -297.657)" fill="#fff"/><path d="M391.408,799.8l.847-9.195q0-13.549-12.219-26.132-5.444-5.444-8.59-6.049-1.33-.363-1.331.121,0,1.451-2.177,2.782a8.1,8.1,0,0,1-4.235,1.331,7.107,7.107,0,0,1-3.025-.484l-1.089-.847q4.114-3.87,4.113-7.017a7.056,7.056,0,0,1,.847-3.387,2.644,2.644,0,0,1,2.42-1.573,4.111,4.111,0,0,1,4.355,3.63l-.363,3.145,3.267,1.21q11.493,3.751,19.236,14.76,3.748,4.477,3.629,8.469,0,.363-2.057,7.8t-3.509,12.038Z" transform="translate(-132.383 -275.875)" fill="#fff"/><path d="M365.888,491.159l-.363-1.21a16.89,16.89,0,0,1,.363-3.751q6.534-32.3,11.252-71.923t7.137-86.14q2.419-46.517,2-93.821t-4.779-97.755q-5.2-60.976-12.461-95.334a24.815,24.815,0,0,1-.727-4.355,2.7,2.7,0,0,1,1.573-2.783q1.331-.726,1.573-.847a3.793,3.793,0,0,1,2.9,1.331,9.753,9.753,0,0,1,1.936,3.872q18.266,86.381,19.115,221.641.725,120.256-20.688,228.535-1.452,3.508-2.42,4.113a4.58,4.58,0,0,1-2.661,1.089,3.568,3.568,0,0,1-3.751-2.662" transform="translate(-134.568 -12.237)" fill="#fff"/><path d="M349.972,19.836l-.6.363a15.851,15.851,0,0,0-3.872,3.146l-2.661,2.42h-4.477q-3.87,0-4.234-.605v-.121q0-.6,2.117-2.359a20.428,20.428,0,0,1,4.9-2.964q2.785-1.208,8.469-1.21h1.209a13.042,13.042,0,0,1,8.711,3.508q3.874,3.389,3.993,9.437-1.452,3.748-4.719,2.3a4.23,4.23,0,0,1-2.056-2.783l-.484-2.3c-.243-1.129-.442-1.694-.605-1.694a20.719,20.719,0,0,0-3.085-5.807,3.641,3.641,0,0,0-2.6-1.331m26.8-4.657q2.6,1.633,2.6,3.024a4.639,4.639,0,0,1-.423,2.177,31.217,31.217,0,0,1-2.239,3.146q-1.814,2.359-2.48,2.359a11.889,11.889,0,0,1-3.569-1.754q-2.9-1.753-2.9-2.964t2.057-3.932a12.192,12.192,0,0,1,3.025-3.206q1.331-.482,3.932,1.149" transform="translate(-123.008 -5.124)" fill="#fff"/><path d="M607.414,905.8q0,8.955-5.2,13.611t-14.4,4.657a35.876,35.876,0,0,1-8.953-1.33q-5.926-1.452-6.957-2.42t-.846-.786a2.673,2.673,0,0,0,.907.423q3.388,1.088,4.477,1.331a34.65,34.65,0,0,0,5.807.726,15.967,15.967,0,0,0,11.373-4.6,15.244,15.244,0,0,0,4.961-12.219,34.024,34.024,0,0,0-4.839-16.7Q587.088,877.5,579.951,877.5q-1.089,0-4.477,1.815a1.406,1.406,0,0,0-.726,1.391,35.558,35.558,0,0,0,.363,3.811v.726q0,4.476-2,6.9a6.883,6.883,0,0,1-5.625,2.419,15.483,15.483,0,0,1-12.461-5.807,3.288,3.288,0,0,1-1.089-2.661q.122-2.9,3.629-5.323,4.6-3.145,6.533-3.509a6.246,6.246,0,0,0,3.025-1.936.486.486,0,0,0,.121-.363,4.14,4.14,0,0,1,.484-1.088c.162-.243.363-.564.6-.969a2.941,2.941,0,0,1,2.6-.907,4.126,4.126,0,0,1,2.722.847,3.239,3.239,0,0,1,.847,2.479q0,.364,2.843.364a25.621,25.621,0,0,1,6.351.907,46.87,46.87,0,0,1,8.288,3.206,23.6,23.6,0,0,1,8.711,7.743,36.216,36.216,0,0,1,5.323,9.8,27.809,27.809,0,0,1,1.392,8.469m-69.686-7.5q5.806,3.509,5.565,4.476a9.935,9.935,0,0,1-1.935,3.267,12.628,12.628,0,0,1-1.936,2.48,2.941,2.941,0,0,1-2.9,1.029q-5.444-4.234-5.444-4.6,0-.6,2.419-3.871l2.42-3.388q0-.363-2.722-2.238t-2.722-2.238a3.624,3.624,0,0,1,.786-1.452q.788-1.089,1.633-2.238a16.014,16.014,0,0,1,1.21-1.512q1.089-1.815,2.117-2a2.325,2.325,0,0,1,1.754.3,11.773,11.773,0,0,1,4.477,4.113q.607.97-2.42,5.081Zm25.708-6.654a2.744,2.744,0,0,0,1.694-1.029,2.838,2.838,0,0,0,.786-1.875,2.63,2.63,0,0,0-.786-1.815,2.145,2.145,0,0,0-1.452-.847,1.97,1.97,0,0,0-1.391.847,4.753,4.753,0,0,0-.727,3.509q.971,1.333,1.876,1.21" transform="translate(-195.293 -321.022)" fill="#fff"/><path d="M588.083,613.32l-.363-1.21a16.888,16.888,0,0,1,.363-3.751q6.534-32.3,11.252-71.924t7.137-86.139q2.419-46.517,2-93.822t-4.779-97.754q-5.2-60.976-12.461-95.335a24.8,24.8,0,0,1-.727-4.355,2.7,2.7,0,0,1,1.573-2.783q1.331-.725,1.573-.847a3.793,3.793,0,0,1,2.9,1.331,9.748,9.748,0,0,1,1.936,3.872q18.267,86.381,19.115,221.64.725,120.257-20.688,228.536-1.452,3.508-2.42,4.113a4.579,4.579,0,0,1-2.661,1.089,3.568,3.568,0,0,1-3.751-2.662" transform="translate(-216.37 -57.211)" fill="#fff"/><path d="M572.167,137.408l-.6.363a15.851,15.851,0,0,0-3.872,3.146l-2.661,2.42h-4.477q-3.87,0-4.234-.605v-.121q0-.6,2.117-2.359a20.4,20.4,0,0,1,4.9-2.964q2.784-1.208,8.469-1.21h1.209a13.04,13.04,0,0,1,8.711,3.508q3.874,3.389,3.993,9.437-1.452,3.748-4.718,2.3a4.228,4.228,0,0,1-2.057-2.783l-.484-2.3c-.243-1.129-.442-1.694-.605-1.694a20.74,20.74,0,0,0-3.085-5.807,3.643,3.643,0,0,0-2.6-1.331m29.278,6.715a7.836,7.836,0,0,1-1.513,1.935,2.588,2.588,0,0,1-1.693.545,9.938,9.938,0,0,1-3.811-1.633q-2.786-1.634-2.783-2.6a9.418,9.418,0,0,1,1.694-3.085,48.835,48.835,0,0,1,3.145-4.174q-4.962-3.385-4.96-4.658t3.267-5.021q1.33-1.693,2.057-1.815a7.811,7.811,0,0,1,4.355,1.452q2.177,1.452,2.177,2.6a4.948,4.948,0,0,1-.544,2.238,11.361,11.361,0,0,1-1.21,1.935q-.666.848-1.694,1.936a4.749,4.749,0,0,0-1.149,1.573q4.96,2.178,4.961,4.234a3.747,3.747,0,0,1-.726,2.057q-.726,1.089-1.573,2.48" transform="translate(-204.809 -45.509)" fill="#fff"/><path d="M614.177,129.261l.847-9.195q0-13.548-12.219-26.132-5.444-5.444-8.59-6.049-1.33-.363-1.331.121,0,1.451-2.177,2.782a8.1,8.1,0,0,1-4.235,1.331,7.106,7.106,0,0,1-3.025-.484l-1.089-.847q4.114-3.87,4.113-7.017a7.056,7.056,0,0,1,.847-3.387,2.644,2.644,0,0,1,2.42-1.573,4.112,4.112,0,0,1,4.355,3.63l-.363,3.145L597,86.8q11.493,3.751,19.236,14.76,3.748,4.477,3.629,8.469,0,.363-2.057,7.8T614.3,129.866Z" transform="translate(-214.395 -29.014)" fill="#fff"/><path d="M569.874,65.1a4.256,4.256,0,0,1-.968,2.419,3.169,3.169,0,0,1-2.722,1.331,2.964,2.964,0,0,1-2.6-1.21,9.88,9.88,0,0,1-1.271-3.993,20.512,20.512,0,0,0-1.451-5.141q-1.028-2.36-1.271-3.085a17.5,17.5,0,0,1-6.9,1.693,16.571,16.571,0,0,1-10.647-4.173q-5.081-4.174-5.081-7.319,0-2.056,3.085-3.206a19.831,19.831,0,0,1,6.957-1.15h1.815a15.389,15.389,0,0,1,5.928,1.573l2.661.847q1.333.606,2.541-2.117a15.783,15.783,0,0,0,1.391-5.324,8.5,8.5,0,0,1,.786-3.569,2.176,2.176,0,0,1,2-.967,4.087,4.087,0,0,1,2.6.967,3.752,3.752,0,0,1,1.451,2.178,14.366,14.366,0,0,1-1.089,8.711,51.954,51.954,0,0,0-3.025,6.17q-.363.725,2.3,4.719,3.508,6.414,3.509,10.646M549.367,54.937q1.878,0,4.234-2.238t2.36-3.811a5.825,5.825,0,0,0-1.875-3.629,5.365,5.365,0,0,0-3.933-2.057,7.108,7.108,0,0,0-4.113,1.452,4.464,4.464,0,0,0-2.056,3.811,6.694,6.694,0,0,0,1.754,4.416,4.884,4.884,0,0,0,3.629,2.057M526.623,44.412q2.481,1.573,2.48,3.025t-2,4.355q-2,2.9-2.48,2.9-.968,0-3.69-1.875t-2.723-3.085a15.835,15.835,0,0,1,1.815-3.206q1.815-2.84,3.025-3.327,1.088-.363,3.569,1.21" transform="translate(-190.781 -11.674)" fill="#fff"/><path d="M551.824,36.533l-1.935-.847q-2.178-1.088-2.9-5.928a12.175,12.175,0,0,0-1.452-4.537q-.968-1.512-4.355-1.513a67.511,67.511,0,0,0-15.485,2.42q-.727.244-15.909,2.3t-17,2.419a15.428,15.428,0,0,1-2.843.363,30.9,30.9,0,0,1-5.142-1.029q-4.111-1.026-4.113-1.573t1.694-.907a6.977,6.977,0,0,0,3.387-2.057q2.422-1.814,3.327-1.875t8.65,3.327l4.113-.121q2.541-.119,18.268-2.54,15.244-2.3,19.115-2.3a41.969,41.969,0,0,1,7.743.726,8.194,8.194,0,0,1,6.049,3.509,9.4,9.4,0,0,1,1.573,5.323v.483a7.113,7.113,0,0,1-1.209,4.235q-.484.6-1.573.121" transform="translate(-176.965 -8.149)" fill="#fff"/><path d="M540.069,2.2l2.783-.363q9.681,0,11.131,1.693,0,.244-16.151,1.512T505.226,8.251q-16.451,1.937-16.755,1.936t-5.384-.726l-5.081-.725,4.839-.727q1.7-.24,6.775-.846l23.229-2.9Q533.78,2.2,540.069,2.2" transform="translate(-175.978 -0.677)" fill="#fff"/><path d="M787.03,960.366q0-.363,1.875-.363a3.42,3.42,0,0,0,2.964-1.573,8.061,8.061,0,0,0,1.089-4.6,41.9,41.9,0,0,0-1.209-8.469,35.575,35.575,0,0,0-2.481-7.925,4.251,4.251,0,0,0-4.053-2.48,12.164,12.164,0,0,0-3.025.6,71.223,71.223,0,0,1-18.026,2.177h-2.421q-3.144,0-3.145-.967,0-.6,1.875-.545a55.741,55.741,0,0,0,8.045-.907Q788,932.178,793.2,926.37a14.367,14.367,0,0,0,2.783-3.993q1.452-3.385,2.783-4.355a2.875,2.875,0,0,1,1.815-.363q4.112,0,4.113,3.751a7.408,7.408,0,0,1-.484,3.267q-2.177,5.2-14.76,8.953-1.088.362-1.089.544a17,17,0,0,0,3.751,1.149,8.926,8.926,0,0,1,4.476,2q1.452,1.392,3.327,6.473a32.258,32.258,0,0,1,1.875,11.251v1.694a5.888,5.888,0,0,1-2.117,3.811q-1.512,1.029-7.077.968t-5.565-1.149" transform="translate(-279.279 -337.837)" fill="#fff"/><path d="M819.085,660.806l-.363-1.21a16.888,16.888,0,0,1,.363-3.751q6.534-32.3,11.252-71.924t7.137-86.139q2.419-46.517,2-93.822t-4.779-97.754q-5.2-60.976-12.461-95.335a24.8,24.8,0,0,1-.727-4.355,2.7,2.7,0,0,1,1.573-2.783q1.331-.725,1.573-.847a3.793,3.793,0,0,1,2.9,1.331,9.749,9.749,0,0,1,1.936,3.872q18.267,86.381,19.115,221.64.725,120.257-20.688,228.536-1.452,3.508-2.42,4.113a4.58,4.58,0,0,1-2.661,1.089,3.568,3.568,0,0,1-3.751-2.662" transform="translate(-301.413 -74.693)" fill="#fff"/><path d="M808.579,137.505l-.847,6.533a42.165,42.165,0,0,0,.908,9.377,39.011,39.011,0,0,0,3.75,9.255,76.232,76.232,0,0,1,4.779,10.889,29.945,29.945,0,0,1,1.573,6.533q.242,3.749-3.206,4.235T811.12,179a69.593,69.593,0,0,0-3.449-12.582q-2.359-6.289-3.569-6.291-.966,0-1.935,3.024-2.66,7.259-2.783,11.251a11.958,11.958,0,0,0,.847,5.323q1.088,2.422.847,2.783-.967,0-3.267-2.3-5.444-5.444-5.323-9.437,0-2.418,2.177-8.227,4.114-8.1,5.928-20.567a27.442,27.442,0,0,0,.242-7.138q-.363-2.419.726-2.419a6.682,6.682,0,0,1,2.662,1.209,14.884,14.884,0,0,1,3.629,2.057,2.134,2.134,0,0,1,.726,1.815" transform="translate(-291.754 -48.752)" fill="#fff"/><path d="M762.838,112.875l2.783-.363q9.68,0,11.13,1.693,0,.244-16.151,1.512t-32.605,3.206q-16.451,1.937-16.755,1.936t-5.384-.726l-5.081-.725,4.839-.727q1.7-.24,6.775-.846l23.229-2.9q20.932-2.056,27.221-2.057" transform="translate(-257.99 -41.421)" fill="#fff"/><path d="M835.65,100.48l.847-7.985a30.616,30.616,0,0,0-4.6-15.667A51.8,51.8,0,0,0,818.713,62.37a11.63,11.63,0,0,0-3.871-1.935,44.824,44.824,0,0,1-.605,5.2,13.1,13.1,0,0,1-2.177,4.96q-1.57,2.178-5.263,2.178a19.58,19.58,0,0,1-8.711-2.6q-5.019-2.6-5.021-5.383,0-.968,2.178-3.025A18.824,18.824,0,0,1,805.283,56.8l.6-.243v-.725q0-3.023,1.815-4.235a5.438,5.438,0,0,1,2.3-.363q3.751.245,4.476,5.323a2.267,2.267,0,0,0,.121.726v.242a1.289,1.289,0,0,0,.242.726c0,.4.061.605.181.605a3.415,3.415,0,0,1,.665.121,3.261,3.261,0,0,1,1.21.242,27.213,27.213,0,0,1,10.525,4.839,92.178,92.178,0,0,1,8.227,7.743,27.274,27.274,0,0,1,4.839,6.9,7.2,7.2,0,0,1,.121,2.541,26.36,26.36,0,0,1-.121,2.782l-1.331,6.049A42.805,42.805,0,0,1,837.1,98.3a13.017,13.017,0,0,1-1.27,2.722q-.182.06-.182-.544M802.683,69.568a2.386,2.386,0,0,0,1.935-.968,2.941,2.941,0,0,0,.907-1.815,1.283,1.283,0,0,0-.544-1.149,2.243,2.243,0,0,0-1.271-.363q-1.815,0-2.057,2.783c0,.969.344,1.473,1.029,1.513" transform="translate(-291.967 -18.864)" fill="#fff"/><path d="M779.762,55.679l-1.935-.847q-2.178-1.088-2.9-5.928a12.174,12.174,0,0,0-1.452-4.537q-.968-1.512-4.355-1.513a67.512,67.512,0,0,0-15.485,2.42q-.727.244-15.909,2.3t-17,2.419a15.43,15.43,0,0,1-2.843.363,30.9,30.9,0,0,1-5.142-1.029q-4.111-1.026-4.113-1.573t1.694-.907a6.977,6.977,0,0,0,3.387-2.057q2.421-1.814,3.327-1.875t8.65,3.327l4.113-.121q2.541-.119,18.268-2.54,15.244-2.3,19.115-2.3a41.969,41.969,0,0,1,7.743.726,8.194,8.194,0,0,1,6.049,3.509,9.4,9.4,0,0,1,1.573,5.323v.483a7.113,7.113,0,0,1-1.209,4.235q-.484.6-1.573.121" transform="translate(-260.88 -15.198)" fill="#fff"/><path d="M762.838,21.349l2.783-.363q9.68,0,11.13,1.693,0,.244-16.151,1.512T727.994,27.4q-16.451,1.937-16.755,1.936t-5.384-.726l-5.081-.725,4.839-.727q1.7-.24,6.775-.846l23.229-2.9q20.932-2.056,27.221-2.057" transform="translate(-257.99 -7.726)" fill="#fff"/><path d="M24.163,23.371c-.325,0-1.036-.212-3.676-1.864-2.054-1.283-3.052-2.419-3.052-3.473,0-1.016.718-2.331,2.2-4.02s2.814-2.527,4.048-2.527c1.2,0,2.841.689,5.012,2.107l.051.041a3.252,3.252,0,0,1,1.119,1.892,4.023,4.023,0,0,1-.705,2.178,29,29,0,0,1-2.447,3.428c-1.576,1.97-2.172,2.236-2.546,2.236M23.679,12.12c-1.028,0-2.23.777-3.573,2.311s-2.039,2.759-2.039,3.6c0,.555.478,1.515,2.755,2.937,2.551,1.595,3.186,1.767,3.341,1.767.076,0,.529-.1,2.052-2a28.464,28.464,0,0,0,2.392-3.347,3.545,3.545,0,0,0,.625-1.812,2.753,2.753,0,0,0-.914-1.475c-2.022-1.318-3.583-1.987-4.639-1.987" transform="translate(-6.419 -4.229)" fill="#fff"/><path d="M82.847,570.765a27.04,27.04,0,0,1-9.073-1.351c-2.666-.957-4.3-1.884-4.988-2.834a.407.407,0,0,1-.111-.465c.115-.279.474-.279.609-.279l.116.022a25.048,25.048,0,0,0,8.242,1.914,8.624,8.624,0,0,0,5.487-1.269c5.387-3.013,8.1-7.845,8.1-14.386A37.519,37.519,0,0,0,89.546,541.8c-1.108-3.793-2.581-6.511-4.381-8.076-.483-.484-1.251-1.175-2.36-2.127a16.429,16.429,0,0,0-2.477-.337,17.385,17.385,0,0,0-2.85,0c-.836.08-4.431.629-10.686,1.63s-12.689,1.78-19.079,2.3c-6.435.528-12.823,1.118-18.988,1.755a161,161,0,0,1-16.124.969,25.485,25.485,0,0,1-11.943-2.7L0,534.872l.707-.234a4.2,4.2,0,0,1,1.832-.134l3.107,0c5.7,0,13.075-.467,21.925-1.389,8.677-.9,14.323-1.509,16.328-1.754,1.977-.242,4.679-.649,8.031-1.208,5.174-.716,8.952-1.918,11.239-3.574a8.4,8.4,0,0,0,2.382-3.03A21.731,21.731,0,0,1,66.9,521.2a13.892,13.892,0,0,1,.257-1.58c4.332-21.416,8.116-45.606,11.246-71.892,3.128-26.263,5.529-55.238,7.136-86.118,1.6-30.856,2.276-62.416,2-93.8-.282-31.4-1.89-64.284-4.777-97.73-3.451-40.447-7.642-72.51-12.456-95.3-.449-2.186-.69-3.531-.735-4.11a11.633,11.633,0,0,1-.359-1.847,11.194,11.194,0,0,0-2.1-4.913,12.967,12.967,0,0,0-4.724-3.061,20.377,20.377,0,0,1-5.836-3.688c-1.656-1.528-2.46-2.712-2.46-3.619,0-1.715,1.187-3.391,3.526-4.98a46.849,46.849,0,0,0,5.077-4.417,24.275,24.275,0,0,0,2.551-5.121c.056-.2.131-.41.2-.622l.008-.02-.026-.115c-.029-.13-.059-.259-.084-.4a22.137,22.137,0,0,0-.959-4.2c-1.525-5.491-2.663-6.31-3.207-6.31-.163,0-.634.155-1.481,1.6a6.119,6.119,0,0,0-.986,2.985,9.9,9.9,0,0,0,.529,2.987c.32.993.358,1.552.128,1.868a.588.588,0,0,1-.489.239c-.283,0-.984-.128-3.806-1.231A26.557,26.557,0,0,1,51.2,34.09c-.349-.232-.925-.878-1.878-3.794a18.921,18.921,0,0,1-1.044-5.785,17.562,17.562,0,0,1,4.31-11.7,3.019,3.019,0,0,1,2.792-1.139c1.285.045,3.039.794,5.363,2.289a15.881,15.881,0,0,1,2.352,1.978.18.18,0,0,0,.191.045c.228-.083.837-.674,1.575-4.359.063-.355.126-.693.19-1.019-.272-.521-.572-1.128-.892-1.809-2-4.221-3.861-6.392-5.371-6.233-1.34,0-4.913,1.536-10.649,4.563a30.226,30.226,0,0,0-4.131,2.754c-1.808,1.366-3.057,2.266-3.712,2.678l-.077.048h-.7a24.509,24.509,0,0,1-5.1-.978C30.494,10.6,30.494,10.3,30.494,9.993l.028-.131c.28-.613,1.3-1.771,6.905-4.74C41.888,2.371,48.649.648,57.525,0h2.442a12.3,12.3,0,0,1,5.366,1.316,15.793,15.793,0,0,0,1.991,1.118c3.615,2.012,5.42,4.222,5.42,6.592a4.468,4.468,0,0,1-.121,1.032v.056A13.149,13.149,0,0,1,69.4,18.431a17.029,17.029,0,0,1-2.771,2.461c.15.309.622,1.152,2.077,3.45a54.364,54.364,0,0,1,3.653,7.185,16.022,16.022,0,0,1,1.6,6.61,7.118,7.118,0,0,1-.514,2.491c-.071.252-.152.505-.245.765l2.134.853c1.414.531,2.134,1.241,2.134,2.108l-.032.138L75.5,48.484a101.226,101.226,0,0,0-4.823,12.784.624.624,0,0,0-.072.29,1.109,1.109,0,0,1,.691.21,13.437,13.437,0,0,1,4.25,4.2,11.012,11.012,0,0,1,1.245,2.743,9.8,9.8,0,0,1,1.393,3.155C90.307,129.214,96.741,203.806,97.3,293.576c.483,79.819-6.48,156.731-20.694,228.6a14.572,14.572,0,0,1-2.079,3.886,21.956,21.956,0,0,1-1.115,2.331,18.394,18.394,0,0,0,2.038.18,11.7,11.7,0,0,1,2.369.371c5.311.886,9.519,2.181,12.484,3.843,2.988,1.68,5.454,4.556,7.33,8.55a28.908,28.908,0,0,1,2.813,12.353c0,6.533-2.448,11.507-7.277,14.78a21.3,21.3,0,0,1-9.853,2.292c-.159,0-.316,0-.473,0m-13.136-4.109a13.83,13.83,0,0,0,4.276,2.163,26.8,26.8,0,0,0,9.326,1.312,20.682,20.682,0,0,0,9.535-2.2c4.615-3.131,6.97-7.928,6.97-14.239a28.271,28.271,0,0,0-2.754-12.085c-1.818-3.872-4.2-6.654-7.067-8.268-2.9-1.627-7.039-2.9-12.3-3.775a11.461,11.461,0,0,0-2.247-.358,22.336,22.336,0,0,1-2.583-.245l-.463-.063.231-.406a22.225,22.225,0,0,0,1.327-2.716l.061-.1a13.831,13.831,0,0,0,1.982-3.684C90.2,450.227,97.154,373.357,96.672,293.58,96.11,203.852,89.68,129.3,77.563,72a9.189,9.189,0,0,0-1.33-2.987l-.043-.1A10.314,10.314,0,0,0,75,66.294a12.839,12.839,0,0,0-4.077-4.012l-.052-.043a1.112,1.112,0,0,0-.364-.09.6.6,0,0,1-.459-.287.911.911,0,0,1,.028-.808,101.587,101.587,0,0,1,4.849-12.846l1.9-3.921c-.044-.55-.624-1.038-1.728-1.453l-2.716-1.086.112-.292c.133-.344.245-.675.35-1.043a6.6,6.6,0,0,0,.477-2.308,15.465,15.465,0,0,0-1.548-6.332,53.733,53.733,0,0,0-3.608-7.1c-2.429-3.835-2.36-3.9-2.134-4.136l.051-.042a16.049,16.049,0,0,0,2.846-2.491A12.521,12.521,0,0,0,71.992,10.1V9.983L72,9.945a3.778,3.778,0,0,0,.112-.919c0-2.124-1.7-4.147-5.04-6.016a14.027,14.027,0,0,1-2.067-1.154A11.686,11.686,0,0,0,59.945.631h-2.4c-8.757.639-15.425,2.333-19.8,5.034l-.018.01c-4.54,2.4-6.086,3.639-6.53,4.269a18.533,18.533,0,0,0,3.377,1.075,24.523,24.523,0,0,0,4.94.957h.514c.659-.421,1.866-1.3,3.591-2.6a30.926,30.926,0,0,1,4.223-2.812c5.9-3.115,9.474-4.631,10.908-4.631,1.824-.176,3.792,1.981,5.972,6.593.338.716.651,1.35.932,1.884l.052.1-.022.109c-.07.355-.141.725-.211,1.123-.787,3.934-1.471,4.65-1.979,4.835a.818.818,0,0,1-.828-.168A15.49,15.49,0,0,0,60.4,14.491c-2.191-1.409-3.887-2.146-5.038-2.186a2.383,2.383,0,0,0-2.266.888A16.985,16.985,0,0,0,48.91,24.511,18.29,18.29,0,0,0,49.924,30.1c.866,2.649,1.392,3.307,1.628,3.464A26.771,26.771,0,0,0,55.3,35.227a16.294,16.294,0,0,0,3.573,1.188,2.7,2.7,0,0,0-.239-1.282,10.505,10.505,0,0,1-.56-3.181,6.72,6.72,0,0,1,1.072-3.3c.766-1.3,1.41-1.912,2.027-1.912,1.319,0,2.531,2.15,3.813,6.765a22.144,22.144,0,0,1,.977,4.293c.02.1.048.22.075.341l.064.294-.066.19c-.071.2-.142.4-.205.621a24.263,24.263,0,0,1-2.661,5.317,47.255,47.255,0,0,1-5.187,4.521c-2.176,1.479-3.269,2.978-3.269,4.471,0,.489.392,1.434,2.257,3.155a19.751,19.751,0,0,0,5.657,3.571,13.571,13.571,0,0,1,4.955,3.231,11.841,11.841,0,0,1,2.247,5.221,11.089,11.089,0,0,0,.351,1.805l.012.066c.035.522.279,1.888.726,4.058,4.818,22.81,9.013,54.9,12.466,95.372,2.889,33.461,4.5,66.359,4.78,97.778.281,31.4-.392,62.973-2,93.842-1.608,30.894-4.01,59.882-7.14,86.16-3.132,26.3-6.919,50.509-11.255,71.949a13.312,13.312,0,0,0-.255,1.591l-.008.078-.045.066a21.142,21.142,0,0,0-1.353,2.337,9.034,9.034,0,0,1-2.573,3.257c-2.376,1.72-6.25,2.961-11.519,3.689-3.353.56-6.064.967-8.05,1.21-2.007.246-7.657.853-16.339,1.755-8.872.924-16.271,1.392-21.99,1.392H2.5a5.363,5.363,0,0,0-.663-.038A25.379,25.379,0,0,0,12.6,537.284a160.493,160.493,0,0,0,16.058-.966c6.169-.636,12.561-1.228,19-1.755,6.374-.52,12.777-1.293,19.031-2.3,6.356-1.017,9.864-1.552,10.726-1.636a18.246,18.246,0,0,1,2.956,0,16.77,16.77,0,0,1,2.654.371l.073.018.056.049c1.153.988,1.95,1.706,2.438,2.194,1.876,1.631,3.414,4.449,4.557,8.362a38.116,38.116,0,0,1,1.706,10.492c0,6.787-2.822,11.8-8.388,14.915a9.216,9.216,0,0,1-5.85,1.372,25.057,25.057,0,0,1-7.91-1.749M63.043,57.735h-.052c-.614,0-1.315-.662-2.2-2.084a7.115,7.115,0,0,1-1.258-3.675,4.084,4.084,0,0,1,1.75-3.149,7.118,7.118,0,0,1,4.237-1.521h1.346a.48.48,0,0,1,.366.161.862.862,0,0,1,.13.679A65.432,65.432,0,0,1,65.1,54.506c-1.014,2.593-1.607,3.079-2.011,3.212Zm2.489-9.8a6.483,6.483,0,0,0-3.854,1.381,3.444,3.444,0,0,0-1.516,2.659,6.516,6.516,0,0,0,1.162,3.341c.92,1.47,1.412,1.744,1.616,1.781.211-.112.711-.619,1.572-2.818,1.789-4.772,2.194-6.013,2.218-6.214a1.08,1.08,0,0,0,.01-.13Z" fill="#fff"/><path d="M346.4,901.943q-.585,0-1.181-.01A66.461,66.461,0,0,1,306.932,889.9c-6.075-4.453-10.018-8.813-11.727-12.964l-.426-.632a22.641,22.641,0,0,0-.056,4.611v9.867l1.061,2.358a55.276,55.276,0,0,0,2.364,5.119c1.118,1.182,1.519,1.9,1.337,2.382a.733.733,0,0,1-.692.444h-.01a24.206,24.206,0,0,1-7.745-1.467c-3.118-1.263-4.69-3.8-4.69-7.558V890c.163-.918.487-4.632.968-11.093s.726-12.772.726-18.789l-.6-10.023c0-.554,0-1.665.678-1.665a10.548,10.548,0,0,1,2.953.806c1.449.54,2.406.919,2.925,1.158.661.3.97,1.223.97,2.888a49.5,49.5,0,0,0,1.685,9.058c2.716,11.262,7.123,19.839,13.1,25.495a42.509,42.509,0,0,0,14.466,8.461,52.8,52.8,0,0,0,17.619,2.946,31.6,31.6,0,0,0,16.892-4.913,29.438,29.438,0,0,0,11.613-13.288c1.592-3.585,2.907-8.748,3.908-15.346a134.677,134.677,0,0,0,1.509-20.1v-7.017l-.989-15.44h.337c.243,0,.454,0,1.442,2.436.6,1.474,2.119,4.538,4.523,9.106a33.668,33.668,0,0,1,4.028,13.922v6.307a7.473,7.473,0,0,1-.188,1.519,18.684,18.684,0,0,0-.3,2.08q-.122,1.274-.242,2.244c-1.777,17.841-7.361,29.926-16.6,35.919-5.282,3.495-12.47,5.264-21.379,5.264m-51.625-26.533h.169l.819,1.23c1.694,4.1,5.567,8.366,11.539,12.744A65.834,65.834,0,0,0,345.22,901.3c9.339.166,16.8-1.573,22.207-5.151,9.07-5.886,14.557-17.815,16.315-35.458v-.007q.118-.962.24-2.23a19.1,19.1,0,0,1,.308-2.152,6.831,6.831,0,0,0,.174-1.387v-6.29a33.037,33.037,0,0,0-3.956-13.645c-2.414-4.586-3.945-7.669-4.55-9.163-.183-.451-.334-.8-.458-1.082l.885,13.828V845.6a135.345,135.345,0,0,1-1.516,20.19c-1.01,6.654-2.34,11.871-3.955,15.507a30.058,30.058,0,0,1-11.858,13.57,32.222,32.222,0,0,1-17.225,5.007A53.416,53.416,0,0,1,324,896.894a43.143,43.143,0,0,1-14.685-8.592c-6.07-5.746-10.537-14.428-13.283-25.809a49.016,49.016,0,0,1-1.7-9.208c0-1.772-.377-2.211-.6-2.314-.5-.233-1.448-.606-2.882-1.139a10.741,10.741,0,0,0-2.666-.764,2.732,2.732,0,0,0-.113,1.012l.6,10.023c0,6.052-.244,12.389-.727,18.854-.49,6.576-.807,10.208-.972,11.1l.005,2c0,3.52,1.4,5.8,4.278,6.966a23.589,23.589,0,0,0,7.5,1.428.266.266,0,0,0,.136-.043c0-.006.091-.344-1.213-1.722-.093-.094-.279-.279-2.479-5.293l-1.115-2.546v-9.921c-.2-4.212.059-5.077.334-5.364a.467.467,0,0,1,.345-.154" transform="translate(-105.42 -303.042)" fill="#fff"/><path d="M345.838,558.995a.424.424,0,0,1-.2-.051c-.268-.143-.372-.533-.372-1.391l.363-5.707a26.209,26.209,0,0,0-.955-6.661,40.821,40.821,0,0,0-12.123-17.155c-5.168-4.608-9.171-6.983-11.9-7.061-.48,0-.582.09-.583.091.02,0,.091.37,1.74,1.511,2.178,1.506,3.282,3.14,3.282,4.856a2.3,2.3,0,0,1-.277,1.369c-1.013,3.116-3.7,4.695-7.975,4.695h-.173a22.469,22.469,0,0,1-12.391-3.985c-1.56-1.212-2.332-2.258-2.378-3.212s.716-2.227,2.325-3.922c2.8-2.8,6.821-4.212,11.964-4.212a46.332,46.332,0,0,1,7.683,1.1,47.551,47.551,0,0,1,19.7,11.03l.733-7.967c0-8.876-4.082-17.594-12.131-25.884-3.563-3.562-6.4-5.569-8.423-5.958a2.413,2.413,0,0,0-.956-.141c-.023,1.065-.806,2.074-2.328,3a8.45,8.45,0,0,1-4.4,1.378,7.321,7.321,0,0,1-3.166-.518l-1.433-1.108.269-.253c2.472-2.323,3.811-4.466,3.98-6.371l-.328-1.141a17.256,17.256,0,0,1,.371-3.821c4.331-21.416,8.115-45.606,11.246-71.892,3.128-26.263,5.528-55.238,7.136-86.118,1.6-30.856,2.276-62.416,2-93.8-.283-31.4-1.891-64.284-4.778-97.73-3.452-40.452-7.643-72.515-12.456-95.3-.2-.984-.361-1.8-.481-2.447-.087-.213-.168-.434-.238-.672l-.49-2.325a6.68,6.68,0,0,0-.409-1.443h-.1l-.08-.2a20.617,20.617,0,0,0-3.022-5.707,3.424,3.424,0,0,0-2.287-1.231l-.528.316a15.656,15.656,0,0,0-3.8,3.092l-2.769,2.519h-4.6c-3.571,0-4.281-.384-4.505-.758l-.045-.076v-.208c0-.372.265-.971,2.232-2.6a20.865,20.865,0,0,1,4.976-3.011c1.891-.82,4.782-1.236,8.594-1.236h1.209a13.417,13.417,0,0,1,8.934,3.6,11.552,11.552,0,0,1,3.562,5.843,9.988,9.988,0,0,1,1.725,3.623C338.9,91.1,345.333,165.687,345.9,255.458c.481,79.819-6.481,156.731-20.694,228.6a21.556,21.556,0,0,1-1.477,3.053l-.063.547,3.034,1.123c7.68,2.507,14.206,7.513,19.385,14.875,2.522,3.011,3.768,5.931,3.687,8.659,0,.122,0,.394-2.069,7.878-1.21,4.376-2.278,8.066-3.176,10.974.429.4.856.817,1.28,1.241,3.074,3.076,4.569,5.386,4.569,7.059a73.854,73.854,0,0,1-1.7,10.83c-1.635,8.1-2.237,8.625-2.647,8.659a.469.469,0,0,1-.186.039m-25.182-38.657c2.934.084,6.957,2.445,12.309,7.218a41.419,41.419,0,0,1,12.306,17.43l.008.025a26.874,26.874,0,0,1,.979,6.857l-.363,5.707a4.2,4.2,0,0,0,.043.687c.254-.361.865-1.9,2.114-8.089a74.951,74.951,0,0,0,1.688-10.7c0-1.477-1.475-3.7-4.384-6.612-.434-.434-.873-.856-1.313-1.271l-.437-.4a47.159,47.159,0,0,0-19.884-11.31,45.8,45.8,0,0,0-7.541-1.078c-4.969,0-8.842,1.353-11.512,4.021-1.816,1.915-2.17,2.934-2.146,3.451.037.748.749,1.666,2.117,2.73a21.839,21.839,0,0,0,12.029,3.865c4.161.018,6.63-1.371,7.56-4.315l.023-.075.056-.055c.015-.015.148-.171.148-.986,0-1.5-1.012-2.956-3.009-4.337-1.559-1.079-2.13-1.73-1.969-2.246.142-.456.742-.508,1.18-.508m2.253-30.641a3.879,3.879,0,0,1,.977.165c2.158.415,5.021,2.421,8.73,6.13,8.171,8.416,12.312,17.282,12.312,26.356l-.7,7.628c.83-2.732,1.79-6.071,2.863-9.951,1.663-6.018,2.031-7.523,2.046-7.727.077-2.57-1.12-5.348-3.556-8.256-5.115-7.269-11.532-12.2-19.092-14.663l-3.511-1.3.175-1.242a20.76,20.76,0,0,0,1.449-2.96c14.187-71.767,21.145-148.637,20.664-228.414-.562-89.728-6.992-164.278-19.109-221.576a9.37,9.37,0,0,0-1.652-3.433l-.052-.109a10.962,10.962,0,0,0-3.4-5.6,12.8,12.8,0,0,0-8.523-3.43h-1.189c-3.725,0-6.532.4-8.343,1.184a20.186,20.186,0,0,0-4.825,2.918c-1.905,1.582-2,2.04-2,2.115v0c.168.124.885.408,3.919.408h4.354l2.571-2.338a16.173,16.173,0,0,1,3.936-3.191l.666-.4h.087a3.956,3.956,0,0,1,2.829,1.43,20.342,20.342,0,0,1,3.1,5.781c.22.16.406.632.672,1.871l.483,2.3c.062.2.14.414.224.617l.019.064c.12.653.28,1.471.485,2.464,4.817,22.805,9.011,54.894,12.466,95.373,2.889,33.461,4.5,66.359,4.781,97.777.28,31.4-.392,62.973-2,93.842-1.608,30.894-4.01,59.882-7.139,86.159-3.132,26.3-6.919,50.51-11.256,71.951a16.6,16.6,0,0,0-.356,3.641l.336,1.12,0,.058c-.155,2.01-1.471,4.225-3.915,6.587l.8.623a7.1,7.1,0,0,0,2.831.417,7.837,7.837,0,0,0,4.069-1.285c1.345-.821,2.026-1.666,2.026-2.512a.547.547,0,0,1,.214-.445.865.865,0,0,1,.54-.147M312.49,531.011a2.343,2.343,0,0,1-1.6-.625,2.1,2.1,0,0,1-.71-1.626,2.817,2.817,0,0,1,2.615-2.615,2.842,2.842,0,0,1,1.7.543h0a1.664,1.664,0,0,1,.795,1.345,3.193,3.193,0,0,1-.919,1.834,2.567,2.567,0,0,1-1.877,1.142m.3-4.234a2.193,2.193,0,0,0-1.983,1.983,1.474,1.474,0,0,0,.5,1.156,1.705,1.705,0,0,0,1.18.463,2.005,2.005,0,0,0,1.389-.912c.64-.775.775-1.206.775-1.432a1.061,1.061,0,0,0-.535-.834,2.218,2.218,0,0,0-1.327-.423" transform="translate(-108.803 -7.613)" fill="#fff"/><path d="M355.558,26.018c-.352,0-1.094-.2-3.732-1.8-2.057-1.242-3.056-2.3-3.056-3.234,0-.888.693-2.236,2.12-4.123a12.255,12.255,0,0,1,3.135-3.3l.034-.015c.994-.361,2.369.025,4.208,1.179s2.75,2.239,2.75,3.293a4.96,4.96,0,0,1-.461,2.326,30.818,30.818,0,0,1-2.266,3.189c-1.691,2.2-2.348,2.483-2.73,2.483m-1.266-11.881c-.418.217-1.259.935-2.9,3.106S349.4,20.48,349.4,20.985c0,.471.478,1.321,2.751,2.694,2.551,1.542,3.232,1.708,3.406,1.708.085,0,.593-.107,2.229-2.236a31.09,31.09,0,0,0,2.211-3.1,4.354,4.354,0,0,0,.386-2.026c0-.809-.826-1.736-2.453-2.757s-2.853-1.4-3.639-1.127" transform="translate(-128.4 -4.94)" fill="#fff"/><path d="M559.063,655.954a36.36,36.36,0,0,1-9.033-1.341c-4.04-.991-6.363-1.807-7.092-2.5q-.634-.6-.806-.754l.417-.475a2.611,2.611,0,0,0,.765.337c2.246.722,3.742,1.166,4.446,1.322a34.547,34.547,0,0,0,5.739.718,15.735,15.735,0,0,0,11.155-4.51,15.007,15.007,0,0,0,4.862-11.981,33.85,33.85,0,0,0-4.8-16.544c-4.353-7.2-8.9-10.854-13.52-10.854-.462,0-1.587.308-4.328,1.776a1.111,1.111,0,0,0-.559,1.113,35.362,35.362,0,0,0,.361,3.771l0,.767c0,3.046-.7,5.433-2.068,7.1a7.216,7.216,0,0,1-5.869,2.534,15.85,15.85,0,0,1-12.7-5.92,3.574,3.574,0,0,1-1.161-2.891c.084-2.016,1.351-3.89,3.765-5.557,3.133-2.142,5.309-3.306,6.654-3.559a5.063,5.063,0,0,0,2.287-1.311,16.909,16.909,0,0,1,.367-3.53c4.331-21.416,8.115-45.606,11.246-71.892,3.126-26.263,5.527-55.238,7.135-86.118,1.6-30.856,2.275-62.416,2-93.8-.282-31.4-1.889-64.284-4.777-97.73-3.452-40.452-7.643-72.515-12.456-95.3-.2-.984-.362-1.8-.482-2.447a7.091,7.091,0,0,1-.239-.672l-.489-2.325a6.623,6.623,0,0,0-.409-1.443h-.1l-.08-.2a20.623,20.623,0,0,0-3.021-5.707,3.423,3.423,0,0,0-2.287-1.231l-.527.316a15.641,15.641,0,0,0-3.8,3.092l-2.769,2.519h-4.6c-3.571,0-4.28-.384-4.505-.758l-.045-.076v-.208c0-.372.265-.971,2.232-2.6a20.827,20.827,0,0,1,4.976-3.01c1.89-.82,4.782-1.237,8.594-1.237h1.209a13.414,13.414,0,0,1,8.934,3.6,11.537,11.537,0,0,1,3.561,5.843,9.966,9.966,0,0,1,1.726,3.624c12.128,57.348,18.561,131.94,19.124,221.71.482,79.819-6.48,156.731-20.694,228.6-.1.251-.191.471-.28.674.406.025.9.037,1.484.037a26.052,26.052,0,0,1,6.429.917,47.4,47.4,0,0,1,8.345,3.227,24.01,24.01,0,0,1,8.83,7.843,36.739,36.739,0,0,1,5.369,9.889,28.268,28.268,0,0,1,1.407,8.565c0,6.034-1.787,10.692-5.308,13.846s-8.428,4.738-14.608,4.738m-14.786-3.759A37.041,37.041,0,0,0,550.186,654a35.8,35.8,0,0,0,8.877,1.32c6.02,0,10.794-1.54,14.186-4.577s5.1-7.529,5.1-13.375A27.616,27.616,0,0,0,576.97,629a36.082,36.082,0,0,0-5.278-9.711,23.394,23.394,0,0,0-8.591-7.643,46.718,46.718,0,0,0-8.231-3.184,25.4,25.4,0,0,0-6.271-.9c-.831,0-1.5-.025-1.985-.075l-.437-.044.181-.4c.142-.315.287-.644.437-1.007,14.187-71.767,21.145-148.637,20.663-228.414-.562-89.728-6.991-164.278-19.109-221.576a9.381,9.381,0,0,0-1.652-3.433l-.051-.109a10.97,10.97,0,0,0-3.4-5.6,12.807,12.807,0,0,0-8.524-3.43h-1.189c-3.725,0-6.531.4-8.343,1.184a20.158,20.158,0,0,0-4.824,2.918c-1.906,1.582-2,2.04-2,2.115v0c.168.124.885.408,3.918.408h4.355l2.571-2.338a16.184,16.184,0,0,1,3.936-3.191l.665-.4h.089a3.952,3.952,0,0,1,2.828,1.43,20.335,20.335,0,0,1,3.1,5.781c.219.161.4.633.671,1.87l.484,2.3c.061.2.14.414.224.617l.02.064c.119.653.28,1.471.484,2.464,4.817,22.805,9.012,54.894,12.466,95.372,2.889,33.462,4.5,66.359,4.78,97.778.28,31.4-.392,62.973-2,93.842-1.609,30.894-4.012,59.882-7.14,86.159-3.132,26.3-6.918,50.509-11.255,71.95a16.538,16.538,0,0,0-.354,3.542v.139l-.1.094a5.814,5.814,0,0,1-2.7,1.555c-1.237.233-3.395,1.4-6.411,3.459-2.241,1.547-3.415,3.256-3.492,5.076a2.969,2.969,0,0,0,1,2.425,15.264,15.264,0,0,0,12.238,5.714,6.611,6.611,0,0,0,5.382-2.3c1.276-1.547,1.923-3.8,1.923-6.694v-.726a34.573,34.573,0,0,1-.363-3.812,1.7,1.7,0,0,1,.9-1.673c2.318-1.242,3.832-1.848,4.618-1.848,4.854,0,9.585,3.755,14.062,11.162a34.472,34.472,0,0,1,4.885,16.85,15.61,15.61,0,0,1-5.061,12.46A16.346,16.346,0,0,1,553.5,653.9a35.117,35.117,0,0,1-5.865-.732c-.609-.134-1.71-.452-3.355-.97m-9.743-28.654a2.649,2.649,0,0,1-1.98-1.351l-.054-.12a5.082,5.082,0,0,1,.765-3.737c1.157-1.359,2.161-1.324,3.345-.053h0a2.948,2.948,0,0,1,.871,2.03,3.163,3.163,0,0,1-.862,2.082,3.066,3.066,0,0,1-1.892,1.135,1.515,1.515,0,0,1-.192.013m-1.429-1.668c.554.744,1.068,1.1,1.539,1.029a2.454,2.454,0,0,0,1.5-.922,2.517,2.517,0,0,0,.709-1.668,2.31,2.31,0,0,0-.7-1.6c-.916-.982-1.526-.993-2.372-.009a4.476,4.476,0,0,0-.67,3.171" transform="translate(-190.604 -52.586)" fill="#fff"/><path d="M498.894,917.915a3.184,3.184,0,0,1-.715-.083l-.123-.059c-5.567-4.328-5.567-4.6-5.567-4.848,0-.349.3-1.105,2.481-4.059l2.317-3.243a19.235,19.235,0,0,0-2.544-1.935c-2.858-1.969-2.858-2.263-2.858-2.5,0-.216.1-.6.846-1.636q.79-1.091,1.635-2.241a16.818,16.818,0,0,1,1.214-1.519c.775-1.283,1.532-1.975,2.313-2.113a2.647,2.647,0,0,1,1.984.35,12.107,12.107,0,0,1,4.575,4.218c.329.528.356,1.63-2.439,5.428l-2.077,2.515c4.991,3.043,5.548,4.027,5.4,4.634a10.09,10.09,0,0,1-1.993,3.383,12.749,12.749,0,0,1-1.957,2.5,3.417,3.417,0,0,1-2.488,1.2m-.506-.684a2.642,2.642,0,0,0,2.538-.954,12.336,12.336,0,0,0,1.887-2.415,9.939,9.939,0,0,0,1.9-3.181c.027-.136-.118-.932-5.42-4.138l-.313-.189,2.531-3.065c2.606-3.542,2.544-4.476,2.4-4.713a11.53,11.53,0,0,0-4.366-4.007A2.026,2.026,0,0,0,498,894.3c-.589.1-1.228.726-1.9,1.848l-.047.061a15.8,15.8,0,0,0-1.179,1.476q-.845,1.15-1.631,2.236c-.691.958-.727,1.223-.727,1.266a15.8,15.8,0,0,0,2.585,1.978c2.859,1.971,2.859,2.263,2.859,2.5v.1l-2.478,3.47c-1.963,2.651-2.3,3.419-2.353,3.634.169.226,1.053,1.087,5.258,4.359" transform="translate(-181.088 -328.989)" fill="#fff"/><path d="M556.21,947.319l-.066-.054-.219-.218.187-.251c.08-.084.252-.19.505.042l-.206.243.157.15-.158-.149Z" transform="translate(-204.665 -348.527)" fill="#fff"/><path d="M580.484,146.739c-.75,0-2.049-.548-3.971-1.676-2.005-1.178-2.939-2.091-2.939-2.874,0-.329.2-1,1.748-3.264,1.04-1.523,2.028-2.843,2.94-3.933-4.3-2.97-4.81-4.117-4.81-4.722s.347-1.786,3.344-5.227c.948-1.208,1.664-1.822,2.242-1.92h.02a8.152,8.152,0,0,1,4.563,1.5c1.56,1.039,2.318,1.977,2.318,2.864a5.291,5.291,0,0,1-.578,2.379,11.773,11.773,0,0,1-1.244,1.99c-.447.569-1.008,1.209-1.713,1.957a7.1,7.1,0,0,0-.966,1.194c3.272,1.477,4.863,2.917,4.863,4.4a4.081,4.081,0,0,1-.778,2.233c-.478.715-1,1.546-1.566,2.468a8.057,8.057,0,0,1-1.582,2.016,2.91,2.91,0,0,1-1.894.616m-1.391-22.987c-.174.034-.717.305-1.808,1.695-2.646,3.039-3.2,4.3-3.2,4.825,0,.414.626,1.535,4.823,4.4l.291.2-.229.268a48.584,48.584,0,0,0-3.125,4.146c-1.478,2.163-1.638,2.754-1.638,2.907,0,.294.341.987,2.627,2.328,2.237,1.314,3.221,1.59,3.651,1.59a2.293,2.293,0,0,0,1.494-.473,7.608,7.608,0,0,0,1.443-1.856c.565-.929,1.1-1.768,1.58-2.49a3.471,3.471,0,0,0,.672-1.882c0-1.211-1.65-2.575-4.772-3.945l-.243-.107.063-.258c.06-.241.252-.682,1.227-1.714.682-.723,1.245-1.367,1.674-1.913a11.055,11.055,0,0,0,1.176-1.883,4.662,4.662,0,0,0,.511-2.1c0-.642-.7-1.45-2.037-2.338a7.534,7.534,0,0,0-4.18-1.4" transform="translate(-211.117 -45.328)" fill="#fff"/><path d="M486.359,61.487c-.72,0-1.985-.631-3.87-1.93-1.923-1.326-2.858-2.42-2.858-3.346,0-.17,0-.454,1.864-3.376h0c1.257-1.969,2.3-3.1,3.173-3.45.844-.284,2.1.124,3.856,1.235s2.627,2.2,2.627,3.292c0,1.044-.671,2.527-2.052,4.534-1.928,2.805-2.425,3.04-2.74,3.04m-4.331-8.312a16.525,16.525,0,0,0-1.767,3.052c0,.461.45,1.336,2.587,2.809,2.181,1.5,3.113,1.819,3.511,1.819.075-.029.54-.322,2.22-2.767,1.288-1.872,1.94-3.277,1.94-4.176,0-.849-.785-1.777-2.333-2.758-1.946-1.232-2.868-1.321-3.3-1.177-.722.291-1.69,1.369-2.858,3.2Z" transform="translate(-176.576 -18.149)" fill="#fff"/><path d="M538.9,108.913l-.611-.033-.13-.65.851-9.241c0-8.875-4.082-17.593-12.131-25.882-3.562-3.562-6.4-5.568-8.423-5.959a2.378,2.378,0,0,0-.956-.14c-.023,1.065-.806,2.074-2.328,3a8.452,8.452,0,0,1-4.4,1.377,7.318,7.318,0,0,1-3.166-.517l-1.434-1.106.269-.253c2.664-2.506,4.014-4.789,4.014-6.787,0-.068.005-.133.011-.2l0-.062a16,16,0,0,1-.556-2.474,20.273,20.273,0,0,0-1.429-5.064c-.569-1.309-.954-2.227-1.165-2.788a17.54,17.54,0,0,1-6.713,1.587,16.951,16.951,0,0,1-10.847-4.245c-3.5-2.873-5.2-5.347-5.2-7.564,0-1.509,1.107-2.687,3.291-3.5a20.228,20.228,0,0,1,7.067-1.17h1.815a15.8,15.8,0,0,1,6.081,1.612l2.6.822a.809.809,0,0,0,.656.044c.339-.129.874-.578,1.5-1.988a15.559,15.559,0,0,0,1.365-5.218l.028-.338a17.546,17.546,0,0,1-.569-2.556A11.937,11.937,0,0,0,507,25.208c-.581-.907-1.957-1.366-4.089-1.366a67.557,67.557,0,0,0-15.41,2.411c-.164.056-.735.246-15.943,2.3-10.227,1.388-15.781,2.178-16.979,2.417a15.877,15.877,0,0,1-2.905.369,30.481,30.481,0,0,1-5.218-1.037c-4.02-1-4.353-1.462-4.353-1.88,0-.708,1.038-1.022,1.944-1.216a6.709,6.709,0,0,0,3.23-1.971c1.734-1.3,2.845-1.92,3.529-1.967.421-.025,1.793.291,8.734,3.325l4.042-.119c1.675-.079,7.81-.933,18.229-2.537,10.283-1.549,16.551-2.3,19.163-2.3a42.41,42.41,0,0,1,7.787.73A8.529,8.529,0,0,1,515.021,26a9.761,9.761,0,0,1,1.633,5.524v.469a9.8,9.8,0,0,1-.068,1.146,13.409,13.409,0,0,1-1.3,6.863,52.536,52.536,0,0,0-3,6.116c-.066.144-.176.8,2.26,4.451a28.621,28.621,0,0,1,3.386,8.861,4.039,4.039,0,0,1,.779,1.933l0,.033-.338,2.931,3.034,1.124c7.678,2.505,14.2,7.511,19.385,14.874,2.522,3.012,3.768,5.932,3.687,8.659,0,.122,0,.393-2.067,7.879-1.372,4.959-2.554,9.012-3.512,12.048M517.624,66.367a3.859,3.859,0,0,1,.976.166c2.159.416,5.022,2.423,8.73,6.131,8.17,8.416,12.312,17.281,12.312,26.355l-.7,7.63c.826-2.72,1.786-6.056,2.864-9.952,1.663-6.02,2.03-7.525,2.045-7.728.077-2.57-1.119-5.347-3.556-8.258-5.115-7.269-11.534-12.2-19.092-14.662l-3.511-1.3.387-3.358a3.506,3.506,0,0,0-.7-1.652l-.044-.062-.011-.075a27.8,27.8,0,0,0-3.313-8.7c-2.42-3.631-2.524-4.572-2.305-5.011a51.6,51.6,0,0,1,3.029-6.178,12.9,12.9,0,0,0,1.229-6.591,10.38,10.38,0,0,0,.064-1.123V31.51a9.147,9.147,0,0,0-1.526-5.158,7.909,7.909,0,0,0-5.809-3.358l-.028,0a41.807,41.807,0,0,0-7.685-.722c-2.545,0-8.961.773-19.069,2.3-10.439,1.607-16.6,2.464-18.3,2.544l-4.19.123-.064-.028c-6.682-2.922-8.206-3.33-8.5-3.3-.371.026-1.221.361-3.158,1.812a7.235,7.235,0,0,1-3.511,2.114c-1.118.239-1.372.481-1.429.566.139.129.795.533,3.859,1.3a30.923,30.923,0,0,0,5.065,1.019,15.261,15.261,0,0,0,2.782-.357c1.211-.243,6.777-1.034,17.017-2.423,12.521-1.694,15.532-2.177,15.852-2.285A68.245,68.245,0,0,1,502.91,23.21c2.362,0,3.917.557,4.621,1.657a12.533,12.533,0,0,1,1.5,4.658,16.8,16.8,0,0,0,.566,2.524l.02.059-.038.452a16.18,16.18,0,0,1-1.418,5.429,4.047,4.047,0,0,1-1.853,2.322,1.39,1.39,0,0,1-1.107-.046l-2.626-.833a15.291,15.291,0,0,0-5.862-1.559h-1.785A19.581,19.581,0,0,0,488.079,39c-1.937.722-2.879,1.674-2.879,2.91,0,1.988,1.671,4.368,4.966,7.075a16.335,16.335,0,0,0,10.446,4.1,17.274,17.274,0,0,0,6.77-1.668l.317-.139.11.329c.156.468.581,1.5,1.26,3.059a20.865,20.865,0,0,1,1.474,5.221,15.442,15.442,0,0,0,.55,2.431l.018.054,0,.057c0,.047-.006.095-.01.142s-.008.1-.008.148c0,2.108-1.327,4.46-3.946,6.992l.8.622a7.092,7.092,0,0,0,2.831.418,7.828,7.828,0,0,0,4.07-1.285c1.345-.82,2.026-1.666,2.026-2.513a.545.545,0,0,1,.214-.444.865.865,0,0,1,.541-.147m-20.34-14.821a5.2,5.2,0,0,1-3.87-2.167,7.036,7.036,0,0,1-1.83-4.622,4.784,4.784,0,0,1,2.19-4.068,7.45,7.45,0,0,1,4.3-1.509,5.684,5.684,0,0,1,4.166,2.16c1.317,1.444,1.957,2.7,1.957,3.842s-.8,2.471-2.458,4.04c-1.624,1.542-3.121,2.324-4.451,2.324m.786-11.735a6.834,6.834,0,0,0-3.931,1.393,4.133,4.133,0,0,0-1.923,3.553,6.416,6.416,0,0,0,1.679,4.212,4.612,4.612,0,0,0,3.389,1.945c1.163,0,2.513-.723,4.016-2.15s2.261-2.628,2.261-3.582a5.569,5.569,0,0,0-1.793-3.416,5.088,5.088,0,0,0-3.7-1.954" transform="translate(-162.761 -7.965)" fill="#fff"/><path d="M450.359,10.323c-.088,0-.324,0-5.428-.729l-5.081-.725,0-.625,4.839-.727c1.115-.159,3.334-.435,6.784-.848l23.236-2.9c13.908-1.365,23.077-2.057,27.252-2.057l2.742-.36h.045c6.623,0,10.327.59,11.366,1.8l.076.088v.117c0,.432,0,.534-16.443,1.827-10.68.841-21.645,1.92-32.593,3.205-10.918,1.286-16.568,1.939-16.793,1.939m-8.285-1.775,2.946.421c4.381.626,5.226.722,5.34.723.166-.007,2.567-.267,16.718-1.934C478.033,6.47,489.007,5.39,499.7,4.549c10.132-.8,14.1-1.181,15.452-1.364-1.1-.615-3.858-1.21-10.406-1.21L502,2.335c-4.195,0-13.341.694-27.226,2.057L451.548,7.3c-3.448.412-5.662.688-6.77.845Z" transform="translate(-161.93 -0.496)" fill="#fff"/><path d="M754.945,672.57c-.2,0-.41,0-.622,0-5.179-.055-5.878-.772-5.878-1.466,0-.565.839-.679,2.191-.679a3.1,3.1,0,0,0,2.7-1.437,7.8,7.8,0,0,0,1.032-4.417,41.751,41.751,0,0,0-1.2-8.4,35.432,35.432,0,0,0-2.454-7.848,3.924,3.924,0,0,0-3.771-2.309,12,12,0,0,0-2.936.592,71.861,71.861,0,0,1-18.115,2.191h-2.42c-1.486,0-3.461-.133-3.461-1.283a.662.662,0,0,1,.207-.483,2.885,2.885,0,0,1,1.994-.378,56.8,56.8,0,0,0,7.986-.9c12.852-2.075,21.093-5.053,24.494-8.851a14.189,14.189,0,0,0,2.723-3.9c.223-.521.447-1,.667-1.442a14.265,14.265,0,0,1,.288-1.9c4.332-21.417,8.116-45.606,11.246-71.89,3.127-26.266,5.528-55.241,7.136-86.119,1.6-30.856,2.276-62.416,2-93.8-.282-31.4-1.89-64.282-4.777-97.73-3.452-40.454-7.643-72.515-12.456-95.3-.236-1.151-.413-2.06-.536-2.757a12.347,12.347,0,0,1-.918-3.185,69.6,69.6,0,0,0-3.432-12.524c-2.119-5.646-3.041-6.085-3.273-6.085s-.823.273-1.635,2.8c-1.758,4.8-2.688,8.551-2.768,11.165a11.692,11.692,0,0,0,.82,5.184c1.07,2.382.992,2.831.82,3.088l-.095.139h-.167c-.747,0-1.856-.76-3.49-2.392-3.675-3.675-5.5-6.928-5.416-9.669,0-1.657.719-4.385,2.2-8.329,2.728-5.377,4.712-12.264,5.911-20.5a27.256,27.256,0,0,0,.241-7.053,3.11,3.11,0,0,1,.267-2.435c.529-.617,1.456-.423,3.6.918a14.735,14.735,0,0,1,3.686,2.1,2.441,2.441,0,0,1,.815,2.077L757.3,143.9a42,42,0,0,0,.9,9.265,38.884,38.884,0,0,0,3.721,9.177,76.926,76.926,0,0,1,4.8,10.933,37.274,37.274,0,0,1,1.5,5.826,9.7,9.7,0,0,1,1.166,2.8c12.128,57.35,18.561,131.942,19.124,221.711.482,79.819-6.481,156.73-20.694,228.6a21.747,21.747,0,0,1-1.449,3.01,2.333,2.333,0,0,1-.159.354c-1.466,3.51-6.5,6.583-14.944,9.1-.231.077-.405.142-.536.2.452.151,1.362.419,3.186.889a9.226,9.226,0,0,1,4.616,2.074c1.014.972,2.127,3.128,3.405,6.592a32.714,32.714,0,0,1,1.895,11.36l-.007,1.76a6.2,6.2,0,0,1-2.249,4.005c-1.012.69-3.186,1.027-6.636,1.027m-5.829-1.389c.157.2.975.708,5.215.753,3.626.041,5.947-.267,6.9-.914a5.6,5.6,0,0,0,1.979-3.584v-1.659a32.091,32.091,0,0,0-1.856-11.142c-1.226-3.325-2.32-5.462-3.249-6.353a8.653,8.653,0,0,0-4.32-1.915c-4-1.032-4-1.148-4-1.459s.3-.511,1.3-.844c8.263-2.462,13.161-5.412,14.569-8.776a2.04,2.04,0,0,0,.141-.319l.028-.058a21.311,21.311,0,0,0,1.4-2.889c14.187-71.767,21.145-148.636,20.664-228.413-.562-89.727-6.991-164.277-19.108-221.577a9.076,9.076,0,0,0-1.122-2.659l-.044-.124a36.136,36.136,0,0,0-1.487-5.775,76.367,76.367,0,0,0-4.757-10.837,39.471,39.471,0,0,1-3.78-9.332,42.644,42.644,0,0,1-.916-9.447l.849-6.574a1.82,1.82,0,0,0-.636-1.55,14.841,14.841,0,0,0-3.538-1.994c-2.481-1.547-2.691-1.212-2.823-1.061s-.319.6-.12,1.937v.008a27.863,27.863,0,0,1-.243,7.222c-1.21,8.307-3.215,15.259-5.959,20.665-1.418,3.786-2.144,6.517-2.144,8.085-.076,2.57,1.684,5.666,5.23,9.212a8.743,8.743,0,0,0,2.762,2.151,11.764,11.764,0,0,0-.853-2.282,12.327,12.327,0,0,1-.875-5.464c.082-2.68,1.025-6.5,2.8-11.349.706-2.2,1.417-3.231,2.232-3.231.665,0,1.7.737,3.864,6.495a70.162,70.162,0,0,1,3.463,12.64,11.662,11.662,0,0,0,.885,3.058l.026.081c.123.7.3,1.615.54,2.78,4.817,22.8,9.012,54.892,12.466,95.37,2.889,33.463,4.5,66.361,4.78,97.778.28,31.4-.392,62.973-2,93.842-1.608,30.892-4.01,59.88-7.14,86.161-3.131,26.3-6.919,50.507-11.255,71.948a13.627,13.627,0,0,0-.281,1.886l-.033.115c-.225.444-.451.931-.675,1.449a14.53,14.53,0,0,1-2.838,4.081c-3.5,3.908-11.865,6.953-24.865,9.052a56.447,56.447,0,0,1-8.106.912c-1.192-.04-1.475.143-1.533.2-.016.344.727.68,2.814.68h2.42a71.238,71.238,0,0,0,17.946-2.167,12.248,12.248,0,0,1,3.1-.615,4.563,4.563,0,0,1,4.334,2.653,36.012,36.012,0,0,1,2.507,8,42.369,42.369,0,0,1,1.217,8.538,8.4,8.4,0,0,1-1.144,4.777,3.735,3.735,0,0,1-3.224,1.709,5.514,5.514,0,0,0-1.522.128" transform="translate(-265.074 -48.571)" fill="#fff"/><path d="M673.128,120.995c-.088,0-.324,0-5.428-.729l-5.081-.725,0-.625,4.839-.727c1.115-.159,3.334-.435,6.784-.848l23.227-2.9c13.916-1.366,23.085-2.059,27.26-2.059l2.742-.36h.045c6.623,0,10.327.59,11.366,1.8l.076.088v.117c0,.432,0,.534-16.443,1.827-10.68.841-21.645,1.92-32.593,3.205-10.918,1.286-16.568,1.939-16.793,1.939m-8.285-1.775,2.946.421c4.381.626,5.226.722,5.34.723.166-.007,2.567-.267,16.718-1.934,10.955-1.287,21.929-2.366,32.617-3.207,10.132-.8,14.1-1.181,15.453-1.364-1.1-.615-3.858-1.21-10.407-1.21l-2.742.36c-4.2,0-13.343.694-27.231,2.057l-23.22,2.9c-3.448.412-5.662.688-6.77.845Z" transform="translate(-243.943 -41.239)" fill="#fff"/><path d="M766.445,97.5a.386.386,0,0,1-.23-.075c-.167-.121-.236-.35-.236-.79l.849-8.019a30.444,30.444,0,0,0-4.556-15.473,51.724,51.724,0,0,0-13.108-14.368,14.238,14.238,0,0,0-3.389-1.8,42.693,42.693,0,0,1-.585,4.883,13.47,13.47,0,0,1-2.231,5.083c-1.106,1.532-2.962,2.309-5.519,2.309a19.987,19.987,0,0,1-8.857-2.637c-3.493-1.81-5.191-3.663-5.191-5.665,0-.751.723-1.785,2.277-3.254a19.216,19.216,0,0,1,10.2-5.041l.348-.143v-.514a7.377,7.377,0,0,1,.305-2.2c-.066-.327-.126-.666-.179-1.023a11.956,11.956,0,0,0-1.406-4.415c-.581-.906-1.957-1.366-4.089-1.366A67.525,67.525,0,0,0,715.439,45.4c-.164.056-.736.246-15.944,2.3-10.226,1.387-15.78,2.177-16.979,2.417a15.816,15.816,0,0,1-2.905.369,30.521,30.521,0,0,1-5.218-1.037c-4.02-1-4.353-1.463-4.353-1.88,0-.708,1.038-1.022,1.944-1.216a6.7,6.7,0,0,0,3.23-1.971c1.735-1.3,2.845-1.919,3.529-1.966.425-.018,1.793.291,8.734,3.325l4.039-.119c1.684-.08,7.819-.934,18.233-2.537,10.283-1.55,16.551-2.3,19.163-2.3a42.439,42.439,0,0,1,7.8.732,8.507,8.507,0,0,1,6.246,3.632A10.438,10.438,0,0,1,744.57,49.7a9.626,9.626,0,0,1,.867,2.971,2.127,2.127,0,0,0,.108.67l.016.1v.242a.974.974,0,0,0,.189.549l.054.08v.1a1.89,1.89,0,0,0,.019.3,5.094,5.094,0,0,1,.552.111,3.626,3.626,0,0,1,1.287.264,27.542,27.542,0,0,1,10.608,4.887,93.017,93.017,0,0,1,8.257,7.771,27.724,27.724,0,0,1,4.9,6.985,7.148,7.148,0,0,1,.147,2.689,26.46,26.46,0,0,1-.122,2.8l-1.336,6.083a43.228,43.228,0,0,1-2.072,8.279c-1.143,2.792-1.283,2.84-1.459,2.9a.449.449,0,0,1-.136.022M745.2,56.235l.327.037a11.718,11.718,0,0,1,4.009,1.985,52.37,52.37,0,0,1,13.286,14.562,31.068,31.068,0,0,1,4.642,15.827l-.8,7.558c.177-.388.432-.977.8-1.87a42.646,42.646,0,0,0,2.038-8.161l1.334-6.063a26.842,26.842,0,0,0,.113-2.715,6.709,6.709,0,0,0-.1-2.424,27.132,27.132,0,0,0-4.78-6.8,92.236,92.236,0,0,0-8.194-7.712,27.037,27.037,0,0,0-10.4-4.776,3.093,3.093,0,0,0-1.132-.232l-.076-.009a2.975,2.975,0,0,0-.59-.111c-.444,0-.492-.535-.5-.829a1.563,1.563,0,0,1-.243-.819v-.192a2.6,2.6,0,0,1-.121-.775,8.884,8.884,0,0,0-.829-2.781l-.035-.123a9.746,9.746,0,0,0-1.51-4.311,7.909,7.909,0,0,0-5.809-3.358,42.007,42.007,0,0,0-7.713-.725c-2.545,0-8.961.773-19.069,2.3-10.439,1.607-16.6,2.464-18.3,2.544h-.006l-4.184.123-.065-.028c-6.681-2.922-8.205-3.339-8.5-3.3-.371.026-1.221.361-3.158,1.812a7.236,7.236,0,0,1-3.511,2.114c-1.118.239-1.372.481-1.429.566.139.129.795.533,3.859,1.3a30.968,30.968,0,0,0,5.065,1.019,15.25,15.25,0,0,0,2.782-.356c1.211-.243,6.777-1.035,17.017-2.423,12.521-1.695,15.532-2.177,15.852-2.285a68.216,68.216,0,0,1,15.586-2.436c2.363,0,3.917.558,4.621,1.657a12.537,12.537,0,0,1,1.5,4.658c.057.378.12.734.191,1.075l.016.081-.027.08a6.689,6.689,0,0,0-.3,2.08v.94l-.8.321a18.715,18.715,0,0,0-9.936,4.89c-1.815,1.717-2.085,2.491-2.085,2.8,0,1.719,1.632,3.437,4.851,5.1a19.38,19.38,0,0,0,8.565,2.566c2.342,0,4.026-.689,5.007-2.047a12.855,12.855,0,0,0,2.125-4.841,45.054,45.054,0,0,0,.6-5.159ZM733.443,66.04c-.045,0-.089,0-.133,0-.495-.028-1.326-.3-1.326-1.829.179-2.065.977-3.1,2.373-3.1a2.557,2.557,0,0,1,1.446.417,1.584,1.584,0,0,1,.685,1.412,3.2,3.2,0,0,1-.986,2.023,2.756,2.756,0,0,1-2.058,1.079m.913-4.3c-.377,0-1.523,0-1.742,2.495,0,1.127.514,1.157.732,1.17a2.083,2.083,0,0,0,1.681-.862,2.675,2.675,0,0,0,.828-1.6.977.977,0,0,0-.4-.886,1.939,1.939,0,0,0-1.095-.311" transform="translate(-246.676 -15.014)" fill="#fff"/><path d="M673.128,29.469c-.088,0-.324,0-5.428-.73l-5.081-.725,0-.625,4.839-.727c1.115-.159,3.334-.436,6.784-.849l23.236-2.9c13.908-1.364,23.077-2.057,27.252-2.057l2.742-.361h.045c6.623,0,10.327.59,11.366,1.8l.076.088V22.5c0,.432,0,.535-16.443,1.827-10.68.841-21.645,1.92-32.593,3.205-10.918,1.286-16.568,1.939-16.793,1.939m-8.285-1.776,2.946.421c4.381.626,5.226.722,5.34.723.166-.008,2.567-.268,16.718-1.935,10.955-1.286,21.929-2.366,32.617-3.207,10.132-.8,14.1-1.182,15.453-1.364-1.1-.615-3.858-1.21-10.407-1.21l-2.742.36c-4.195,0-13.342.694-27.226,2.057l-23.225,2.9c-3.448.411-5.662.687-6.77.845Z" transform="translate(-243.943 -7.544)" fill="#fff"/><path d="M274.788,497.186c2.675,0,4.458,4.307,4.458,7.1a10.182,10.182,0,0,1-.555,3.718,5.84,5.84,0,0,1-4.559,2.658c-1.918,0-4.374-1.261-4.408-5.333-.033-4.492,2.406-8.143,5.064-8.143m3.5,8.344c0-.959-1.262-5.838-3.853-5.838-1.85,0-3.667,3.011-3.667,5.047a3.823,3.823,0,0,0,3.651,3.483,4.278,4.278,0,0,0,3.869-2.692" transform="translate(-99.299 -183.039)" fill="#fff"/><path d="M504.733,500.667a21.124,21.124,0,0,1,1.446,7.218c0,.858-.067,1.431-1.43,3.5l-.286-.168a9.168,9.168,0,0,0,.219-2.069c0-3.567-1.7-7.89-3.466-12.164a18.842,18.842,0,0,1,1.093-1.75h.286a9.136,9.136,0,0,0,1.144,2.255,4.291,4.291,0,0,0,3.214,1.194c1.144,0,2.708-.606,2.994-3.466a4.244,4.244,0,0,1,.706.236c.016.253.034.5.034.74,0,2.86-1.312,4.728-3.938,4.728a7.516,7.516,0,0,1-1.985-.3Z" transform="translate(-184.523 -182.314)" fill="#fff"/><path d="M737,498.977c-.774,2.91-2.658,8.766-4.02,12.147h-.152c-.454-.875-.723-1.346-1.026-2.07a61.264,61.264,0,0,0,4.409-12.433c.437-.488,1.01-1.009,1.413-1.379h.152a52.578,52.578,0,0,0,5.4,14.1c-.454.572-.875,1.128-1.329,1.784h-.2c-1.867-2.927-3.971-9.22-4.577-12.147Z" transform="translate(-269.413 -182.324)" fill="#fff"/></g></svg>